<svg width="88" height="28" viewBox="0 0 88 28" fill="none" xmlns="http://www.w3.org/2000/svg">
<g clip-path="url(#clip0_3768_12780)">
<path d="M6.74625 24.3271C5.48625 24.3271 4.34 24.0646 3.3075 23.5396C2.2925 23.0146 1.4875 22.2534 0.8925 21.2559C0.2975 20.2584 0 19.0509 0 17.6334V17.2659C0 15.8484 0.2975 14.6409 0.8925 13.6434C1.4875 12.6459 2.2925 11.8846 3.3075 11.3596C4.34 10.8346 5.48625 10.5721 6.74625 10.5721C7.98875 10.5721 9.05625 10.7909 9.94875 11.2284C10.8412 11.6659 11.5588 12.2696 12.1013 13.0396C12.6613 13.7921 13.0288 14.6496 13.2038 15.6121L10.0013 16.2946C9.93125 15.7696 9.77375 15.2971 9.52875 14.8771C9.28375 14.4571 8.93375 14.1246 8.47875 13.8796C8.04125 13.6346 7.49 13.5121 6.825 13.5121C6.16 13.5121 5.55625 13.6609 5.01375 13.9584C4.48875 14.2384 4.06875 14.6671 3.75375 15.2446C3.45625 15.8046 3.3075 16.4959 3.3075 17.3184V17.5809C3.3075 18.4034 3.45625 19.1034 3.75375 19.6809C4.06875 20.2409 4.48875 20.6696 5.01375 20.9671C5.55625 21.2471 6.16 21.3871 6.825 21.3871C7.8225 21.3871 8.575 21.1334 9.0825 20.6259C9.6075 20.1009 9.94 19.4184 10.08 18.5784L13.2825 19.3396C13.055 20.2671 12.6613 21.1159 12.1013 21.8859C11.5588 22.6384 10.8412 23.2334 9.94875 23.6709C9.05625 24.1084 7.98875 24.3271 6.74625 24.3271Z" fill="white"/>
<path d="M21.9434 24.3271C20.6484 24.3271 19.4846 24.0646 18.4521 23.5396C17.4196 23.0146 16.6059 22.2534 16.0109 21.2559C15.4159 20.2584 15.1184 19.0596 15.1184 17.6596V17.2396C15.1184 15.8396 15.4159 14.6409 16.0109 13.6434C16.6059 12.6459 17.4196 11.8846 18.4521 11.3596C19.4846 10.8346 20.6484 10.5721 21.9434 10.5721C23.2384 10.5721 24.4021 10.8346 25.4346 11.3596C26.4671 11.8846 27.2809 12.6459 27.8759 13.6434C28.4709 14.6409 28.7684 15.8396 28.7684 17.2396V17.6596C28.7684 19.0596 28.4709 20.2584 27.8759 21.2559C27.2809 22.2534 26.4671 23.0146 25.4346 23.5396C24.4021 24.0646 23.2384 24.3271 21.9434 24.3271ZM21.9434 21.3871C22.9584 21.3871 23.7984 21.0634 24.4634 20.4159C25.1284 19.7509 25.4609 18.8059 25.4609 17.5809V17.3184C25.4609 16.0934 25.1284 15.1571 24.4634 14.5096C23.8159 13.8446 22.9759 13.5121 21.9434 13.5121C20.9284 13.5121 20.0884 13.8446 19.4234 14.5096C18.7584 15.1571 18.4259 16.0934 18.4259 17.3184V17.5809C18.4259 18.8059 18.7584 19.7509 19.4234 20.4159C20.0884 21.0634 20.9284 21.3871 21.9434 21.3871Z" fill="white"/>
<path d="M36.8089 24.3271C35.7764 24.3271 34.8051 24.0734 33.8951 23.5659C33.0026 23.0409 32.2851 22.2796 31.7426 21.2821C31.2001 20.2846 30.9289 19.0771 30.9289 17.6596V17.2396C30.9289 15.8221 31.2001 14.6146 31.7426 13.6171C32.2851 12.6196 33.0026 11.8671 33.8951 11.3596C34.7876 10.8346 35.7589 10.5721 36.8089 10.5721C37.5964 10.5721 38.2526 10.6684 38.7776 10.8609C39.3201 11.0359 39.7576 11.2634 40.0901 11.5434C40.4226 11.8234 40.6764 12.1209 40.8514 12.4359H41.3239V5.58464H44.6314V23.9596H41.3764V22.3846H40.9039C40.6064 22.8746 40.1426 23.3209 39.5126 23.7234C38.9001 24.1259 37.9989 24.3271 36.8089 24.3271ZM37.8064 21.4396C38.8214 21.4396 39.6701 21.1159 40.3526 20.4684C41.0351 19.8034 41.3764 18.8409 41.3764 17.5809V17.3184C41.3764 16.0584 41.0351 15.1046 40.3526 14.4571C39.6876 13.7921 38.8389 13.4596 37.8064 13.4596C36.7914 13.4596 35.9426 13.7921 35.2601 14.4571C34.5776 15.1046 34.2364 16.0584 34.2364 17.3184V17.5809C34.2364 18.8409 34.5776 19.8034 35.2601 20.4684C35.9426 21.1159 36.7914 21.4396 37.8064 21.4396Z" fill="white"/>
<path d="M53.9684 24.3271C52.6734 24.3271 51.5271 24.0559 50.5296 23.5134C49.5496 22.9534 48.7796 22.1746 48.2196 21.1771C47.6771 20.1621 47.4059 18.9721 47.4059 17.6071V17.2921C47.4059 15.9271 47.6771 14.7459 48.2196 13.7484C48.7621 12.7334 49.5234 11.9546 50.5034 11.4121C51.4834 10.8521 52.6209 10.5721 53.9159 10.5721C55.1934 10.5721 56.3046 10.8609 57.2496 11.4384C58.1946 11.9984 58.9296 12.7859 59.4546 13.8009C59.9796 14.7984 60.2421 15.9621 60.2421 17.2921V18.4209H50.7659C50.8009 19.3134 51.1334 20.0396 51.7634 20.5996C52.3934 21.1596 53.1634 21.4396 54.0734 21.4396C55.0009 21.4396 55.6834 21.2384 56.1209 20.8359C56.5584 20.4334 56.8909 19.9871 57.1184 19.4971L59.8221 20.9146C59.5771 21.3696 59.2184 21.8684 58.7459 22.4109C58.2909 22.9359 57.6784 23.3909 56.9084 23.7759C56.1384 24.1434 55.1584 24.3271 53.9684 24.3271ZM50.7921 15.9534H56.8821C56.8121 15.2009 56.5059 14.5971 55.9634 14.1421C55.4384 13.6871 54.7471 13.4596 53.8896 13.4596C52.9971 13.4596 52.2884 13.6871 51.7634 14.1421C51.2384 14.5971 50.9146 15.2009 50.7921 15.9534Z" fill="white"/>
<path fill-rule="evenodd" clip-rule="evenodd" d="M65.6996 1.91061C66.6101 1.56459 67.6677 1.3211 68.6065 1.46306C69.5274 1.60234 70.6278 2.05454 71.2581 3.08332C71.3941 3.30541 71.4979 3.53674 71.5715 3.77529C71.7583 3.73052 71.9469 3.71147 72.1397 3.71147C72.9346 3.71147 73.3432 4.28659 73.4785 4.59492C73.5975 4.86607 73.6142 5.11992 73.6189 5.23443C73.6298 5.49989 73.5936 5.78834 73.5532 6.03409C73.4671 6.55716 73.2969 7.25774 73.0687 8.06049C72.608 9.68035 71.8689 11.8616 70.9421 14.1723C70.0156 16.4821 68.8895 18.9513 67.649 21.1361C66.4247 23.2926 65.0242 25.2895 63.5147 26.5474L61.7222 24.3964C62.8377 23.4668 64.0381 21.825 65.2141 19.7537C66.374 17.7108 67.4475 15.3633 68.3433 13.1299C69.1747 11.0574 69.8426 9.10899 70.2786 7.62902C70.1322 7.727 69.9527 7.84466 69.7467 7.97485C69.1719 8.33831 68.3737 8.81065 67.5053 9.22495C66.6547 9.63079 65.6503 10.0233 64.6814 10.1621C63.744 10.2964 62.4808 10.2351 61.5836 9.25042C61.1491 8.77355 60.8648 8.21308 60.7708 7.59315C60.6783 6.98243 60.7838 6.40399 60.9838 5.89796C61.3697 4.92158 62.1517 4.09317 62.9531 3.46214C63.777 2.81345 64.7514 2.27093 65.6996 1.91061ZM68.7822 5.26111C68.8746 5.02822 68.9032 4.86215 68.908 4.75617C68.9139 4.62422 68.885 4.56969 68.8705 4.54603C68.8275 4.47589 68.6417 4.30022 68.1878 4.23158C67.9459 4.195 67.4232 4.25096 66.6942 4.52799C66.0029 4.79072 65.2786 5.19486 64.6853 5.66205C64.0695 6.14689 63.7157 6.60359 63.5878 6.92714C63.5309 7.07107 63.5351 7.14631 63.5392 7.17368C63.542 7.19184 63.5524 7.25386 63.6533 7.36461C63.6533 7.36461 63.6556 7.36718 63.6605 7.36986C63.6673 7.37361 63.6893 7.38449 63.7352 7.39487C63.835 7.41745 64.0116 7.42946 64.2843 7.3904C64.841 7.31065 65.5473 7.05676 66.2996 6.69784C67.0341 6.34739 67.7309 5.93665 68.2504 5.6082C68.4641 5.47308 68.6448 5.3538 68.7822 5.26111Z" fill="white"/>
<path fill-rule="evenodd" clip-rule="evenodd" d="M79.4934 10.286C79.4384 10.2124 79.3721 10.1161 79.2935 9.99346C79.2591 9.93975 79.2081 9.85762 79.1517 9.7667C79.0555 9.61166 78.9434 9.43105 78.8703 9.32211C78.8005 9.21813 78.6948 9.06699 78.5653 8.92899C78.5001 8.85944 78.3942 8.75546 78.2499 8.6595C78.1145 8.56953 77.847 8.42045 77.4789 8.40337C77.1028 8.38591 76.8229 8.51989 76.6843 8.60157C76.538 8.6878 76.4359 8.7826 76.3792 8.83961C76.2661 8.95355 76.1873 9.06798 76.1455 9.13158C76.0545 9.27027 75.972 9.42816 75.904 9.56664C75.7617 9.8566 75.5951 10.244 75.4201 10.6761C75.0664 11.5491 74.6386 12.7027 74.2359 13.8551C73.8334 15.0069 73.4481 16.1799 73.1824 17.091C73.051 17.5415 72.9404 17.9565 72.8732 18.2826C72.8411 18.4384 72.8084 18.6232 72.797 18.8008C72.7917 18.8841 72.7864 19.0299 72.8117 19.197L72.8123 19.2009C72.8266 19.2958 72.9012 19.7902 73.3635 20.1457C73.7018 20.4057 74.0586 20.4377 74.1396 20.445L74.1438 20.4454C74.2785 20.4576 74.3972 20.4517 74.4724 20.446C74.6285 20.4342 74.7937 20.4069 74.937 20.38C75.2326 20.3245 75.6149 20.2355 76.0256 20.1373C76.1718 20.1023 76.3242 20.0655 76.482 20.0274C77.2369 19.8452 78.1134 19.6336 79.0116 19.4506C80.1071 19.2274 81.154 19.0642 81.9708 19.0441C82.0501 19.0422 82.1247 19.0417 82.1947 19.0424C82.1914 19.0461 82.188 19.0499 82.1846 19.0536C81.5905 19.7044 80.6449 20.4888 79.589 21.2734C78.5489 22.0462 77.4641 22.7738 76.6344 23.3109C76.2208 23.5786 75.8733 23.7973 75.6301 23.9485C75.5085 24.024 75.4131 24.0827 75.3487 24.1221L75.2759 24.1664L75.2581 24.1772L75.254 24.1797L75.9759 25.3792C76.6986 26.5782 76.6989 26.578 76.6989 26.578L76.7071 26.5731L76.7287 26.56L76.8094 26.5109C76.8792 26.4681 76.9804 26.4059 77.1082 26.3265C77.3637 26.1677 77.7258 25.9398 78.156 25.6614C79.0138 25.1061 80.1531 24.3426 81.259 23.5208C82.3491 22.7108 83.4713 21.7971 84.2525 20.9414C84.6344 20.5231 85.0156 20.0326 85.2397 19.5068C85.4641 18.9804 85.6426 18.1116 85.0529 17.3297C84.6196 16.755 83.9945 16.5034 83.5027 16.3841C82.993 16.2604 82.4351 16.2319 81.9019 16.245C80.8313 16.2713 79.5889 16.4754 78.4526 16.7069C77.6022 16.8802 76.7659 17.0787 76.0592 17.249C76.2883 16.5106 76.5761 15.6459 76.8791 14.7788C77.1608 13.9728 77.4516 13.1762 77.7155 12.4888C77.9824 12.7366 78.4606 13.086 79.118 13.086L87.4932 13.086V10.286H79.4934ZM79.6404 10.4538C79.6404 10.4538 79.6324 10.4487 79.6163 10.4327C79.6322 10.4447 79.6404 10.4538 79.6404 10.4538Z" fill="white"/>
</g>
<defs>
<clipPath id="clip0_3768_12780">
<rect width="87.5" height="28" fill="white"/>
</clipPath>
</defs>
</svg>
