<svg width="258" height="280" viewBox="0 0 258 280" fill="none" xmlns="http://www.w3.org/2000/svg">
<path opacity="0.38" d="M125.145 1.28467C196.868 5.14042 199.953 82.2617 192.241 112.339C184.528 142.415 243.14 149.356 250.081 198.714C257.022 248.072 211.521 268.894 179.13 269.665C146.739 270.436 121.29 251.156 115.891 227.248C110.493 203.341 95.0685 191.772 68.0761 187.145C41.0838 182.518 -7.50262 146.271 0.98088 99.2273C0.98088 99.2273 2.96717 49.1707 49.9536 15.9371C81.573 -6.42681 125.145 1.28467 125.145 1.28467Z" fill="#E5E5E5"/>
<path d="M78.7512 119.469C78.7512 119.469 76.7971 94.5523 84.1251 77.9409C87.0562 74.0328 89.0109 75.498 89.0109 75.498C89.0109 75.498 89.9879 85.7577 87.545 95.5286C85.1021 105.3 83.637 124.354 83.637 124.354L78.7512 119.469Z" fill="#61A27D"/>
<path d="M77.2852 117.515C77.2852 117.515 76.7963 105.789 64.5825 95.5294C52.3687 85.2697 49.9258 85.2697 49.9258 85.2697C49.9258 85.2697 59.6967 84.7808 66.5365 89.1784C73.3764 93.5754 75.8193 105.789 76.3081 107.744C76.797 109.698 79.7281 117.516 79.7281 117.516L77.2852 117.515Z" fill="#578B71"/>
<path d="M85.2089 119.311C85.2089 119.311 87.4984 107.801 101.147 99.545C114.795 91.2894 117.209 91.6658 117.209 91.6658C117.209 91.6658 107.629 89.6773 100.194 92.9682C92.7584 96.2591 88.4632 107.951 87.679 109.806C86.8956 111.662 82.7947 118.934 82.7947 118.934L85.2089 119.311Z" fill="#578B71"/>
<path d="M79.7281 117.515C79.7281 117.515 67.0255 75.4987 55.7887 65.7271C56.2768 64.2612 69.4684 68.6581 73.3764 79.4067C77.2852 90.1547 78.2623 106.277 79.7281 110.675C81.194 115.072 83.1481 118.981 83.1481 118.981" fill="#7CC97D"/>
<path d="M78.7511 119.469C78.7511 119.469 83.6369 96.5064 96.3396 88.6895C97.3166 91.6206 83.1488 115.56 84.6139 126.309C86.0791 137.057 78.7511 119.469 78.7511 119.469Z" fill="#7CC97D"/>
<path d="M71.7758 145.349H90.5643C91.7205 137.513 92.6918 130.467 92.8717 127.775C93.2416 122.223 91.3707 117.518 90.441 115.561H71.8991C70.9694 117.518 69.0985 122.223 69.4684 127.775C69.6476 130.467 70.6189 137.513 71.7758 145.349Z" fill="#A9A7E7"/>
<path d="M242.862 98.5594H208.404V145.179H242.862V98.5594Z" fill="#24ADB2"/>
<path d="M239.314 98.5593H204.856V145.179H239.314V98.5593Z" fill="#26C6DA"/>
<path d="M230.7 93.8297H196.242V145.179H230.7V93.8297Z" fill="#E1543C"/>
<path d="M227.153 93.8297H187.628V145.179H227.153V93.8297Z" fill="#FF634D"/>
<path d="M227.153 93.8297H220.396V145.179H227.153V93.8297Z" fill="#EB594D"/>
<path d="M29.8657 106.667C29.8657 106.667 24.4609 109.37 22.0962 117.14C19.7314 124.909 32.5688 145.855 32.5688 144.841C32.5688 143.827 45.4062 138.084 45.4062 138.084L38.9879 114.437L29.8657 106.667Z" fill="#7BB0FF"/>
<path d="M164.875 147.673L157.737 128.811H139.894L147.032 147.673" fill="#4F57A0"/>
<path d="M100.131 132.549H201.58L203.354 123.034H101.905" fill="#E2E7FF"/>
<path d="M110.883 74.8772L101.905 123.034H203.354L212.124 75.9919C212.473 74.1217 211.038 72.3942 209.135 72.3942H113.872C112.408 72.3942 111.152 73.4378 110.883 74.8772Z" fill="#B3C2FF"/>
<path d="M160.856 140.871L187.713 120.856L161.362 119.335L136.533 138.591L160.856 140.871Z" fill="white"/>
<path d="M153.339 134.368L160.096 130.652C160.096 130.652 166.62 127.95 166.81 127.95C167 127.95 167.57 128.584 166.873 129.913C166.176 131.244 164.339 131.561 164.339 131.561L163.136 134.918L169.386 134.031L170.821 133.693C170.821 133.693 169.808 136.227 169.386 136.818C168.963 137.409 166.599 138.93 166.599 138.93C166.599 138.93 162.122 142.645 160.518 143.068C158.913 143.49 153.339 143.743 153.339 143.743L149.792 143.658L146.498 144.334C146.498 144.334 144.81 141.21 145.063 136.818L153.339 134.368Z" fill="#FF8D68"/>
<path d="M193.371 149.908L212.964 277.604H217.694L204.856 149.232L193.371 149.908Z" fill="#E2E7FF"/>
<path d="M233.234 149.908L252.827 277.604H257.557L244.719 149.232L233.234 149.908Z" fill="#E2E7FF"/>
<path d="M118.374 149.908L98.7807 277.604H94.0511L106.889 149.232L118.374 149.908Z" fill="#C2D3EB"/>
<path d="M78.5114 149.908L58.918 277.604H54.1885L67.0259 149.232L78.5114 149.908Z" fill="#C2D3EB"/>
<path d="M247.422 148.557H71.0795V154.638H247.422V148.557Z" fill="#A9A7E7"/>
<path d="M250.8 151.259H76.4853C74.6194 151.259 73.1069 149.747 73.1069 147.881C73.1069 146.015 74.6194 144.503 76.4853 144.503H250.8C252.666 144.503 254.179 146.015 254.179 147.881C254.179 149.747 252.666 151.259 250.8 151.259Z" fill="#FFC757"/>
<path d="M82.3235 264.768C82.3235 264.768 83.4317 262.054 88.0644 262.537C92.6972 263.019 93.2707 263.878 93.9137 266.151C94.5566 268.424 96.2691 270.823 97.3565 271.301C98.4432 271.779 102.464 274.242 105.673 274.617C108.882 274.992 109.331 276.92 108.666 277.839C108.003 278.758 96.0111 280.053 93.3409 279.829C93.3409 279.829 84.3134 280.092 82.1565 279.489C80.0003 278.886 82.1902 265.661 82.3235 264.768Z" fill="#201360"/>
<path d="M83.5521 245.315L82.1615 266.49C82.1615 266.49 85.4624 267.553 87.9749 269.394C91.6872 272.114 94.7273 268.821 94.7273 268.821L95.5645 255.497L83.5521 245.315Z" fill="#FF8D68"/>
<path d="M110.436 208.013L96.7538 266.794C96.7538 266.794 89.6595 267.808 81.0448 263.754C81.0448 263.754 88.6459 208.521 89.1527 204.973C89.6595 201.426 109.422 204.973 110.436 208.013Z" fill="#243FA7"/>
<path d="M54.975 55.9375C54.975 55.9375 60.5919 56.9841 64.2835 65.2561C67.9751 73.5282 67.087 91.6872 65.1423 93.9459C63.1975 96.2046 56.8079 95.8153 47.8298 93.4986C38.3434 91.0514 34.5658 81.6088 32.4842 75.3539C28.4966 63.3752 38.2639 50.127 54.975 55.9375Z" fill="#FF8D68"/>
<path d="M39.3815 104.352L42.6121 88.8772C42.6121 88.8772 50.9279 85.8408 56.6036 91.1416L58.5347 93.4978L59.1921 103.391C59.1921 103.391 50.4756 105.745 39.3815 104.352Z" fill="#FF8D68"/>
<path d="M39.2008 199.521C39.2008 199.521 57.304 204.818 78.7761 204.087C100.248 203.356 103.09 197.268 103.759 191.463C104.429 185.659 87.7263 182.128 80.4606 180.22C73.195 178.313 48.3538 171.169 41.6358 178.414C34.9186 185.66 33.3559 194.569 39.2008 199.521Z" fill="#201360"/>
<path d="M132.49 264.768C132.49 264.768 133.599 262.054 138.231 262.537C142.864 263.019 143.438 263.878 144.081 266.151C144.724 268.424 146.436 270.823 147.524 271.301C148.61 271.779 152.631 274.242 155.84 274.617C159.049 274.992 159.498 276.92 158.833 277.839C158.169 278.758 146.178 280.053 143.508 279.829C143.508 279.829 134.48 280.092 132.323 279.489C130.167 278.886 132.356 265.661 132.49 264.768Z" fill="#201360"/>
<path d="M127.158 246.862L132.225 267.469C132.225 267.469 136.279 266.456 138.644 268.483C141.008 270.51 145.4 269.159 145.4 269.159L141.684 252.943L127.158 246.862Z" fill="#FF8D68"/>
<path d="M85.2681 177.947C86.2817 177.947 120.739 189.433 127.496 194.5C134.252 199.905 145.063 260.122 145.738 261.473C146.414 262.824 135.941 266.54 129.184 265.527C128.847 264.176 112.969 213.418 112.969 210.04C112.969 210.04 85.9434 208.688 74.4571 206.661C62.9716 204.634 55.2014 204.296 50.4718 191.797C45.7423 179.298 73.4436 178.285 73.4436 178.285L85.2681 177.947Z" fill="#243FA7"/>
<path d="M144.218 133.524C144.218 133.524 150.805 133.355 151.312 134.031C151.819 134.707 154.183 140.787 151.988 143.321C150.13 144.672 150.13 144.672 150.13 144.672H144.387L144.218 133.524Z" fill="#E2E7FF"/>
<path d="M38.2267 102.107L40.0001 97.5464C40.0001 97.5464 50.6412 94.2527 59.7626 98.3062C62.0428 100.586 63.3102 104.134 63.3102 104.134L38.2267 102.107Z" fill="#E2E7FF"/>
<path d="M35.9464 102.614C35.9464 102.614 37.2976 100.249 39.6624 99.9111C42.0271 99.5735 52.8374 98.2223 59.9317 100.249C62.6341 101.262 63.9853 102.614 63.9853 102.614C63.9853 102.614 74.1196 105.992 77.498 108.018C80.8763 110.045 81.8899 125.585 82.5651 130.652C83.2404 135.72 81.2139 141.125 81.2139 141.125C81.2139 141.125 89.3218 174.231 89.3218 178.961C89.3218 183.69 86.6194 189.095 77.1604 192.473C67.7013 195.852 42.0271 194.501 33.2433 189.095C30.5409 183.69 26.4866 119.504 25.8114 113.423C25.1361 107.343 35.9464 102.614 35.9464 102.614Z" fill="#7BB0FF"/>
<path d="M71.9241 106.667C71.9241 106.667 74.4581 105.147 80.5388 109.201C86.6195 113.255 103.341 128.457 105.369 129.47C107.396 130.484 146.414 132.511 146.414 132.511C146.414 132.511 151.988 139.606 145.907 145.179C145.907 145.179 108.24 146.7 101.146 146.193C94.0515 145.686 70.4038 132.004 70.4038 132.004C70.4038 132.004 60.7762 117.815 71.9241 106.667Z" fill="#7BB0FF"/>
<path d="M63.8032 129.027C63.8032 129.027 95.3932 145.612 99.0791 146.138C102.765 146.664 116.717 146.138 116.717 146.138" stroke="#1B2048" stroke-width="0.8263" stroke-miterlimit="10"/>
<path d="M106.45 133.239C106.45 133.239 107.503 139.031 103.817 142.453" stroke="#1B2048" stroke-width="0.8263" stroke-miterlimit="10"/>
<path d="M108.819 131.659C108.819 131.659 111.978 136.661 110.398 140.346" stroke="#1B2048" stroke-width="0.8263" stroke-miterlimit="10"/>
<path d="M63.5395 122.445C63.5395 122.445 60.9066 113.231 70.1206 107.176" stroke="#1B2048" stroke-width="0.8263" stroke-miterlimit="10"/>
<path d="M29.5802 113.758C29.5802 113.758 27.7373 130.08 27.7373 137.714" stroke="#1B2048" stroke-width="0.8263" stroke-miterlimit="10"/>
<path d="M39.0574 102.964C39.0574 102.964 51.1672 101.911 61.1704 102.964" stroke="#1B2048" stroke-width="0.8263" stroke-miterlimit="10"/>
<path d="M118.296 209.055C118.296 209.055 124.088 207.212 126.194 198.262" stroke="#1B2048" stroke-width="0.8263" stroke-miterlimit="10"/>
<path d="M122.245 209.845C122.245 209.845 125.667 208.792 127.247 204.053" stroke="#1B2048" stroke-width="0.8263" stroke-miterlimit="10"/>
<path d="M101.185 220.112L92.4973 263.548" stroke="#1B2048" stroke-width="0.8263" stroke-miterlimit="10"/>
<path d="M63.0563 66.889C63.0563 66.889 64.0699 71.4494 60.0156 74.4901L60.2686 79.5573C60.2686 79.5573 61.789 84.1177 60.7754 84.6245C59.7618 85.1312 59.5088 84.3707 59.5088 84.3707C59.5088 84.3707 56.215 79.0498 55.2015 78.7968C54.1879 78.543 57.4816 85.8911 57.4816 85.8911C57.4816 85.8911 54.1879 90.9582 48.1071 91.7181L49.3738 89.9447C49.3738 89.9447 46.5868 91.7181 42.2794 91.465C37.9721 91.2113 34.6783 84.6245 34.6783 84.6245C34.6783 84.6245 35.4382 86.3979 34.6783 87.1584C33.9185 87.9182 29.6112 81.3307 29.3574 72.9698L28.0908 75.5037C28.0908 75.5037 28.3439 69.676 30.6248 63.0885C32.9049 56.501 43.04 51.6868 48.6139 51.6868C54.1879 51.6868 59.7618 52.1936 61.2822 51.6868C62.8026 51.1801 62.042 55.4874 62.042 55.4874C62.042 55.4874 62.8018 53.714 63.0556 52.1936C64.0692 51.4338 65.5895 57.5145 65.0827 59.7947C64.576 62.0749 64.576 62.0749 64.576 62.0749C64.576 62.0749 66.3494 59.7947 66.6031 58.5274C67.6167 58.2744 67.3636 63.8483 63.0563 66.889Z" fill="#4A4A4A"/>
<path d="M59.3798 79.5121C59.3798 79.5121 58.3562 76.1202 55.5463 77.9036C52.7371 79.687 56.7276 87.6738 59.0773 86.9849C61.4277 86.2961 59.9977 80.8017 59.3798 79.5121Z" fill="#FF634D"/>
<path d="M162.207 138.254L169.386 136.818L170.821 133.693" stroke="#E66657" stroke-width="1.2805" stroke-miterlimit="10"/>
<path d="M169.132 136.986C169.132 136.986 165.501 140.027 164.994 140.28C164.487 140.534 162.207 141.124 162.207 141.124" stroke="#E66657" stroke-width="1.2805" stroke-miterlimit="10"/>
<path d="M58.2423 88.0874C58.2423 88.0874 57.2287 91.6342 63.3095 93.6614" stroke="#E66657" stroke-width="1.2805" stroke-miterlimit="10"/>
<path d="M125.33 91.804C125.136 92.8112 125.907 93.7452 126.933 93.7452H185.776C186.559 93.7452 187.232 93.1896 187.38 92.4205L188.246 87.9175H126.077L125.33 91.804Z" fill="#26C6F8"/>
<path d="M192.92 53.3355H134.076C133.294 53.3355 132.62 53.891 132.473 54.6602L126.077 87.9182H188.246L194.523 55.2774C194.717 54.2695 193.945 53.3355 192.92 53.3355Z" fill="#CAE5FF"/>
<path d="M152.689 93.7702C153.464 91.6333 153.942 90.1058 153.942 90.1058C153.942 90.1058 155.717 80.8288 147.811 83.2086C147.811 83.2086 145.068 85.2659 143.778 89.622C143.377 90.9746 142.899 92.4197 142.429 93.7702H152.689Z" fill="#387AB6"/>
<path d="M169.063 93.7702C168.918 89.1962 168.634 85.5282 168.14 84.5397C166.688 81.8775 160.759 79.4575 160.759 79.4575L152.652 80.6675C152.652 80.6675 149.263 81.6352 148.174 84.0559C147.809 84.8695 146.924 88.8263 145.978 93.7709L169.063 93.7702Z" fill="#DCE4FF"/>
<path d="M154.036 73.9682C154.036 73.9682 153.545 77.5946 152.467 80.2411C152.467 80.2411 152.173 82.2991 156.486 81.4174C160.798 80.535 160.21 78.3788 160.21 78.3788V69.8523L154.036 73.9682Z" fill="#FF8D68"/>
<path d="M147.982 65.0023C147.982 65.0023 148.03 73.1102 150.357 77.0161C151.946 78.659 157.361 76.0785 159.64 72.5926C161.919 69.1068 161.874 63.8626 160.071 60.943C158.268 58.0234 152.328 58.9015 150.588 59.91C148.848 60.9179 147.883 63.7056 147.982 65.0023Z" fill="#FF8D68"/>
<path d="M158.923 69.5821C158.923 69.5821 160.452 67.2259 161.475 68.6287C162.498 70.0315 158.955 72.9009 158.684 71.8092C158.414 70.7175 158.923 69.5821 158.923 69.5821Z" fill="#FBA894"/>
<path d="M147.982 65.0023C147.982 65.0023 145.137 62.5013 148.568 59.2671C150.528 57.7969 151.508 58.875 153.566 58.4829C155.624 58.0908 159.349 58.4829 160.721 60.6391C162.093 62.7952 161.602 67.7936 161.211 68.2839C160.819 68.7742 159.643 69.0681 159.643 69.9498C159.643 70.8322 159.447 71.5181 159.152 71.5181C158.858 71.5181 158.858 70.048 158.858 68.9699C158.858 67.8918 158.663 65.8338 158.172 64.3636C157.682 62.8934 155.429 62.9916 154.546 63.1873C153.664 63.383 153.08 65.641 147.982 65.0023Z" fill="#713336"/>
<path opacity="0.53" d="M158.661 67.4381C158.661 67.4381 158.725 67.4058 158.823 67.3649C158.823 67.3621 158.823 67.3571 158.823 67.3571L158.661 67.4381Z" fill="#505E83"/>
<path d="M158.823 67.3648C158.841 67.5254 159.355 72.2198 157.492 73.528C155.555 74.819 155.475 73.1653 153.942 72.923C152.409 72.6807 151.159 72.7617 150.473 73.7703C149.868 74.7789 149.989 75.2226 149.425 74.9401C149.303 75.2627 150.151 77.239 151.442 77.7637C152.733 78.2877 155.798 76.6748 157.169 75.4649C158.54 74.2549 159.388 73.4886 159.629 72.4399C159.871 71.3912 159.75 69.3741 160.033 67.9627C160.195 66.8961 159.219 67.2007 158.823 67.3648ZM151.764 76.029C149.909 75.6254 150.151 74.1739 152.047 73.5689C152.047 73.5689 154.063 72.6413 154.749 74.0527C155.031 74.9803 153.619 76.4326 151.764 76.029Z" fill="#713336"/>
<path d="M160.214 77.7637C160.214 77.7637 157.854 80.7284 153.982 81.0911C153.196 80.7886 152.772 79.3364 152.772 79.3364L152.167 80.2438C152.167 80.2438 151.865 82.0588 152.167 82.7849C152.53 82.8452 153.861 81.9377 153.861 81.9377C153.861 81.9377 154.768 83.2086 155.434 83.4502C156.099 83.6917 160.335 80.8488 160.757 79.4568C160.759 79.4575 160.729 78.459 160.214 77.7637Z" fill="white"/>
<path d="M169.681 93.7702C169.47 89.2614 169.201 85.815 168.947 85.1046C167.979 82.8459 164.349 79.9421 160.759 79.4575C160.759 79.4575 159.411 85.6816 158.084 93.7702H169.681Z" fill="#387AB6"/>
<path d="M148.798 93.7702C150.7 85.7003 152.168 80.9099 152.168 80.9099C151.079 81.031 149.143 81.8776 147.812 83.2087C147.089 84.6538 145.967 88.8041 144.807 93.7702H148.798Z" fill="#387AB6"/>
<path d="M168.956 93.7702C169.088 89.4536 168.846 85.4623 168.141 84.5398C165.842 82.6037 163.422 82.7248 162.212 84.9032C161.55 86.0938 160.672 90.2478 160.012 93.7709L168.956 93.7702Z" fill="#387AB6"/>
<path d="M153.862 81.9377C153.176 84.7325 152.607 87.5589 152.093 90.3904" stroke="#87B8EB" stroke-width="0.3595" stroke-miterlimit="10"/>
<path d="M190.419 62.5496C199.576 63.9029 207.738 60.0045 208.649 53.8423C209.56 47.68 202.874 41.5875 193.717 40.2342C184.559 38.8809 176.397 42.7793 175.486 48.9416C174.576 55.1038 181.261 61.1964 190.419 62.5496Z" fill="white"/>
<path opacity="0.9" d="M222.236 117.153H174.211C173.706 117.153 173.337 116.677 173.464 116.188L177.947 98.9628C178.035 98.623 178.343 98.3857 178.694 98.3857H226.719C227.223 98.3857 227.592 98.8624 227.465 99.3513L222.982 116.576C222.894 116.916 222.587 117.153 222.236 117.153Z" fill="#BFD9FF"/>
<path d="M180.797 102.07H197.508" stroke="#A9C2FF" stroke-width="1.076" stroke-miterlimit="10" stroke-linecap="round" stroke-linejoin="round"/>
<path d="M179.511 109.783H196.223" stroke="#A9C2FF" stroke-width="1.076" stroke-miterlimit="10" stroke-linecap="round" stroke-linejoin="round"/>
<path d="M186.539 106.869H203.25" stroke="#A9C2FF" stroke-width="1.076" stroke-miterlimit="10" stroke-linecap="round" stroke-linejoin="round"/>
<path d="M180.369 104.641H185.382" stroke="#A9C2FF" stroke-width="1.076" stroke-miterlimit="10" stroke-linecap="round" stroke-linejoin="round"/>
<path d="M179.683 106.869H184.696" stroke="#A9C2FF" stroke-width="1.076" stroke-miterlimit="10" stroke-linecap="round" stroke-linejoin="round"/>
<path d="M200.165 102.07H206.121" stroke="#A9C2FF" stroke-width="1.076" stroke-miterlimit="10" stroke-linecap="round" stroke-linejoin="round"/>
<path d="M203.083 113.402H194.189C194.144 113.402 194.111 113.359 194.123 113.316L194.521 111.787C194.529 111.756 194.556 111.735 194.587 111.735H203.481C203.526 111.735 203.558 111.777 203.548 111.821L203.15 113.351C203.142 113.381 203.115 113.402 203.083 113.402Z" stroke="#84AEE5" stroke-width="0.3587" stroke-miterlimit="10"/>
<path d="M192.028 113.402H183.134C183.089 113.402 183.057 113.359 183.068 113.316L183.466 111.787C183.474 111.756 183.501 111.735 183.532 111.735H192.426C192.471 111.735 192.504 111.777 192.492 111.821L192.094 113.351C192.086 113.381 192.059 113.402 192.028 113.402Z" stroke="#84AEE5" stroke-width="0.3587" stroke-miterlimit="10"/>
<path d="M218.715 111.184C218.26 110.577 216.41 110.136 215.899 109.529C215.638 109.218 215.638 108.642 215.7 108.152C215.883 108.036 216.034 107.92 216.123 107.812C216.277 107.587 216.45 107.274 216.624 106.93C216.676 106.982 216.746 107.021 216.837 107.019C217.08 107.012 218.004 105.753 217.766 105.462C217.629 105.295 217.409 105.44 217.246 105.595C217.49 105.034 217.662 104.605 217.662 104.605H217.653C217.676 104.534 217.698 104.463 217.715 104.391C218.082 102.92 217.187 101.728 215.716 101.728C214.245 101.728 212.756 102.92 212.389 104.391C212.371 104.464 212.357 104.535 212.345 104.605H212.336C212.336 104.605 212.293 105.034 212.259 105.595C212.172 105.441 212.025 105.296 211.805 105.462C211.422 105.754 211.719 107.012 211.958 107.019C212.047 107.022 212.137 106.982 212.215 106.93C212.217 107.274 212.233 107.587 212.275 107.812C212.319 107.944 212.448 108.089 212.615 108.23C212.433 108.702 212.154 109.235 211.759 109.529C210.946 110.136 208.876 110.577 208.117 111.184C207.435 111.731 206.826 113.326 206.711 113.641H218.898C218.938 113.326 219.125 111.731 218.715 111.184Z" fill="#387AB6"/>
<path d="M157.118 111.01H117.71C114.251 111.01 112.145 108.205 113.008 104.746C113.87 101.287 117.374 98.4818 120.834 98.4818H160.241C163.701 98.4818 165.806 101.287 164.944 104.746C164.081 108.205 160.578 111.01 157.118 111.01Z" fill="white"/>
<path d="M121.891 106.382L120.201 107.168C120.042 107.241 119.907 107.122 119.973 106.965L120.673 105.302C120.7 105.239 120.695 105.176 120.66 105.132L119.746 103.953C119.66 103.842 119.771 103.649 119.934 103.626L121.665 103.383C121.729 103.374 121.793 103.335 121.835 103.279L122.959 101.766C123.065 101.623 123.268 101.623 123.303 101.766L123.673 103.279C123.687 103.335 123.731 103.375 123.792 103.383L125.401 103.626C125.553 103.649 125.568 103.842 125.426 103.953L123.923 105.132C123.868 105.175 123.831 105.239 123.826 105.302L123.697 106.965C123.685 107.122 123.49 107.241 123.369 107.168L122.07 106.382C122.02 106.353 121.954 106.353 121.891 106.382Z" fill="#FFA402"/>
<path d="M130.211 106.382L128.521 107.168C128.362 107.241 128.227 107.122 128.293 106.965L128.993 105.302C129.02 105.239 129.015 105.176 128.981 105.132L128.066 103.953C127.98 103.842 128.091 103.649 128.254 103.626L129.985 103.383C130.049 103.374 130.113 103.335 130.155 103.279L131.279 101.766C131.385 101.623 131.588 101.623 131.623 101.766L131.993 103.279C132.007 103.335 132.051 103.375 132.112 103.383L133.722 103.626C133.873 103.649 133.888 103.842 133.747 103.953L132.244 105.132C132.188 105.175 132.152 105.239 132.147 105.302L132.017 106.965C132.005 107.122 131.811 107.241 131.689 107.168L130.391 106.382C130.34 106.353 130.274 106.353 130.211 106.382Z" fill="#FFA402"/>
<path d="M138.531 106.382L136.841 107.168C136.682 107.241 136.547 107.122 136.613 106.965L137.314 105.302C137.339 105.239 137.335 105.176 137.301 105.132L136.386 103.953C136.3 103.842 136.411 103.649 136.574 103.626L138.305 103.383C138.369 103.374 138.433 103.335 138.475 103.279L139.599 101.766C139.706 101.623 139.908 101.623 139.943 101.766L140.313 103.279C140.326 103.335 140.371 103.375 140.431 103.383L142.041 103.626C142.192 103.649 142.207 103.842 142.065 103.953L140.563 105.132C140.507 105.175 140.47 105.239 140.465 105.302L140.336 106.965C140.323 107.122 140.129 107.241 140.007 107.168L138.709 106.382C138.66 106.353 138.594 106.353 138.531 106.382Z" fill="#FFA402"/>
<path d="M146.851 106.382L145.161 107.168C145.002 107.241 144.867 107.122 144.933 106.965L145.634 105.302C145.66 105.239 145.655 105.176 145.621 105.132L144.706 103.953C144.62 103.842 144.731 103.649 144.894 103.626L146.624 103.383C146.689 103.374 146.753 103.335 146.795 103.279L147.92 101.766C148.026 101.623 148.228 101.623 148.263 101.766L148.633 103.279C148.646 103.335 148.691 103.375 148.751 103.383L150.361 103.626C150.512 103.649 150.527 103.842 150.386 103.953L148.884 105.132C148.828 105.175 148.791 105.239 148.786 105.302L148.656 106.965C148.644 107.122 148.45 107.241 148.328 107.168L147.03 106.382C146.981 106.353 146.915 106.353 146.851 106.382Z" fill="#FFA402"/>
<path d="M155.171 106.382L153.481 107.168C153.322 107.241 153.187 107.122 153.253 106.965L153.954 105.302C153.979 105.239 153.975 105.176 153.941 105.132L153.026 103.953C152.94 103.842 153.051 103.649 153.214 103.626L154.944 103.383C155.009 103.374 155.072 103.335 155.115 103.279L156.239 101.766C156.345 101.623 156.548 101.623 156.583 101.766L156.953 103.279C156.966 103.335 157.011 103.375 157.071 103.383L158.681 103.626C158.832 103.649 158.847 103.842 158.705 103.953L157.203 105.132C157.147 105.175 157.11 105.239 157.105 105.302L156.976 106.965C156.963 107.122 156.769 107.241 156.647 107.168L155.349 106.382C155.301 106.353 155.234 106.353 155.171 106.382Z" fill="#C2D4D9"/>
<path d="M60.2164 86.8401C62.0157 86.8401 63.4743 84.807 63.4743 82.2991C63.4743 79.7911 62.0157 77.7581 60.2164 77.7581C58.4171 77.7581 56.9585 79.7911 56.9585 82.2991C56.9585 84.807 58.4171 86.8401 60.2164 86.8401Z" fill="#202F7C"/>
<path d="M60.7095 82.694C60.7095 82.694 69.7915 92.7631 69.7915 94.3429C69.7915 95.9221 66.8296 95.7249 66.8296 95.7249" stroke="#202F7C" stroke-width="1.1018" stroke-miterlimit="10"/>
<path d="M67.5215 95.725C67.5215 96.3794 66.9911 96.9099 66.3366 96.9099C65.6822 96.9099 65.1517 96.3794 65.1517 95.725C65.1517 95.0705 65.6822 94.5401 66.3366 94.5401C66.9911 94.5401 67.5215 95.0705 67.5215 95.725Z" fill="#202F7C"/>
<path d="M44.561 213.587C47.7867 219.152 57.906 223.215 69.8976 223.215C81.8891 223.215 92.0084 219.152 95.2341 213.587H44.561Z" fill="#4F57A0"/>
<path d="M112.97 185.042L106.889 213.08H103.173L106.551 185.717L112.97 185.042Z" fill="#A9A7E7"/>
<path d="M124.117 187.406H69.684V180.649H118.712C121.697 180.649 124.117 183.069 124.117 186.054L124.117 187.406Z" fill="#7A82CC"/>
<path d="M25.1362 210.04L11.9618 146.68C11.4385 144.163 13.3603 141.8 15.9308 141.8H59.5253C61.9266 141.8 63.9975 143.486 64.4864 145.836L77.8356 210.04" fill="#A9A7E7"/>
<path d="M114.664 216.991H31.8778C29.0843 216.991 26.6257 215.147 25.8436 212.465L25.1368 210.04H114.665V216.991H114.664Z" fill="#A9A7E7"/>
<path d="M73.9512 220.175H67.3636V278.956H73.9512V220.175Z" fill="#E2E7FF"/>
<path d="M73.9512 231.069L67.3636 236.39V220.175H73.9512V231.069Z" fill="#4F57A0"/>
<path d="M73.7491 270.195H71.3399H70.7377H68.3285L43.6343 280H98.4433L73.7491 270.195Z" fill="#E2E7FF"/>
<path d="M17.7688 146.135H56.9542" stroke="#4F57A0" stroke-miterlimit="10"/>
<path d="M61.0164 150.675L67.7064 184.365" stroke="#4F57A0" stroke-miterlimit="10"/>
<path d="M68.9014 190.339L70.335 200.135" stroke="#4F57A0" stroke-miterlimit="10"/>
<path d="M244.576 93.5065H213.023C211.396 93.5065 210.153 92.0528 210.407 90.445L210.645 88.9325C210.849 87.6451 211.958 86.6968 213.262 86.6968H244.815C246.442 86.6968 247.685 88.1512 247.431 89.7583L247.193 91.2708C246.989 92.5582 245.88 93.5065 244.576 93.5065Z" fill="#CAE5FF"/>
<path d="M214.344 90.1612H241.583" stroke="white" stroke-width="2" stroke-miterlimit="10"/>
<path d="M136.644 50.3206H128.042C123.951 50.3206 119.93 53.6365 119.06 57.7274C118.191 61.8183 120.802 65.1342 124.893 65.1342H126.76C128.847 70.0745 133.775 69.4351 133.775 69.4351C132.843 67.5779 132.645 66.0912 132.651 65.1342H133.495C137.586 65.1342 141.607 61.8183 142.477 57.7274C143.346 53.6373 140.735 50.3206 136.644 50.3206Z" fill="#F6821F"/>
<path d="M124.383 56.2944H132.506" stroke="white" stroke-width="2" stroke-miterlimit="10"/>
<path d="M123.698 59.5201H136.898" stroke="white" stroke-width="2" stroke-miterlimit="10"/>
<path d="M197.824 49.6854C197.722 49.714 197.62 49.6961 197.536 49.6687C197.312 49.5957 197.088 49.5227 196.864 49.4497C196.388 49.2946 195.926 49.1441 195.455 48.975C195.063 48.8472 194.671 48.7195 194.297 48.5823C194.199 48.5504 194.125 48.495 194.059 48.4117C193.988 48.2957 194.029 48.1232 194.117 48.0435C194.209 47.9497 194.297 47.87 194.385 47.7903C194.63 47.5605 194.89 47.3353 195.13 47.1195C195.584 46.7254 196.023 46.3268 196.477 45.9327C196.57 45.8389 196.672 45.7638 196.759 45.684C196.838 45.6323 196.912 45.5946 196.992 45.5894C197.168 45.5696 197.272 45.6806 197.291 45.8574C197.312 46.1273 197.206 46.3561 197.021 46.5436C196.906 46.6607 196.767 46.7548 196.66 46.8905C196.48 47.1105 196.356 47.3488 196.358 47.6281C196.354 47.7818 196.383 47.9306 196.449 48.0605C196.624 48.4271 196.933 48.6206 197.306 48.7112C197.59 48.7884 197.819 48.9405 197.965 49.2049C198.017 49.2837 198.032 49.3814 198.018 49.47C198.01 49.5911 197.941 49.6614 197.824 49.6854Z" fill="url(#paint0_linear_4625_4166)"/>
<path d="M197.508 46.8566C197.898 46.7515 198.3 47.0375 198.373 47.4327C198.459 47.8326 198.206 48.23 197.811 48.3025C197.425 48.3935 196.981 48.1404 196.917 47.6706C196.869 47.345 197.085 46.9199 197.508 46.8566Z" fill="url(#paint1_linear_4625_4166)"/>
<path d="M196.631 49.3578C196.626 49.3718 196.626 49.3718 196.631 49.3578C196.225 49.2255 195.833 49.0978 195.445 48.956C195.431 48.9515 195.417 48.9469 195.403 48.9424C195.398 48.9098 195.38 48.8727 195.375 48.8401C195.337 48.7193 195.313 48.6031 195.307 48.4774C195.288 48.3938 195.287 48.3007 195.282 48.2215C195.285 47.8817 195.329 47.5555 195.448 47.2381C195.553 46.9627 195.691 46.729 195.876 46.495C195.899 46.4716 195.922 46.4481 195.931 46.4201C195.95 46.4107 195.973 46.3873 195.996 46.3638C196.107 46.2607 196.232 46.1621 196.343 46.0589C196.491 45.9369 196.625 45.8103 196.774 45.6882C196.838 45.6319 196.899 45.5896 196.992 45.589C197.089 45.5744 197.173 45.6018 197.239 45.6851C197.249 45.7037 197.254 45.7362 197.263 45.7548C197.272 45.7734 197.277 45.8059 197.296 45.843C197.287 45.871 197.292 45.9036 197.301 45.9221C197.293 46.0898 197.243 46.2438 197.151 46.3841C197.077 46.5149 196.966 46.6181 196.846 46.7027C196.776 46.773 196.707 46.8433 196.638 46.9136C196.633 46.9276 196.619 46.923 196.614 46.937C196.6 46.9324 196.614 46.937 196.596 46.9464C196.494 47.0682 196.388 47.2039 196.31 47.3487C196.259 47.4561 196.227 47.5541 196.21 47.6567C196.201 47.7312 196.192 47.8058 196.197 47.8849C196.189 48.1456 196.2 48.397 196.263 48.634C196.277 48.7317 196.31 48.8199 196.344 48.9081C196.414 49.0241 196.485 49.14 196.555 49.2559C196.588 49.2976 196.607 49.3347 196.631 49.3578Z" fill="url(#paint2_linear_4625_4166)"/>
<path d="M191.873 43.9054C191.944 43.9747 191.977 44.063 192.005 44.1652C192.054 44.3976 192.102 44.6301 192.15 44.8626C192.255 45.346 192.361 45.8295 192.467 46.313C192.553 46.7128 192.64 47.1126 192.726 47.5124C192.736 47.6241 192.737 47.7172 192.691 47.8106C192.64 47.918 192.454 47.9658 192.342 47.9293C192.226 47.9068 192.105 47.8518 191.988 47.8293C191.666 47.7244 191.354 47.638 191.032 47.5331C190.458 47.346 189.898 47.1635 189.324 46.9765C189.198 46.9354 189.086 46.8989 188.96 46.8579C188.89 46.8351 188.811 46.7937 188.768 46.7334C188.646 46.5853 188.71 46.4359 188.849 46.3418C189.062 46.1635 189.318 46.1385 189.579 46.1926C189.738 46.2288 189.897 46.3116 190.06 46.3337C190.326 46.3739 190.595 46.3534 190.841 46.2168C190.976 46.1367 191.087 46.0336 191.174 45.9073C191.391 45.5753 191.402 45.2074 191.302 44.8496C191.226 44.5615 191.238 44.2867 191.399 44.0296C191.441 43.9501 191.51 43.8798 191.584 43.8421C191.691 43.7995 191.794 43.8174 191.873 43.9054Z" fill="url(#paint3_linear_4625_4166)"/>
<path d="M189.594 45.6245C189.318 45.333 189.356 44.8346 189.643 44.572C189.949 44.2999 190.419 44.3294 190.696 44.6208C190.958 44.9077 190.962 45.4198 190.605 45.7062C190.336 45.9128 189.862 45.9439 189.594 45.6245Z" fill="url(#paint4_linear_4625_4166)"/>
<path d="M192.198 45.095C192.212 45.0995 192.212 45.0995 192.198 45.095C192.294 45.5133 192.38 45.9132 192.462 46.327C192.472 46.3455 192.467 46.3595 192.462 46.3735C192.439 46.3969 192.416 46.4204 192.388 46.4578C192.301 46.5375 192.213 46.6173 192.111 46.6924C192.046 46.7487 191.967 46.8005 191.893 46.8382C191.605 47.0077 191.299 47.1402 190.959 47.1843C190.68 47.2327 190.401 47.2346 190.117 47.2039C190.089 47.1948 190.056 47.1997 190.028 47.1905C190 47.1814 189.972 47.1723 189.944 47.1632C189.804 47.1176 189.65 47.0674 189.51 47.0218C189.328 46.9624 189.146 46.9031 188.965 46.8438C188.881 46.8165 188.815 46.7797 188.763 46.7009C188.693 46.6315 188.674 46.5478 188.72 46.4544C188.729 46.4264 188.748 46.417 188.757 46.389C188.78 46.3655 188.803 46.3421 188.821 46.3327C188.859 46.3138 188.882 46.2904 188.9 46.2809C189.053 46.1914 189.202 46.1625 189.356 46.1661C189.509 46.1698 189.649 46.2154 189.789 46.261C189.887 46.293 189.971 46.3203 190.074 46.3383C190.088 46.3428 190.088 46.3428 190.102 46.3474L190.116 46.3519C190.279 46.3741 190.442 46.3963 190.614 46.3905C190.721 46.3945 190.819 46.3798 190.926 46.3372C190.995 46.3135 191.07 46.2757 191.13 46.2334C191.353 46.1202 191.571 45.9744 191.751 45.801C191.839 45.7212 191.89 45.6604 191.95 45.5715C192.019 45.4547 192.088 45.3378 192.143 45.2164C192.17 45.179 192.184 45.137 192.198 45.095Z" fill="url(#paint5_linear_4625_4166)"/>
<path d="M196.591 44.9167C196.559 45.0147 196.504 45.0895 196.421 45.1552C196.245 45.3147 196.069 45.4742 195.893 45.6336C195.523 45.962 195.153 46.2904 194.782 46.6188C194.477 46.8908 194.172 47.1629 193.866 47.435C193.783 47.5007 193.704 47.5524 193.597 47.5485C193.471 47.554 193.345 47.4198 193.32 47.3036C193.278 47.1968 193.258 47.0666 193.234 46.9503C193.172 46.6202 193.09 46.2995 193.028 45.9694C192.907 45.3882 192.792 44.7931 192.671 44.2119C192.652 44.0817 192.614 43.9609 192.594 43.8307C192.575 43.747 192.584 43.6725 192.607 43.6025C192.68 43.4251 192.843 43.4007 192.992 43.4649C193.244 43.5936 193.395 43.7974 193.466 44.053C193.523 44.2109 193.529 44.3831 193.586 44.541C193.69 44.7917 193.831 45.0236 194.065 45.1617C194.196 45.2353 194.336 45.2809 194.499 45.3031C194.895 45.3237 195.21 45.1633 195.488 44.8821C195.696 44.6713 195.947 44.5672 196.244 44.5559C196.338 44.5552 196.422 44.5826 196.51 44.6425C196.599 44.7025 196.628 44.8047 196.591 44.9167Z" fill="url(#paint6_linear_4625_4166)"/>
<path d="M193.986 43.7888C194.1 43.3923 194.541 43.1798 194.914 43.317C195.306 43.4447 195.509 43.8671 195.386 44.245C195.267 44.6089 194.827 44.8679 194.402 44.6985C194.085 44.5796 193.826 44.1856 193.986 43.7888Z" fill="url(#paint7_linear_4625_4166)"/>
<path d="M195.718 45.7931C195.408 46.0792 195.088 46.3467 194.783 46.6188C194.778 46.6328 194.76 46.6422 194.741 46.6516C194.699 46.638 194.671 46.6288 194.624 46.6291C194.512 46.5926 194.386 46.5516 194.279 46.5011C194.214 46.4643 194.134 46.4229 194.055 46.3815C193.751 46.2206 193.494 46.0128 193.287 45.7442C193.109 45.5312 192.972 45.2854 192.858 45.0161C192.84 44.979 192.83 44.9605 192.825 44.9279C192.816 44.9093 192.811 44.8768 192.802 44.8582C192.773 44.7094 192.744 44.5606 192.715 44.4119C192.672 44.212 192.638 44.0306 192.604 43.8493C192.585 43.7656 192.584 43.6725 192.625 43.5931C192.657 43.4951 192.736 43.4433 192.834 43.4287C192.866 43.4239 192.88 43.4284 192.908 43.4375C192.936 43.4467 192.964 43.4558 192.992 43.4649C193.016 43.488 193.044 43.4972 193.072 43.5063C193.217 43.5845 193.315 43.7095 193.395 43.844C193.461 43.9739 193.504 44.1272 193.533 44.276C193.548 44.3737 193.576 44.4759 193.61 44.5642C193.605 44.5782 193.605 44.5782 193.601 44.5922L193.596 44.6062C193.667 44.7686 193.738 44.9311 193.818 45.0656C193.879 45.1629 193.945 45.2463 194.02 45.3017C194.08 45.3525 194.146 45.3893 194.211 45.4261C194.426 45.5736 194.651 45.6932 194.893 45.7567C194.991 45.7887 195.08 45.8021 195.173 45.8014C195.313 45.8005 195.452 45.7996 195.578 45.7941C195.638 45.7983 195.671 45.7934 195.718 45.7931Z" fill="url(#paint8_linear_4625_4166)"/>
<path d="M194.855 47.5887C194.839 47.5834 194.839 47.5834 194.855 47.5887C194.844 47.5673 194.861 47.5725 194.855 47.5887Z" fill="#1E1E1E"/>
<path d="M188.676 47.4929C188.773 47.4783 188.867 47.4777 188.96 47.5236C189.184 47.5966 189.408 47.6696 189.632 47.7426C190.108 47.8977 190.57 48.0482 191.041 48.2173C191.433 48.3451 191.811 48.4683 192.198 48.61C192.296 48.6419 192.371 48.6973 192.437 48.7807C192.498 48.878 192.457 49.0505 192.365 49.1443C192.277 49.224 192.189 49.3037 192.101 49.3835C191.842 49.6087 191.597 49.8384 191.356 50.0542C190.902 50.4483 190.463 50.847 190.009 51.2411C189.903 51.3303 189.81 51.424 189.708 51.4992C189.643 51.5555 189.583 51.5978 189.504 51.6029C189.327 51.6227 189.224 51.5117 189.204 51.3349C189.184 51.065 189.289 50.8362 189.479 50.6347C189.595 50.5176 189.734 50.4235 189.84 50.2878C190.006 50.0632 190.125 49.839 190.124 49.5596C190.127 49.406 190.098 49.2572 190.032 49.1273C189.858 48.7606 189.563 48.5717 189.194 48.4671C188.91 48.3899 188.681 48.2378 188.535 47.9734C188.483 47.8946 188.468 47.7969 188.468 47.7038C188.486 47.6013 188.56 47.517 188.676 47.4929Z" fill="url(#paint9_linear_4625_4166)"/>
<path d="M188.993 50.3213C188.588 50.4218 188.186 50.1358 188.109 49.7546C188.036 49.3593 188.29 48.9619 188.69 48.8754C189.071 48.7984 189.505 49.0329 189.569 49.5027C189.618 49.8283 189.402 50.2534 188.993 50.3213Z" fill="url(#paint10_linear_4625_4166)"/>
<path d="M189.856 47.8156C190.262 47.9479 190.654 48.0756 191.041 48.2173C191.055 48.2219 191.069 48.2264 191.083 48.231C191.088 48.2636 191.107 48.3007 191.107 48.3472C191.145 48.468 191.169 48.5843 191.179 48.6959C191.184 48.775 191.199 48.8727 191.204 48.9518C191.202 49.2917 191.157 49.6179 191.038 49.9353C190.933 50.2107 190.777 50.4538 190.61 50.6784C190.587 50.7018 190.578 50.7298 190.555 50.7532C190.532 50.7767 190.523 50.8047 190.504 50.8141C190.393 50.9173 190.268 51.0159 190.157 51.119C190.009 51.2411 189.875 51.3677 189.727 51.4897C189.662 51.546 189.588 51.5837 189.504 51.6029C189.406 51.6175 189.308 51.5856 189.257 51.5068C189.238 51.4697 189.228 51.4511 189.219 51.4326C189.214 51.4 189.209 51.3675 189.204 51.3349C189.213 51.3069 189.208 51.2744 189.199 51.2558C189.207 51.0881 189.253 50.9482 189.331 50.8033C189.405 50.6725 189.516 50.5693 189.641 50.4707C189.724 50.405 189.793 50.3347 189.849 50.2598C189.853 50.2458 189.867 50.2504 189.872 50.2364C189.886 50.2409 189.872 50.2364 189.89 50.2269C189.992 50.1052 190.098 49.9695 190.176 49.8246C190.222 49.7312 190.268 49.6378 190.272 49.5307C190.281 49.4561 190.29 49.3816 190.285 49.3025C190.292 49.0417 190.281 48.7904 190.219 48.5534C190.219 48.4603 190.19 48.358 190.138 48.2792C190.072 48.1493 190.001 48.0334 189.931 47.9175C189.907 47.8944 189.889 47.8572 189.856 47.8156Z" fill="url(#paint11_linear_4625_4166)"/>
<path d="M195.243 49.2926C195.215 49.2835 195.205 49.265 195.196 49.2464C195.205 49.265 195.219 49.2695 195.243 49.2926Z" fill="#A7FE73"/>
<path d="M194.599 53.2634C194.529 53.194 194.495 53.1058 194.467 53.0035C194.433 52.7756 194.385 52.5432 194.337 52.3107C194.231 51.8272 194.125 51.3438 194.02 50.8603C193.933 50.4605 193.847 50.0607 193.76 49.6609C193.746 49.5632 193.749 49.4561 193.795 49.3627C193.846 49.2552 194.032 49.2074 194.144 49.2439C194.256 49.2804 194.382 49.3215 194.494 49.358C194.816 49.4629 195.128 49.5493 195.45 49.6542C196.024 49.8413 196.584 50.0237 197.158 50.2108C197.284 50.2518 197.396 50.2883 197.522 50.3294C197.592 50.3522 197.671 50.3936 197.713 50.4538C197.821 50.5974 197.771 50.7514 197.632 50.8454C197.41 51.0052 197.168 51.0348 196.893 50.9761C196.734 50.9399 196.585 50.8757 196.408 50.849C196.142 50.8088 195.872 50.8293 195.626 50.9659C195.511 51.0365 195.385 51.1351 195.312 51.266C195.095 51.598 195.084 51.9659 195.184 52.3237C195.26 52.6118 195.234 52.882 195.087 53.1437C195.041 53.2371 194.976 53.2934 194.883 53.3406C194.777 53.3832 194.693 53.3558 194.599 53.2634Z" fill="url(#paint12_linear_4625_4166)"/>
<path d="M196.873 51.5584C197.169 51.8404 197.116 52.3342 196.829 52.5969C196.524 52.8689 196.049 52.8535 195.791 52.5526C195.528 52.2657 195.506 51.763 195.881 51.4672C196.136 51.256 196.606 51.2389 196.873 51.5584Z" fill="url(#paint13_linear_4625_4166)"/>
<path d="M194.274 52.0737C194.188 51.6739 194.106 51.2601 194.02 50.8603C194.01 50.8418 194.001 50.8232 194.019 50.8138C194.042 50.7903 194.07 50.7529 194.093 50.7295C194.181 50.6497 194.269 50.57 194.371 50.4948C194.436 50.4385 194.515 50.3868 194.589 50.3491C194.867 50.161 195.183 50.0471 195.513 49.9844C195.792 49.936 196.085 49.9387 196.369 49.9694C196.397 49.9785 196.43 49.9736 196.458 49.9827C196.486 49.9919 196.514 50.001 196.542 50.0101C196.682 50.0557 196.836 50.1059 196.976 50.1515C197.158 50.2108 197.34 50.2702 197.522 50.3295C197.606 50.3568 197.671 50.3936 197.723 50.4724C197.779 50.5372 197.794 50.6349 197.748 50.7283C197.739 50.7563 197.72 50.7658 197.711 50.7938C197.688 50.8172 197.665 50.8406 197.646 50.8501C197.609 50.8689 197.591 50.8784 197.567 50.9018C197.433 50.9818 197.27 51.0062 197.112 51.0166C196.958 51.0129 196.818 50.9673 196.678 50.9217C196.58 50.8898 196.496 50.8624 196.394 50.8445C196.38 50.8399 196.38 50.8399 196.366 50.8353L196.352 50.8308C196.175 50.804 196.012 50.7818 195.839 50.7876C195.742 50.8023 195.63 50.8123 195.542 50.8455C195.468 50.8832 195.398 50.907 195.324 50.9447C195.101 51.058 194.883 51.2037 194.717 51.3818C194.647 51.4521 194.578 51.5224 194.537 51.6018C194.468 51.7186 194.398 51.8355 194.339 51.9709C194.311 52.0083 194.302 52.0363 194.274 52.0737Z" fill="url(#paint14_linear_4625_4166)"/>
<path d="M189.895 52.2568C189.927 52.1588 189.982 52.0839 190.065 52.0182C190.241 51.8587 190.417 51.6993 190.593 51.5398C190.963 51.2114 191.333 50.8831 191.704 50.5547C192.009 50.2826 192.314 50.0106 192.62 49.7385C192.703 49.6728 192.778 49.635 192.889 49.625C193.015 49.6195 193.141 49.7536 193.166 49.8699C193.204 49.9907 193.228 50.1069 193.252 50.2231C193.314 50.5532 193.396 50.8739 193.458 51.2041C193.574 51.7992 193.694 52.3804 193.81 52.9755C193.83 53.1057 193.868 53.2265 193.887 53.3568C193.906 53.4404 193.898 53.515 193.875 53.585C193.787 53.7578 193.639 53.7867 193.48 53.704C193.237 53.5939 193.087 53.39 193.015 53.1345C192.958 52.9766 192.952 52.8043 192.895 52.6464C192.796 52.3817 192.65 52.1639 192.402 52.0212C192.272 51.9476 192.132 51.902 191.982 51.8843C191.591 51.8497 191.271 52.0241 190.998 52.2913C190.79 52.5022 190.535 52.6203 190.242 52.6176C190.148 52.6182 190.064 52.5909 189.99 52.5355C189.887 52.471 189.858 52.3688 189.895 52.2568Z" fill="url(#paint15_linear_4625_4166)"/>
<path d="M192.495 53.3986C192.382 53.7951 191.941 54.0076 191.567 53.8704C191.175 53.7426 190.972 53.3203 191.096 52.9424C191.214 52.5785 191.655 52.3195 192.08 52.4889C192.402 52.5938 192.642 52.9973 192.495 53.3986Z" fill="url(#paint16_linear_4625_4166)"/>
<path d="M190.764 51.3943C190.769 51.3803 190.769 51.3803 190.764 51.3943C191.074 51.1083 191.398 50.8268 191.704 50.5547C191.722 50.5453 191.727 50.5313 191.745 50.5218C191.787 50.5355 191.815 50.5447 191.862 50.5443C191.974 50.5808 192.086 50.6173 192.207 50.6724C192.287 50.7138 192.371 50.7411 192.45 50.7825C192.74 50.9389 192.993 51.1606 193.218 51.4198C193.392 51.6468 193.528 51.8926 193.646 52.1479C193.651 52.1805 193.675 52.2036 193.68 52.2362C193.685 52.2687 193.694 52.2873 193.699 52.3198C193.728 52.4686 193.757 52.6174 193.786 52.7662C193.801 52.957 193.849 53.1429 193.878 53.3382C193.897 53.4219 193.902 53.501 193.861 53.5804C193.829 53.6784 193.75 53.7301 193.653 53.7448C193.62 53.7496 193.606 53.7451 193.578 53.7359C193.55 53.7268 193.522 53.7177 193.494 53.7086C193.466 53.6994 193.438 53.6903 193.415 53.6672C193.27 53.589 193.171 53.464 193.091 53.3295C193.025 53.1996 192.982 53.0462 192.953 52.8975C192.939 52.7998 192.919 52.7161 192.891 52.6139C192.895 52.5999 192.881 52.5953 192.886 52.5813L192.89 52.5673C192.82 52.4048 192.744 52.2564 192.664 52.1219C192.603 52.0245 192.537 51.9412 192.467 51.8718C192.406 51.821 192.34 51.7842 192.261 51.7428C192.055 51.6138 191.831 51.4943 191.593 51.4167C191.495 51.3848 191.407 51.3714 191.313 51.3721C191.174 51.373 191.034 51.3739 190.895 51.3749C190.862 51.3797 190.815 51.38 190.764 51.3943Z" fill="url(#paint17_linear_4625_4166)"/>
<path d="M194.344 56.4393C194.657 56.5415 194.97 56.6436 195.284 56.7458C195.38 56.7772 195.372 56.8013 195.373 56.8815C195.342 56.978 195.31 57.0744 195.279 57.1709C195.255 57.2432 195.223 57.2594 195.151 57.2359C194.958 57.173 194.765 57.1101 194.548 57.0394C194.162 56.9137 193.776 56.7879 193.415 56.6701C193.342 56.6465 193.246 56.6151 193.166 56.6156C192.998 56.6408 192.886 56.7378 192.847 56.8583C192.728 57.1398 192.634 57.4291 192.564 57.7263C192.525 57.9271 192.598 58.0308 192.791 58.0937C193.217 58.2593 193.683 58.3845 194.117 58.5259C194.189 58.5495 194.253 58.517 194.301 58.4525C194.364 58.3398 194.379 58.2114 194.419 58.0908C194.434 58.0426 194.418 58.0106 194.37 57.9949C194.105 57.9085 193.864 57.8299 193.598 57.7435C193.526 57.7199 193.478 57.7042 193.406 57.6806C193.309 57.6492 193.317 57.625 193.341 57.5527C193.364 57.4804 193.388 57.408 193.411 57.3357C193.435 57.2634 193.467 57.2471 193.539 57.2707C193.684 57.3179 193.804 57.3571 193.949 57.4043C194.287 57.5143 194.6 57.6165 194.938 57.7265C195.058 57.7658 195.074 57.7978 195.043 57.8942C194.949 58.1835 194.854 58.4729 194.752 58.7863C194.705 58.931 194.61 59.0599 194.466 59.093C194.377 59.1176 194.297 59.1181 194.225 59.0946C193.67 58.9138 193.116 58.7331 192.561 58.5523C192.392 58.4973 192.239 58.3941 192.118 58.2746C191.965 58.0912 191.947 57.8988 191.986 57.6981C192.033 57.4732 192.128 57.2641 192.174 57.0392C192.229 56.8705 192.26 56.6938 192.339 56.5329C192.498 56.2111 192.761 56.0569 193.122 56.0946C193.251 56.1098 193.371 56.1491 193.492 56.1884C193.813 56.2664 194.078 56.3529 194.344 56.4393Z" fill="#F68214"/>
<path d="M180.441 53.2683C180.558 52.9067 180.684 52.5209 180.802 52.1592C180.833 52.0628 180.858 52.0706 180.93 52.0942C181.026 52.1257 181.147 52.1649 181.243 52.1964C181.34 52.2278 181.332 52.2519 181.308 52.3243C181.222 52.5895 181.135 52.8547 181.041 53.144C181.025 53.1923 181.018 53.2164 181.09 53.2399C181.596 53.405 182.078 53.5621 182.585 53.7272C182.633 53.7429 182.665 53.7266 182.681 53.6784C182.767 53.4132 182.854 53.148 182.94 52.8827C182.979 52.7622 182.979 52.7622 183.1 52.8015C183.196 52.8329 183.317 52.8722 183.413 52.9036C183.486 52.9272 183.502 52.9592 183.478 53.0315C183.423 53.2003 183.376 53.345 183.321 53.5137C183.133 54.0924 182.944 54.6711 182.748 55.2738C182.716 55.3703 182.708 55.3944 182.588 55.3551C182.491 55.3237 182.371 55.2844 182.274 55.2529C182.178 55.2215 182.178 55.2215 182.209 55.1251C182.296 54.8598 182.382 54.5946 182.461 54.3535C182.5 54.233 182.5 54.233 182.379 54.1937C181.897 54.0365 181.415 53.8793 180.933 53.7222C180.885 53.7064 180.853 53.7227 180.837 53.7709C180.743 54.0603 180.656 54.3255 180.562 54.6148C180.538 54.6871 180.53 54.7113 180.434 54.6798C180.313 54.6405 180.217 54.6091 180.096 54.5698C180.024 54.5462 180.008 54.5143 180.031 54.4419C180.197 54.0158 180.323 53.63 180.441 53.2683Z" fill="#F68214"/>
<path d="M187.902 56.1536C187.613 56.0593 187.323 55.965 187.034 55.8707C186.986 55.855 186.954 55.8712 186.938 55.9194C186.922 55.9677 186.914 55.9918 186.899 56.04C186.876 56.1925 186.932 56.2643 187.069 56.3356C187.141 56.3591 187.214 56.3827 187.262 56.3984C187.72 56.5477 188.154 56.6892 188.612 56.8385C188.709 56.8699 188.709 56.8699 188.677 56.9664C188.654 57.0387 188.63 57.1111 188.606 57.1834C188.591 57.2316 188.559 57.2479 188.511 57.2321C187.956 57.0514 187.401 56.8707 186.823 56.6821C186.726 56.6506 186.638 56.5951 186.549 56.5395C186.356 56.3965 186.314 56.1963 186.361 55.9714C186.431 55.6742 186.518 55.409 186.636 55.1275C186.747 54.8702 186.978 54.7323 187.283 54.7784C187.412 54.7935 187.508 54.825 187.629 54.8643C187.99 54.9821 188.352 55.1 188.738 55.2257C188.81 55.2493 188.907 55.2808 188.971 55.3284C189.132 55.4076 189.213 55.5674 189.15 55.7603C189.112 55.961 189.032 56.122 188.97 56.3149C188.938 56.4113 188.866 56.4679 188.746 56.4286C188.481 56.3422 188.191 56.2479 187.902 56.1536ZM187.811 55.7773C188.028 55.848 188.245 55.9187 188.462 55.9894C188.559 56.0209 188.583 56.0287 188.614 55.9323C188.622 55.9082 188.638 55.86 188.646 55.8358C188.676 55.6592 188.644 55.5953 188.499 55.5481C188.186 55.446 187.848 55.3359 187.535 55.2338C187.27 55.1473 187.174 55.1961 187.087 55.4613C187.072 55.5095 187.088 55.5415 187.136 55.5572C187.353 55.628 187.594 55.7065 187.811 55.7773Z" fill="#171717"/>
<path d="M190.022 57.7514C189.708 57.6492 189.395 57.547 189.106 57.4527C189.033 57.4292 189.009 57.4213 189.041 57.3249C189.064 57.2525 189.088 57.1802 189.111 57.1079C189.143 57.0114 189.143 57.0114 189.239 57.0429C189.745 57.2079 190.276 57.3808 190.782 57.5458C191.023 57.6244 191.055 57.6081 191.134 57.367C191.157 57.2947 191.125 57.2307 191.053 57.2072C191.004 57.1915 190.956 57.1757 190.932 57.1679C190.522 57.0343 190.112 56.9007 189.727 56.775C189.461 56.6885 189.332 56.513 189.41 56.1916C189.441 56.0952 189.481 55.9746 189.512 55.8782C189.599 55.6932 189.783 55.6198 189.984 55.6585C190.056 55.6821 190.136 55.6816 190.209 55.7051C190.763 55.8859 191.318 56.0666 191.848 56.2395C191.92 56.2631 191.945 56.2709 191.913 56.3674C191.89 56.4397 191.866 56.5121 191.842 56.5844C191.819 56.6567 191.787 56.673 191.715 56.6494C191.208 56.4844 190.678 56.3115 190.171 56.1465C190.027 56.0993 189.963 56.1318 189.916 56.2765C189.884 56.3729 189.909 56.461 190.005 56.4924C190.391 56.6181 190.801 56.7517 191.187 56.8775C191.259 56.901 191.356 56.9325 191.42 56.9802C191.621 57.0991 191.686 57.227 191.64 57.4518C191.617 57.6044 191.569 57.749 191.498 57.8858C191.395 58.0389 191.211 58.1123 190.97 58.0337C190.656 57.9316 190.343 57.8294 190.022 57.7514C190.03 57.7273 190.03 57.7273 190.022 57.7514Z" fill="#171717"/>
<path d="M196.322 59.7783C196.105 59.7076 195.888 59.6368 195.671 59.5661C195.575 59.5347 195.486 59.4791 195.398 59.4236C195.204 59.2805 195.155 59.1044 195.202 58.8796C195.209 58.7753 195.24 58.6788 195.272 58.5824C195.382 58.2448 195.492 57.9073 195.61 57.5456C195.633 57.4733 195.665 57.457 195.738 57.4806C195.834 57.512 195.93 57.5435 196.051 57.5827C196.123 57.6063 196.14 57.6383 196.116 57.7106C196.006 58.0482 195.888 58.4098 195.778 58.7474C195.762 58.7956 195.747 58.8438 195.763 58.8758C195.716 59.0205 195.772 59.0923 195.861 59.1478C195.909 59.1635 195.974 59.2112 196.022 59.2269C196.311 59.3212 196.601 59.4155 196.914 59.5177C196.962 59.5334 197.035 59.557 197.091 59.5486C197.243 59.5716 197.347 59.4988 197.41 59.3059C197.52 58.9683 197.63 58.6308 197.748 58.2691C197.787 58.1486 197.787 58.1486 197.908 58.1878C198.004 58.2193 198.1 58.2507 198.197 58.2821C198.245 58.2979 198.261 58.3298 198.27 58.3859C198.262 58.41 198.262 58.41 198.254 58.4341C198.136 58.7958 198.026 59.1334 197.908 59.495C197.877 59.5915 197.845 59.6879 197.79 59.7765C197.639 59.994 197.455 60.0674 197.198 60.0371C197.07 60.0219 196.949 59.9826 196.805 59.9354C196.652 59.9124 196.483 59.8574 196.322 59.7783Z" fill="#171717"/>
<path d="M200.014 60.1546C199.943 60.3716 199.865 60.6127 199.794 60.8297C199.762 60.9261 199.762 60.9261 199.666 60.8947C199.57 60.8633 199.473 60.8318 199.353 60.7925C199.28 60.769 199.264 60.737 199.288 60.6647C199.437 60.2065 199.578 59.7725 199.728 59.3144C199.751 59.2421 199.727 59.2342 199.679 59.2185C199.582 59.1871 199.51 59.1635 199.414 59.1321C199.39 59.1242 199.373 59.0923 199.389 59.044C199.42 58.9476 199.444 58.8753 199.475 58.7788C199.491 58.7306 199.523 58.7143 199.571 58.7301C199.668 58.7615 199.764 58.7929 199.837 58.8165C199.885 58.8322 199.893 58.8081 199.901 58.784C199.94 58.6634 199.979 58.5429 200.042 58.4302C200.154 58.253 200.338 58.1796 200.538 58.2184C200.771 58.2409 201.004 58.3436 201.245 58.4221C201.294 58.4379 201.31 58.4698 201.294 58.518C201.263 58.6145 201.239 58.6868 201.208 58.7833C201.192 58.8315 201.16 58.8477 201.112 58.832C200.991 58.7927 200.871 58.7534 200.75 58.7142C200.557 58.6513 200.414 58.7645 200.375 58.9653C200.367 58.9894 200.391 58.9972 200.415 59.0051C200.584 59.0601 200.777 59.123 200.946 59.178C201.042 59.2094 201.042 59.2094 201.011 59.3059C200.987 59.3782 200.956 59.4746 200.932 59.547C200.94 59.603 200.909 59.6193 200.86 59.6036C200.692 59.5486 200.499 59.4857 200.33 59.4307C200.282 59.415 200.25 59.4312 200.234 59.4795C200.163 59.6965 200.093 59.9135 200.014 60.1546Z" fill="#171717"/>
<path d="M184.366 55.1346C184.429 54.9417 184.484 54.773 184.547 54.5801C184.579 54.4836 184.602 54.4113 184.65 54.3468C184.801 54.1293 185.001 54.0879 185.234 54.1104C185.362 54.1255 185.483 54.1648 185.603 54.2041C185.917 54.3063 186.23 54.4084 186.543 54.5106C186.616 54.5342 186.632 54.5661 186.609 54.6385C186.585 54.7108 186.553 54.8072 186.53 54.8796C186.506 54.9519 186.474 54.9682 186.402 54.9446C186.089 54.8424 185.799 54.7481 185.486 54.646C185.462 54.6381 185.438 54.6303 185.389 54.6145C185.196 54.5517 185.101 54.6004 185.03 54.8174C184.912 55.1791 184.794 55.5408 184.684 55.8783C184.653 55.9748 184.645 55.9989 184.524 55.9596C184.428 55.9282 184.331 55.8967 184.235 55.8653C184.163 55.8417 184.146 55.8097 184.17 55.7374C184.241 55.5204 184.303 55.3275 184.366 55.1346Z" fill="#171717"/>
<path d="M199.005 59.239C198.872 59.6489 198.746 60.0347 198.612 60.4446C198.581 60.541 198.581 60.541 198.485 60.5096C198.388 60.4781 198.292 60.4467 198.195 60.4153C198.099 60.3838 198.099 60.3838 198.13 60.2874C198.24 59.9498 198.342 59.6364 198.452 59.2988C198.602 58.8407 198.759 58.3585 198.908 57.9004C198.94 57.804 198.948 57.7798 199.068 57.8191C199.165 57.8506 199.261 57.882 199.333 57.9056C199.406 57.9292 199.422 57.9611 199.398 58.0335C199.273 58.4192 199.139 58.8291 199.005 59.239Z" fill="#171717"/>
<path d="M184.019 54.7281C183.925 55.0174 183.83 55.3067 183.744 55.5719C183.712 55.6684 183.712 55.6684 183.616 55.637C183.52 55.6055 183.423 55.5741 183.303 55.5348C183.247 55.5432 183.23 55.5112 183.254 55.4389C183.442 54.8602 183.631 54.2816 183.82 53.7029C183.843 53.6306 183.875 53.6143 183.948 53.6379C184.044 53.6693 184.14 53.7007 184.237 53.7322C184.333 53.7636 184.333 53.7636 184.302 53.8601C184.208 54.1494 184.113 54.4387 184.019 54.7281Z" fill="#171717"/>
<path d="M184.482 53.3055C184.467 53.3537 184.451 53.4019 184.427 53.4743C184.412 53.5225 184.38 53.5387 184.332 53.523C184.211 53.4837 184.115 53.4523 183.994 53.413C183.946 53.3973 183.905 53.3575 183.921 53.3092C183.953 53.2128 183.992 53.0922 184.023 52.9958C184.039 52.9476 184.071 52.9313 184.119 52.947C184.24 52.9863 184.336 53.0178 184.457 53.0571C184.505 53.0728 184.521 53.1047 184.506 53.153C184.522 53.1849 184.498 53.2573 184.482 53.3055Z" fill="#171717"/>
<defs>
<linearGradient id="paint0_linear_4625_4166" x1="195.429" y1="45.9029" x2="196.291" y2="50.0043" gradientUnits="userSpaceOnUse">
<stop stop-color="#ABABAB"/>
<stop offset="0.1625" stop-color="#B0B0B0"/>
<stop offset="0.3592" stop-color="#BFBEBE"/>
<stop offset="0.4826" stop-color="#CCCACA"/>
<stop offset="0.6583" stop-color="#C6C4C4"/>
<stop offset="0.8921" stop-color="#B5B5B5"/>
<stop offset="1" stop-color="#ABABAB"/>
</linearGradient>
<linearGradient id="paint1_linear_4625_4166" x1="197.523" y1="46.8476" x2="197.827" y2="48.2961" gradientUnits="userSpaceOnUse">
<stop stop-color="#BFBFBF"/>
<stop offset="0.4963" stop-color="#BABABA"/>
<stop offset="1" stop-color="#AEAEAE"/>
</linearGradient>
<linearGradient id="paint2_linear_4625_4166" x1="196.024" y1="45.7776" x2="196.771" y2="49.3334" gradientUnits="userSpaceOnUse">
<stop stop-color="#C0C0C0"/>
<stop offset="1" stop-color="#ABABAB"/>
</linearGradient>
<linearGradient id="paint3_linear_4625_4166" x1="189.608" y1="47.5491" x2="193.076" y2="45.1955" gradientUnits="userSpaceOnUse">
<stop stop-color="#EF7225"/>
<stop offset="0.1752" stop-color="#F17720"/>
<stop offset="0.3874" stop-color="#F98511"/>
<stop offset="0.4826" stop-color="#FD8E08"/>
<stop offset="0.6617" stop-color="#FB880D"/>
<stop offset="0.9002" stop-color="#F5771C"/>
<stop offset="1" stop-color="#F26E24"/>
</linearGradient>
<linearGradient id="paint4_linear_4625_4166" x1="189.598" y1="45.6181" x2="190.691" y2="44.62" gradientUnits="userSpaceOnUse">
<stop stop-color="#FD8F06"/>
<stop offset="0.3367" stop-color="#FB8A0B"/>
<stop offset="0.7443" stop-color="#F67B19"/>
<stop offset="1" stop-color="#F26E26"/>
</linearGradient>
<linearGradient id="paint5_linear_4625_4166" x1="189.438" y1="47.4529" x2="192.121" y2="45.0026" gradientUnits="userSpaceOnUse">
<stop stop-color="#FF9700"/>
<stop offset="1" stop-color="#F26E24"/>
</linearGradient>
<linearGradient id="paint6_linear_4625_4166" x1="192.115" y1="45.1308" x2="196.1" y2="46.4295" gradientUnits="userSpaceOnUse">
<stop stop-color="#0A0A0A"/>
<stop offset="0.1911" stop-color="#0F0F0F"/>
<stop offset="0.4225" stop-color="#1E1E1E"/>
<stop offset="0.4826" stop-color="#232323"/>
<stop offset="0.6919" stop-color="#1D1D1D"/>
<stop offset="0.9706" stop-color="#0C0C0C"/>
<stop offset="1" stop-color="#0A0A0A"/>
</linearGradient>
<linearGradient id="paint7_linear_4625_4166" x1="193.979" y1="43.7878" x2="195.386" y2="44.2465" gradientUnits="userSpaceOnUse">
<stop stop-color="#0C0C0C"/>
<stop offset="0.2966" stop-color="#111111"/>
<stop offset="0.6555" stop-color="#202020"/>
<stop offset="1" stop-color="#353535"/>
</linearGradient>
<linearGradient id="paint8_linear_4625_4166" x1="192.304" y1="44.5532" x2="195.759" y2="45.6792" gradientUnits="userSpaceOnUse">
<stop stop-color="#3B3B3B"/>
<stop offset="1" stop-color="#0A0A0A"/>
</linearGradient>
<linearGradient id="paint9_linear_4625_4166" x1="190.572" y1="51.1624" x2="189" y2="47.3458" gradientUnits="userSpaceOnUse">
<stop stop-color="#ABABAB"/>
<stop offset="0.1625" stop-color="#B0B0B0"/>
<stop offset="0.3592" stop-color="#BFBEBE"/>
<stop offset="0.4826" stop-color="#CCCACA"/>
<stop offset="0.6583" stop-color="#C6C4C4"/>
<stop offset="0.8921" stop-color="#B5B5B5"/>
<stop offset="1" stop-color="#ABABAB"/>
</linearGradient>
<linearGradient id="paint10_linear_4625_4166" x1="188.83" y1="50.3988" x2="188.266" y2="49.0287" gradientUnits="userSpaceOnUse">
<stop stop-color="#BFBFBF"/>
<stop offset="0.4963" stop-color="#BABABA"/>
<stop offset="1" stop-color="#AEAEAE"/>
</linearGradient>
<linearGradient id="paint11_linear_4625_4166" x1="190.213" y1="51.3106" x2="188.927" y2="48.1895" gradientUnits="userSpaceOnUse">
<stop stop-color="#C0C0C0"/>
<stop offset="1" stop-color="#ABABAB"/>
</linearGradient>
<linearGradient id="paint12_linear_4625_4166" x1="196.908" y1="49.0613" x2="193.2" y2="50.6354" gradientUnits="userSpaceOnUse">
<stop stop-color="#EF7225"/>
<stop offset="0.1752" stop-color="#F17720"/>
<stop offset="0.3874" stop-color="#F98511"/>
<stop offset="0.4826" stop-color="#FD8E08"/>
<stop offset="0.6617" stop-color="#FB880D"/>
<stop offset="0.9002" stop-color="#F5771C"/>
<stop offset="1" stop-color="#F26E24"/>
</linearGradient>
<linearGradient id="paint13_linear_4625_4166" x1="196.874" y1="51.5121" x2="195.616" y2="52.296" gradientUnits="userSpaceOnUse">
<stop stop-color="#FD8F06"/>
<stop offset="0.3367" stop-color="#FB8A0B"/>
<stop offset="0.7443" stop-color="#F67B19"/>
<stop offset="1" stop-color="#F26E26"/>
</linearGradient>
<linearGradient id="paint14_linear_4625_4166" x1="197.077" y1="49.4289" x2="193.872" y2="51.426" gradientUnits="userSpaceOnUse">
<stop stop-color="#FF9700"/>
<stop offset="1" stop-color="#F26E24"/>
</linearGradient>
<linearGradient id="paint15_linear_4625_4166" x1="194.41" y1="52.0628" x2="190.435" y2="50.7671" gradientUnits="userSpaceOnUse">
<stop stop-color="#0A0A0A"/>
<stop offset="0.1911" stop-color="#0F0F0F"/>
<stop offset="0.4225" stop-color="#1E1E1E"/>
<stop offset="0.4826" stop-color="#232323"/>
<stop offset="0.6919" stop-color="#1D1D1D"/>
<stop offset="0.9706" stop-color="#0C0C0C"/>
<stop offset="1" stop-color="#0A0A0A"/>
</linearGradient>
<linearGradient id="paint16_linear_4625_4166" x1="192.549" y1="53.4068" x2="191.146" y2="52.9493" gradientUnits="userSpaceOnUse">
<stop stop-color="#0C0C0C"/>
<stop offset="0.2966" stop-color="#111111"/>
<stop offset="0.6555" stop-color="#202020"/>
<stop offset="1" stop-color="#353535"/>
</linearGradient>
<linearGradient id="paint17_linear_4625_4166" x1="194.222" y1="52.6403" x2="190.775" y2="51.517" gradientUnits="userSpaceOnUse">
<stop stop-color="#3B3B3B"/>
<stop offset="1" stop-color="#0A0A0A"/>
</linearGradient>
</defs>
</svg>
