<svg width="84" height="103" viewBox="0 0 84 103" fill="none" xmlns="http://www.w3.org/2000/svg">
<path d="M1.75449 13.389C0.403587 11.6539 -0.205178 9.45431 0.0613447 7.27147C0.192704 6.19349 0.536718 5.15229 1.07345 4.20824C1.61018 3.26419 2.32895 2.43605 3.1881 1.77184C4.04452 1.09755 5.02583 0.599254 6.07555 0.305629C7.12527 0.0120032 8.2227 -0.0711573 9.30468 0.0609319C10.3867 0.193021 11.4318 0.537753 12.3801 1.07529C13.3284 1.61283 14.161 2.33257 14.83 3.1931L38.3116 33.2619C38.4881 33.5025 38.6823 33.7297 38.8924 33.9416C36.0201 34.4133 33.3122 35.5985 31.0169 37.3885C28.7216 39.1786 26.9124 41.5161 25.7551 44.187C25.6068 43.9522 25.4462 43.705 25.2484 43.4454L1.75449 13.389Z" fill="#282828"/>
<path d="M82.173 89.4078C82.86 90.2622 83.3704 91.2446 83.6747 92.2979C83.979 93.3512 84.0711 94.4545 83.9456 95.5437C83.8201 96.6329 83.4796 97.6863 82.9438 98.6428C82.4079 99.5993 81.6875 100.44 80.8242 101.116C79.961 101.792 78.9721 102.289 77.9149 102.58C76.8578 102.871 75.7534 102.949 74.666 102.809C73.5785 102.67 72.5296 102.315 71.58 101.767C70.6305 101.219 69.7993 100.488 69.1346 99.6161L45.653 69.5597C45.2688 69.0579 44.82 68.6092 44.3183 68.2249C47.261 67.7739 50.0385 66.5744 52.3844 64.7414C54.7302 62.9084 56.5658 60.5034 57.7151 57.7571C57.9807 58.3152 58.3082 58.8417 58.6915 59.3266L82.173 89.4078Z" fill="#282828"/>
<path d="M39.4732 68.3483C39.0386 68.713 38.6487 69.1278 38.3115 69.5841L14.83 99.6158C13.4779 101.35 11.4924 102.476 9.31028 102.746C7.12816 103.016 4.92815 102.408 3.19422 101.056C1.4603 99.7036 0.334502 97.7181 0.0644891 95.5359C-0.205524 93.3538 0.402367 91.1538 1.75443 89.4199L25.2484 59.3264C25.4726 59.0343 25.679 58.7289 25.8663 58.4119C27.1051 61.0795 29.0035 63.3873 31.3822 65.1172C33.7609 66.8472 36.5413 67.9422 39.4609 68.2988" fill="#282828"/>
<path d="M44.8867 34.0896C45.1603 33.8347 45.4124 33.5578 45.6406 33.2615L69.1221 3.19277C70.4742 1.46049 72.459 0.336259 74.64 0.0674044C76.821 -0.20145 79.0194 0.407092 80.7517 1.75916C82.484 3.11122 83.6082 5.09606 83.8771 7.27702C84.1459 9.45799 83.5374 11.6564 82.1853 13.3887L58.7037 43.4451C58.3636 43.8833 58.0696 44.3555 57.8263 44.854C56.7601 42.1114 55.0145 39.6847 52.7532 37.8018C50.492 35.9189 47.7894 34.6415 44.899 34.0896" fill="#282828"/>
<path d="M52.8947 51.4037C52.8947 53.5666 52.2527 55.6808 51.05 57.4785C49.8473 59.2762 48.1381 60.6764 46.139 61.5019C44.1398 62.3273 41.9406 62.5407 39.82 62.1152C37.6994 61.6896 35.7528 60.6442 34.2269 59.1113C32.701 57.5784 31.6644 55.6272 31.2484 53.5047C30.8325 51.3821 31.0559 49.1839 31.8904 47.1885C32.7249 45.1931 34.1329 43.4903 35.936 42.2958C37.7391 41.1013 39.8562 40.4688 42.019 40.4786C43.4542 40.477 44.8756 40.7585 46.2018 41.3069C47.5281 41.8554 48.7331 42.6601 49.7479 43.6749C50.7627 44.6897 51.5674 45.8947 52.1158 47.221C52.6643 48.5472 52.9458 49.9686 52.9441 51.4037" fill="#1D5EDD"/>
</svg>
