<?xml version="1.0" encoding="UTF-8"?>
<svg version="1.1" viewBox="0 0 2048 1536" width="1280" height="1280" xmlns="http://www.w3.org/2000/svg">
<path transform="translate(0)" d="m0 0h2048v1536h-2048z" fill="#FCFCFC"/>
<path transform="translate(1296,203)" d="m0 0h2v257l-1 37v76l-20 13-16 9-34 20-15 9-25 14-22 12-26 15-11 7-11 6-42 24-17 10 2 6 4 2 6 12v11l6 10v2l2 1v3l18-10 5-1v2l-11 6-9 6-5 6-10 3h-8l-8-2h-13l-12-4h-7l-18-4-3-2-9-2-4-2-16 9-22 13-26 15-13 8-11 6-27 15-17 10-25 14-28 16-25 15-52 30-6 2-4 4-14 8-2-1-1-113-1-25-5-4v8l-1 3h-2l3 6 3-3 2 5-4-1-2 5-3 4h-5l-2-9 1-4 2-3-5-7-1-15-1-180v-32l-27-1-16-1-2-1-35-2-11-1-9-15-1-3-7-2-100-16-8-1v-3l23-13 24-14 21-12 22-13 5 1 36 16 7 3v-47l24-14 21-12 24-14 18-10 4-3 4 1 9 20 12 26v2h2l17 35 11 23 5 11 14-8 25-14 13-8 26-15 16-9 19-11 26-15 24-14 23-13 25-14 24-14 25-14 15-9 27-15 8-2 2 2-6 6v4l-5 4v3l-5 3-10 8-3 2 1 4 16-8 17-10 19-11 23-13 17-10 28-16 27-16 28-16 25-14 42-24 22-13z" fill="#C1D9FB"/>
<path transform="translate(1634,661)" d="m0 0h22l12 5 7 6 3 6v9l-8 14-7 9-3 6h2v2l-10 7-21 9-16 8-11 5 3 3 10 5-1 3-16 9-19 12-23 13-14 8-22 13-18 10-24 14-42 24 2 2 5 1v2l4 1 3 2 9-2-2 7-6 2-6 5-11 6-25 14-20 12-23 13-24 14-52 30-29 17-19 11-17 10-26 15-71 42-45 27-8 3-24 14-26 15-5 2v2l-4 3-7 3-30 16-5 2-1 3-24 13-28 17-26 14-6 2-6-4-2-5-5-2-7-6-3-1-2 3-5-1-12-11-6-5-5-5-7-5v-2l-4-2-15-12-5-5-5-4-7-4-5-8-11-7-1-4-4-2-12-9-7-3-5-5-11-9v-2l-5-2-12-9-6-3-6-5-3-5-10-5-5-4-5-3-7-4v-2l-3-1-3-3-6-5-1-7-7-7-3-5-7 1-29 12-20 8-7 1-6-4-5-8-2-5 1-7 4-4 3-5 7-6 7-3v-5l-4-5-2-6v-12l3-6 2-2-1-7-1-4v-11l3-8 7-6 15-6h17l12 3 10 6 6 8 5 12 3 5 2 6 15-9 5 1 21 12 22 13 24 14 24 13 15 9 17 10 3 3 7 4 9 3-4-5-12-9-7-7-8-7-6-5-2-6 2-1-7-6-2-3-3 4-4-2-3-8-5-6-1-4-2-1v-6l4-14h2l2-4 3 2 5-4 8-1 2 2 5 1 13 8 12 6 10-5 20-12 6-3 3 1-5 4-1 5-3 1v-3l-5 2-13 8-6 3v1l6 2h3l-2 3 6 5 15 9 7 4 7-1 18-10 25-15 14-8h2v-2l-6-3v-4l-6-2v-2h-2v-2l-3-1v-2h-2l-1-7 6 2 15 9 9 5 6-2 26-15 9-5-16-10 2-1 15 8 4-1 2-1-17-9-6-5-2-4 5 2 13 8 9 5 6-1 29-17 4-2 5-1 5-3-1-4-10-6-12-8v-2l-3-1 2-1 24 14 3 2 5-1 23-12 11-7 6-2-4 4-14 9-5 3h-2l-2 4-6 4-7 4-1 6 2 1-5 2v-2l-7 1-7 3-14 7-4 3-16 7-8 3-4 3 5 2v-2l-2-1 17-5 6 1 6-2v2h4l-1-5 5 2 25 15 5-1 16-9 17-10 3-3-8-5 2-1 4 1 1 2 6 1v-2h-2v-3l-6-2-9-5-5-2-2-1-1-4h2l-1-3 6 2 23 13 1 1 7-1 25-14 11-6-4-3-13-8-10-4-3-4 1-2 6 1 6-2-1-3 5 2 16 10 7 4 6-1 29-17 5-3-3-4-3-1v-2l-5-2-4-4 3-3 6 2v2l4 1v2l-2 1 3 1v2h4v-3l4 2v-2l-5-2-18-14 3-1 20 12 6 4 9-3 15-9 16-10 2-2-1-2 5 1-4 6 2 3-5 4-13 6-16 8-5 2h-4l2 4 5-1 14 8 17 10 6-1 27-15 10-5-1-3-11-6-13-9-1-3 2-4 12 7 15 9 7 2 28-16 8-5-11-8-15-10 2-2v2h3l1-4-4-4 4 1 24 15 5 3 6-1 14-8 21-13 4-1v-3l-5-2-3-3-18-11-1-2 6 2 25 14 6-1 24-13 21-12 22-13 15-9-2-5-5-5v-2l-7-2-6-4-1-4 5-1-3-3-4-3 1-6 5-1v2l7 1h3l-4-1-4-5v-2l3-1 8 6 6 2 12 5 13 7 3 3 9 4 17 9 10 6 11 7 9 1 3-9 18-13 6-1v-9l4-16 3-8 8-7 10-4z" fill="#C1D9FB"/>
<path transform="translate(1297,460)" d="m0 0h1l1 114 16 8 22 12 17 10 21 12 18 10 16 10 27 15 28 16 17 10 22 13-2 1-11-4-6-3-5-4h-3l4 5v2l5 1-3 2-8-3v-2l-5 1v6l6 4v2l-5 1 1 4 5 2 8 4 2 5 4 2 2 5-13 8-25 15-45 25-6 1-20-11-8-4 16 10 6 5 2 1v3l-14 8-18 11-9 5-6-1-22-14-7-4 3 4-2 3-4-1 5 4 21 14-4 4-26 15-7 4-9-3-18-11-7-4-1 6 5 2 13 9 7 4v4l-16 8-21 12-6 1-19-11-12-7-5 1-2-5 9-3 17-9 13-6 3-3-2-3h2l2-5-2 1-7 6-24 14-10 5-5-2-23-14-1 1 12 9 9 6v2h-3l-1 2-5-1-4-4h4l-1-2-3-1v-2l-8-1v3l8 5v2l4 1 3 4-8 5-17 10-10 6-6 1-14-8-12-8-1 3-7 2-5-2 2 6 10 3 14 9 4 2-3 3-22 12-14 8h-5l-22-13-7-3-1 6 7 2 15 8v3l3-1 1 3-5 1-8-4 8 5-5 4-35 20-5-1-18-11-10-6 1 5-5-1-6 2-5-1-15 5v2l-5-1v-3l4-2 15-6 16-8 11-6 9-4h7v2l2-1-1-5 1-3 7-4 7-5 3-3 15-9 7-5-12 6-13 8-16 8-4-1-16-9-10-6 1 3 4 2 13 8 7 4-1 5-7 4-6 1-28 17-4 2-6-1-17-10-7-4 4 5 21 12-4 3-5-1-10-5 12 7-3 3-23 13-14 8-6-2-24-14-2-1 1 7h2l3 3v2h2l1 2 2-1v2l4 1-1 4 5 1 1 4-25 14-28 17-8 4-7-1-17-10-8-6-2-3v-1l-5-2h-3l4-4 11-6 9-6 3 1v2h2v-5l5-4-6 2-14 8-15 9-4 1-18-10-8-5h-4l-1-2-8 1-5 4-3-2-4 4-2 12-2 7 3 1 2 6 5 6 2 6h4l2-3 5 6 5 5-2 1 3 6 10 9 8 7 11 9 6 5 1 3-10-3-10-6-3-3-21-12-41-23-17-10-39-23-2-8-3-6-1-14 6-2 12-7 4-4 7-3 27-15 27-16 29-17 21-12 25-14 24-14 25-14 21-12 53-31 7-4 4 2 11 3 5 2 14 3h7l13 4h12l8 2h8l10-3 7-8 16-9h2v-2l-16 8-5 3h-2l-6-11-3-6v-10l-5-10v-2l-5-2-2-6 13-8 26-15 18-10 11-7 11-6 19-11 16-9 22-12 70-41 19-11 14-9v-79z" fill="#EFF6FC"/>
<path transform="translate(1296,203)" d="m0 0h2v257l-1 37v76l-20 13-16 9-34 20-15 9-25 14-22 12-26 15-11 7-11 6-42 24-17 10 2 6 4 2 6 12v11l6 10v2l2 1v3l18-10 5-1v2l-11 6-9 6-5 6-10 3h-8l-8-2h-13l-12-4h-7l-18-4-3-2-9-2-4-2-16 9-22 13-26 15-13 8-11 6-27 15-17 10-25 14-28 16-25 15-52 30-6 2-4 4-14 8-2-1-1-113-1-25-5-4v8l-1 3h-2l3 6 3-3 2 5-4-1-2 5-3 4h-5l-2-9 1-4 2-3-5-7-1-15-1-180v-32l-27-1-16-1-2-1-35-2-11-1-9-15-1-3-7-2-100-16-8-1v-3l23-13 24-14 21-12 22-13 5 1 36 16 7 3v-47l24-14 21-12 24-14 18-10 4-3 4 1 9 20 12 26v2h2l17 35 11 23 5 11 14-8 25-14 13-8 26-15 16-9 19-11 26-15 24-14 23-13 25-14 24-14 25-14 15-9 27-15 8-2 2 2-6 6v4l-5 4v3l-5 3-10 8-3 2 1 4 16-8 17-10 19-11 23-13 17-10 28-16 27-16 28-16 25-14 42-24 22-13zm-13 45-24 14-23 13-27 16-28 16-26 15-17 10-5 3-18 10-5 4-14 7-17 10-28 16-29 17-10 6-11 6-21 12-24 14-78 45-21 12-26 15-24 14-28 16-6 4h-2l-4-10-4-9-3-6-3-3-4 1 3 9 10 21 6 11h-8l-17-3h-8l3 2 4 2v2l-12 5-20 12-4 2-1 4v134h3l3-3 3-5 13-2 5-5-8-2 5-3 10-3h8l8-4h22l12-1 7 2-5 3-11 3 3 2 11-1 4 2 1 2 4-1 6 3 3 5 2 16 1 108 5-2 18-10 48-28 52-30 24-14 26-15 24-14 18-10 23-13 29-17 26-15 24-14 16-9 22-13 21-12 23-13 22-12 34-20 12-6 1-21v-170l-1-127z" fill="#C1D9FB"/>
<path transform="translate(1283,248)" d="m0 0h3l1 134v163l-1 21-14 7-15 9-28 16-24 13-24 14-21 12-15 9-25 14-22 13-45 26-32 18-26 15-22 13-28 16-24 14-26 15-48 28-21 12-5 3h-2l-1-108-2-16-4-6-6-2-4 1v-2l-4-2-12 1-2-2 13-4 3-2-9-2-16 1h-16l-8 4h-10l-12 5-1 1 8 2-5 5-13 2-4 7-4 2-1-4v-131l1-4 9-5 17-10 10-4-1-3-6-2v-1h8l17 3h8l-18-36-1-6h4l4 5 5 12 4 7 1 4 5-2 78-45 24-14 28-16 52-30 24-14 26-15 23-13 22-13 26-15 21-12 11-6 13-8 13-7 9-6 25-14 24-14 26-15 24-14 23-13zm-25 29-15 2-16 8-17 10-18 10-22 13-28 14-10 7-21 12-5 4-11 6-20 10-9 6-9 5-15 9-6 3-5 4-20 12-16 9-28 16-12 7-5 3-13 8-15 9-11 6-19 11-10 5-6 2-7 6-24 13-7 5-1 58v212l1 1h19l48-28 52-30 24-14 23-13 29-17 24-14 23-13 24-14 21-12 26-15 29-17 26-15 28-16 22-13 8-4v-271z" fill="#FCFCFC"/>
<path transform="translate(625,913)" d="m0 0h17l12 3 10 6 6 8 5 12 3 5 2 6 15-9 5 1 21 12 22 13 24 14 24 13 15 9 17 10 3 3 78 45 24 14 26 15 24 14 27 15 12 7-3 3-36 20h-2l-1 3-24 13-28 17-26 14-6 2-6-4-2-5-5-2-7-6-3-1-2 3-5-1-12-11-6-5-5-5-7-5v-2l-4-2-15-12-5-5-5-4-7-4-5-8-11-7-1-4-4-2-12-9-7-3-5-5-11-9v-2l-5-2-12-9-6-3-6-5-3-5-10-5-5-4-5-3-7-4v-2l-3-1-3-3-6-5-1-7-7-7-3-5-7 1-29 12-20 8-7 1-6-4-5-8-2-5 1-7 4-4 3-5 7-6 7-3v-5l-4-5-2-6v-12l3-6 2-2-1-7-1-4v-11l3-8 7-6 10-4z" fill="#C1D9FB"/>
<path transform="translate(687,376)" d="m0 0 4 1 9 20 12 26-1 2-6-11-2-1-2-7h-2v-2h-2l2 5 8 16 25 51 23 45 11 22 7 15h-9l-74-14-45-8-25-4h-7l13 3h4l2 2 5 3 1 6v3l7 1v1h-16l-35-2-11-1-9-15-1-3-7-2-100-16-8-1v-3l23-13 24-14 21-12 22-13 5 1 36 16 7 3v-47l24-14 21-12 24-14 18-10z" fill="#3585F3"/>
<path transform="translate(1245,270)" d="m0 0 2 1-2 3 13 3v1l-15 2-16 8-17 10-18 10-22 13-28 14-10 7-21 12-5 4-11 6-20 10-9 6-9 5-15 9-6 3-5 4-20 12-16 9-28 16-12 7-5 3-13 8-15 9-11 6-19 11-10 5-6 2-7 6-24 13-6 4-1 44h-1l-1-34-4 1-7 6-6 3-4 5h-2l-1 8 3 7 3 14 1 9 2 33 1 16v13l-1 25v54l-1 14h-1l-3-21-4-6-6-2-4 1v-2l-4-2-12 1-2-2 13-4 3-2-9-2-16 1h-16l-8 4h-10l-12 5-1 1 8 2-5 5-13 2-4 7-4 2-1-4v-131l1-4 9-5 17-10 10-4-1-3-6-2v-1h8l17 3h8l-18-36-1-6h4l4 5 5 12 4 7 1 4 5-2 78-45 24-14 28-16 52-30 24-14 26-15 23-13 22-13 26-15 21-12 11-6 13-8 13-7 9-6 25-14 24-14 26-15z" fill="#F0F7FC"/>
<path transform="translate(1586,346)" d="m0 0 4 1 12 26 5 10-1 2-8-11-5-7 8 15 9 17 13 28 13 25 10 19 11 22v1l-13-1-42-8-61-11 3 2v3l4 2 3 2v5l-25-1-17-1-7-2-7-10-3-4-88-14-4-2 8-5 24-14 26-15 16-9 5 1 8 3v-2h2l-2-9 5-2 2-2 6 1 12 7v-19l24-14 25-14 20-12z" fill="#3686F3"/>
<path transform="translate(1255,550)" d="m0 0 2 1-13 8-26 15-28 16-17 10-24 14-26 15-28 16-17 10-23 13-26 15-15 9-26 15-21 12-24 14-28 16-48 28-10 6-4-2v-44l1-26 1-6h1l1 13 2 3 4-1 6 3h3l1-38 10-8 11-6 12-7 21-12 22-12 19-12 11-6 6-2v-2l15-7h3l1 6v49l-3 2h-3v2l-12 7 7-1 7-3 5-3 2 1 2-4 2-1 1-3h2v2l5-1 1-2 4-2 1-1 10-2 8-3 5-4 4 1 3 2 6-5 8-2 9-4 5-4 11-5h2v-3l9-4 10-4 7-3 14-7 4-3 14-5 8-5 15-9 13-5 10-6h3l1-2 9-3v-2l9-4 7-5 7-2 10-6z" fill="#79AFFA"/>
<path transform="translate(652,1010)" d="m0 0h5l7 9 4 4 1 7 5 4 6 5 4 4 4 2 14 9 6 3 5 7 6 4 7 4 8 6 5 3 5 5 11 9v2l7 2 12 9 5 5v2l5 2 8 6 4 7 8 5 8 6 5 5 12 10 7 6 7 5 4 5 8 7 7 6h4l3-3 8 6 6 4 4 6 5 2 3 1-22 12-11 5h-5l-4-5-3-2h-3l-14-9-5-4-14-11-19-19-12-9-18-12-16-13-14-10-17-13-22-16-7-8-5-5-5-7-8-2-8 4-7 4-15 8-20 8-5-1-8-10-1-5 5-6 9-6h2v-10l3-7 5-4 5-1 1-3 6-1-1-2h-9l-7-4-1-9h-13l4-3z" fill="#EFF6FC"/>
<path transform="translate(1283,226)" d="m0 0h3v21l-27 16-23 13-27 16-28 16-26 15-17 10-5 3-18 10-5 4-14 7-17 10-28 16-29 17-10 6-11 6-21 12-24 14-78 45-21 12-26 15-24 14-28 16-6 4-3-1-4-10-2-3v-5l16-8 24-14 14-8 3-3 8-5h4v-2l7-4h3v-2l9-3v-2l5-1v-2l5-1v-2l9-3v-2l9-3v-2l6-3 13-8 23-13h3v-2l5-1v-2l8-4 8-5 11-6 16-9 20-12 9-5 10-6 9-5 16-9 13-8 11-6 14-8 13-8 11-6 14-8 17-10 13-8 12-6 20-12 14-8 23-13 26-15 24-14z" fill="#3686F3"/>
<path transform="translate(1363,811)" d="m0 0 5 1 21 11 11 7-4 4-45 27-16 9-27 16-27 15-16 9-29 17-21 12-23 13-23 14-17 10-7 3-21-12-14-9 3-3 18-10 42-24 26-15 16-10 24-14 21-12 19-11 20-12 17-10 22-12 21-12z" fill="#FCFCFC"/>
<path transform="translate(693,418)" d="m0 0 5 2 3 3 2 4 3 2 27 54 9 17 11 23 15 30v2l-10-1-86-16-55-11v-3l8-8 4-5 5-1 5 1h17l9-2 19 8v-27h2l-2-10-6-8-8-6-8-3 2-5 7-8 8-15 6-9 5-5z" fill="#C1D9FB"/>
<path transform="translate(1e3 611)" d="m0 0h3l1 6v49l-3 2h-3v2l-12 7-8 3-23 13-25 15-16 9-13 8-18 10-4 2-5-1v-52l9-7 11-6 12-7 21-12 22-12 19-12 11-6 6-2v-2z" fill="#3362F7"/>
<path transform="translate(611,531)" d="m0 0h9l37 6 70 13 16 3-1 2 5 3-1 3-4 1 1-2-3-1-36-2-7-1 1 27v54l1 280 3-1v2l-5 2-1-1-1-113-1-25-5-4v8l-1 3h-2l3 6 3-3 2 5-4-1-2 5-3 4h-5l-2-9 1-4 2-3-5-7-1-15-1-180v-32l-27-1-16-1v-1l7-1-1-5v-5l-4-1-4-3-12-2-6-2z" fill="#C2DAFC"/>
<path transform="translate(1272,192)" d="m0 0h6l16 9 4 2-13 8-23 13-26 15-25 14-24 14-18 10-20 12-21 12-26 15-23 13-22 13-21 12-6 2-1-5 13-10 3-3 3-1v-3l5-4 1-2-2-1 6-6-3-1-6 1 3-3 28-16 15-9 21-12 19-11 27-15 12-7 14-7 22-13 28-17 21-12z" fill="#EFF6FC"/>
<path transform="translate(687,376)" d="m0 0 4 1 9 20 12 26-1 2-6-11-2-1-2-7h-2v-2h-19l-8-6-5 1-39 22-14 8-5 1-1 5-1 3v12l4-1 1-7 7 4 14 10 7 4 18 2 10 2 9 6 7 8 2 5v7h-2v27l-10-3-9-4-9 2h-17l-5-1v-2l-7-1-11-6-5-6-2-4-1-9-8-4-3-1-1-49 24-14 21-12 24-14 18-10z" fill="#3585F3"/>
<path transform="translate(1591,377)" d="m0 0 5 1 33 66 10 19 13 26v2l-13-2-34-6-57-11-18-4 2-1 1-3 5-3h2l2-5 2-1h27l11 4h1v-31l-6-7-11-5 2-5 5-5 8-13 4-6 5-9z" fill="#C1D9FB"/>
<path transform="translate(976,515)" d="m0 0h2l1 6-3 6-2 3 4 2 42 63v2l-11-1-51-11h-5v3l11 1 37 9-4 1-15-2-33-3-22 1-18-1-30-2-1 2h-2l-1-22 7-2 44-11 7-1 12 6 5 2v-9l2-9 6-10 9-12 8-10z" fill="#3887F3"/>
<path transform="translate(1617,755)" d="m0 0 2 1v6l-2 5v15l-5 4-19 11-14 7-11 7-11 6-21 12-24 14-21 12-11 7-7 2-1 3-11 6h-2l1-5-9 2v-2l-6-2v-2h-6l-2-3 15-9 11-6 17-10 28-16 23-13 15-9 16-9 19-11 24-15 11-6z" fill="#F0F7FC"/>
<path transform="translate(1607,833)" d="m0 0h24l11 4 8 6 4 8-1 9-6 8-10 7-6 3-2 3 11-4 6-4 2 1-4 5-17 9-30 13-16 6-3-1-2-7-5-7-9-5-1-4 5-6 14-10h4v-17l4-7 9-6 6-2h4z" fill="#C1D9FB"/>
<path transform="translate(1586,346)" d="m0 0 4 1 12 26 5 10-1 2-8-11-5-7-8 3-8-4-2-3-6 2-22 12-23 13-5 2v3h2l1-2 1 6 5 1 12 8 7 6 16 1 8 2 8 5 5 6v31l-2 1-11-4h-27v-2l-6-1-9-5-5-6-2-10-8-4-1-2v-38l20-11 21-12 27-16z" fill="#3585F3"/>
<path transform="translate(1332,627)" d="m0 0 6 1 22 12 2 2-1 5-15 10-29 17-24 14-14 8-8 4-16-8-15-9 1-5 15-7 6-5h2l2-4 16-8 25-14 24-12z" fill="#FCFCFC"/>
<path transform="translate(697,556)" d="m0 0 24 1 19 1 5 1-5 4-20 11-7 5-3 1-1 2-1 272-4 5-3 6-1 24 1 22h3v4l-6 3-1-282z" fill="#79AFFA"/>
<path transform="translate(819,1016)" d="m0 0 7 3 78 45 24 14 26 15 24 14 27 15 12 7-3 3-18 10-22 12-1-3v-6-4l-11-9-8-6v-2l-4-2-4-4v-2l-5-2-5-4-2-1v-2h-2v-2l-4-2-7-6-8-6-11-11-8-7-5-5-14-11-10-6-1-3-4-1v-2l-5-2-14-9-13-9h-2l-5-5-2-1z" fill="#79AFFA"/>
<path transform="translate(1376,654)" d="m0 0h6l18 10 8 5-5 5-21 12-11 6-6-1-18-10-8-4-1 5-3 2 16 8 3 2v2l3 1 1 3-20 11-19 11-7-1-18-10-8-6 1-5 7-4 7-3 3-3-1-6 35-21h2v2l9-2 5-3 6-1 8-2h4l1-2z" fill="#FCFCFC"/>
<path transform="translate(1465,705)" d="m0 0 7 2 20 12-1 3-39 23-25 14-18 10-6 1-20-11-9-5 1-4 14-9 12-5 1-2 11-6 4-1v-2l16-8 7-3 9-4z" fill="#FCFCFC"/>
<path transform="translate(1019,957)" d="m0 0 5 1 18 11 8 6-3 3-26 15-24 14-28 16-3 2-7-1-22-12-6-4 5-4 20-11 25-15 26-14z" fill="#FCFCFC"/>
<path transform="translate(669,399)" d="m0 0 5 2 6 4 14 1 6 10 5 10v2l-4-2-3-5-5-2-5 5h-2l-2 6-7 10-7 13-7 8-1 2-22-2-7-4-14-10-6-4-2 6-4 1-1-2v-10l3-5 17-9 24-14z" fill="#79AFFA"/>
<path transform="translate(624,914)" d="m0 0h17l4 1v2l6 2v2l5 2 6 7v8l-8 8-11 4-9 1h-9l-4 4-3 1 2 4 8 3h18l9-2 10-6 5-7h1l-1 7-5 5-5 4-9 3-17 2-7 4 1 4 8 3-1 3h-17l-2 5h-3l5 5 4 3 2 4 4 3v2l-8-2-8-4-6-7-5-8-3-5-1-4v-12l3-6 2-2-1-7-1-4v-11l3-8 7-6 10-4z" fill="#5D9BF6"/>
<path transform="translate(1132,623)" d="m0 0h2v2l-5 2-1 3-4 3h-2l-1 3-2 2 2 1-1 4-10 8-15 8-10 8-7 5-16 8-19 9-9 3h-8l-12 3-6 4-5 6-17 9-11 7-7 9-5 3-9 1-17 9-2 2-2 7-15 10-16 8-9 7-9 4h-5l-1-1-7 1-10 4h-10l-13-1v-1l17-1 5-2 23-13 15-9 78-45 24-14 23-13 15-9 42-24 24-14 21-12z" fill="#EFFAFE"/>
<path transform="translate(596,441)" d="m0 0h1v37l5 1 6 3 1 1 1 9 5 8 10 6 9 3-3 2-14 14 4 3-11-1-61-11-4-1v-2h2l2-5 4-4 2-5 4-5 5-10 2-8 2-2 13-3 2-1 13 6z" fill="#5C9BF6"/>
<path transform="translate(962,941)" d="m0 0 6 1 20 11 7 4-1 3-21 12-18 11-21 12-12 7-5-1-25-15-3-2v-2l21-11 20-12 22-12z" fill="#FCFCFC"/>
<path transform="translate(1419,677)" d="m0 0 6 2 14 9 10 7-1 3-45 27-22 12-5 2-8-5-21-12 1-3 16-10 11-7 11-6 14-8 15-8z" fill="#FCFCFC"/>
<path transform="translate(1709,746)" d="m0 0h13l9 3 8 5 4 5-2 7-4 8v5l3 1-7 9-12 9-26 12-8 3h-4l-2-17-3-1 2-4 7-5h3l-1-8v-11l4-10 3-5 9-5z" fill="#C1D9FB"/>
<path transform="translate(675,768)" d="m0 0h1l1 13 3 4v2l2 1-3 5 1 11 5-1 5-8 3-1-2-2-3 4-2-8h2l1-11 3 1v2l3 1 1 25v109l-10-2-10-7-2-6v-57z" fill="#F0F7FC"/>
<path transform="translate(1245,270)" d="m0 0 2 1-2 3 13 3v1l-15 2-16 8-17 10-18 10-22 13-28 14-10 7-21 12-5 4-11 6-20 10-9 6-9 5-15 9-6 3-5 4-20 12-16 9-28 16-12 7-5 3-13 8-15 9-11 6-19 11-10 5-6 2-7 6-24 13-7 4v-5l-2-1 18-10 24-14 28-16 52-30 24-14 26-15 23-13 22-13 26-15 21-12 11-6 13-8 13-7 9-6 25-14 24-14 26-15z" fill="#E7F1FB"/>
<path transform="translate(640,461)" d="m0 0h12l16 3 9 6 7 8 2 5v7h-2v27l-10-3-9-4-9 2h-17l-5-1v-2l-7-1-11-6-5-6-2-4v-9l6 2 20 10 5 2z" fill="#3462F7"/>
<path transform="translate(1512,389)" d="m0 0h1l1 37 3 3 6 3 2 10 5 6 11 5 3 2-4 6-7 4v3 1l-10-1-48-9-3-2 5-6 3-3 4-9 3-10 4-4 7-1h5l-15-7-1-4h2l-2-9 5-2 2-2 6 1 12 7z" fill="#5D9BF6"/>
<path transform="translate(909,924)" d="m0 0 10 5 13 8 2 2-1 5-3 3-29 17-15 9-6 3-7-1-17-10-8-6 2-4 10-6 16-9 12-6 3-1 1-3 8-4z" fill="#FCFCFD"/>
<path transform="translate(1634,661)" d="m0 0h16l5 1v1l-7 1 12 4 8 6 2 4v7l-7 7-10 4h-23l-2 12 2 4-1 1h-8l4 6v2l-7-1-9-6-4-6v-17l5-16 7-8 8-4z" fill="#3362F7"/>
<path transform="translate(641,1044)" d="m0 0h9l15 4 5 3 3 4v8l-6 8-9 9-17 9-20 8-5-1-8-10-1-5 5-6 9-6h2v-10l3-7 5-4 5-2h5z" fill="#C0D9FB"/>
<path transform="translate(1572,365)" d="m0 0h3l3 3 8 3 6-1 3 7-5 2-4 8-5 8-9 14-5 5-1 2-19-1-8-7-13-8h-4v-7l11-6 23-13z" fill="#79AFFA"/>
<path transform="translate(1607,834)" d="m0 0h21l-2 2 12 5 6 5 2 3v8l-5 6-12 6h-24l-1 5h-2l2 4 2 1v2l-9-2-8-6-4-5-1-7v-11l4-7 9-6z" fill="#3362F7"/>
<path transform="translate(1071,881)" d="m0 0 6 1 20 11 5 4-26 15-14 8-5-1-18-11-10-6 1 5-5-1-6 2-5-1-15 5v2l-5-1v-3l4-2 15-6 16-8 11-6 9-4h7v2l7-2v-2z" fill="#FCFCFC"/>
<path transform="translate(1222,840)" d="m0 0 4 1v2l5 2 11 6 1 2 4 1 4 2-2 4-21 13-16 9-6-1-18-10-6-4-3-1-1 3h-2l-4-6-2-2 6-3 15-5 9-5 15-5 4-1 2 1z" fill="#FCFCFC"/>
<path transform="translate(1548,415)" d="m0 0h15l8 2 8 5 5 6v31l-2 1-11-4h-27v-2l-6-1-9-5-5-6-1-2v-7l6 1 11 5 5 2 3 2z" fill="#3462F7"/>
<path transform="translate(1221,741)" d="m0 0 5 2 20 11 7 4v2h-2v2l-12 6-17 10-7 4-6-1-19-10-10-7 1-3 8-4 3-2 13-8 8-3h5v-2z" fill="#FCFCFC"/>
<path transform="translate(1158,409)" d="m0 0h4v12l-5 4-26 15-23 13-17 10-26 15-10 6h-3v-14l24-14 23-13 28-16 26-15z" fill="#C0D8FB"/>
<path transform="translate(624,914)" d="m0 0h17l4 1v2l6 2v2l5 2 6 7v8l-8 8-12 3h-15l-12-4-6-5-1-7 4-8-4 2-4 4-2 5h-1v-7l4-6 9-6z" fill="#3362F7"/>
<path transform="translate(876,571)" d="m0 0h5l1 2 13 1 12 3 9 1-16-5-1-2h13v2l8 1 37 9-4 2v3l11 1 37 9-4 1-15-2-33-3-22 1-18-1-30-2-1 2h-2l-1-22z" fill="#79AFFA"/>
<path transform="translate(1265,717)" d="m0 0h21l14 7 7 4-4 4-15 8-21 12-3 1-22-12-8-4v-3l18-10 6-5 5-1z" fill="#FCFCFC"/>
<path transform="translate(1010,1015)" d="m0 0 5 1 30 18-1 4-18 11-12 7-5-1-15-9-15-10v-3l18-10z" fill="#FCFCFC"/>
<path transform="translate(1015,910)" d="m0 0 5 1 19 10 10 6-5 4-14 8-19 11-6-1-15-8-11-8 1-3 22-12z" fill="#FCFCFC"/>
<path transform="translate(1224,693)" d="m0 0h6l12 6 10 4 3 4-5 5-23 13-9 5-6-1-25-14-3-3 1-3 16-6 12-7 10-2z" fill="#FCFCFC"/>
<path transform="translate(1168,870)" d="m0 0 5 2 14 7 14 8-3 3-25 14-10 6h-5l-22-13-7-5 2-2h3v-2l12-4 9-6z" fill="#FCFCFC"/>
<path transform="translate(1094,966)" d="m0 0 5 1 20 12 11 7-1 3-31 18-4-2-19-11-13-8 4-4 13-7z" fill="#FCFCFC"/>
<path transform="translate(1052,990)" d="m0 0 6 2 30 18v2l-30 18-6-1-18-10-14-8 1-3 16-9z" fill="#FCFCFC"/>
<path transform="translate(1118,899)" d="m0 0h5l10 6 16 9 2 2-9 6-27 16-4 1-26-15-4-4 16-9z" fill="#FCFCFC"/>
<path transform="translate(1319,787)" d="m0 0 5 1 11 8 11 7-4 4-26 15-7 4-9-3-18-11-5-3v-3l20-10 7-4 12-3z" fill="#FCFCFC"/>
<path transform="translate(1174,820)" d="m0 0 7 1 7 4 7 3 3 2v2l4 1 3 4-8 5-17 10-10 6-6 1-14-8-13-9 3-3 16-9 11-7z" fill="#FCFCFD"/>
<path transform="translate(1008,818)" d="m0 0 6 2 9 6 1 2 6 3 1 4-3 5-27 15-4 1-16-8-15-8-1-3 5-3 25-12 7-3z" fill="#FCFCFC"/>
<path transform="translate(1225,791)" d="m0 0h7l12 7 7 2 3 2-1 8-24 14-10 5-5-2-24-15v-3l10-6 16-9z" fill="#FCFCFD"/>
<path transform="translate(1068,837)" d="m0 0h7l14 8 3 3-1 4h-2l-2 4-15 9-16 8-4-1-16-9-8-5 1-6 4-3 14-7 5-3z" fill="#FCFCFC"/>
<path transform="translate(1126,852)" d="m0 0 5 1 9 4 11 7 4 2-3 3-22 12-14 8h-5l-22-13-6-3v-2l17-8 19-10z" fill="#FCFCFC"/>
<path transform="translate(1114,755)" d="m0 0 10 1 9 5 1 3 3 2v11l-23 13-6 3-5-1-18-10-8-5 3-5 12-7 15-8z" fill="#FCFCFC"/>
<path transform="translate(1069,927)" d="m0 0 5 1 14 8 12 8v2l-32 19-7 1-15-8-13-8v-2l16-9 13-8z" fill="#FCFCFC"/>
<path transform="translate(1159,726)" d="m0 0h13l13 5 6 1v2l4 1 2 3v4l-9 5-23 14-5 1-15-8-14-9v-3l11-6 13-8z" fill="#FCFCFC"/>
<path transform="translate(1372,762)" d="m0 0 5 1 6 3v2h3v2l5 1 5 3-4 4-20 12-14 8-6-1-22-14-3-2v-3l29-15z" fill="#FCFCFC"/>
<path transform="translate(959,897)" d="m0 0 10 1 12 4 12 7-3 3-23 13-14 8-6-2-25-15v-2l19-10 9-5z" fill="#FCFCFC"/>
<path transform="translate(669,397)" d="m0 0 4 1 7 5h15l5 9 14 27 14 29 12 24 10 19 16 32 7 15h-9l-74-14-45-8-25-4-1-1-23-4-34-6-19-3-12-3-21-4-12-3v-5l-3-1 3-1 2 4 10 3 24 5 32 5 50 9 15 2 99 19 38 7-31-62-9-17-11-23-8-15-8-18-7-13-14-1-9-6-5 2-25 14-24 14-6 3-4-1h2v-2l16-8 42-24z" fill="#396AF7"/>
<path transform="translate(1276,762)" d="m0 0h8l9 5 10 3 6 5-2 4-16 9-18 10-6-1-21-12-4-3v-2l18-10z" fill="#FCFCFC"/>
<path transform="translate(1255,820)" d="m0 0h19l7 3 10 6 4 5-10 6-25 14-6-1-17-10-9-6v-2z" fill="#FCFCFC"/>
<path transform="translate(1053,789)" d="m0 0h15l12 8-1 7v6l-24 14-5 1-24-14-5-3-1-3 14-8 17-7z" fill="#FCFCFC"/>
<path transform="translate(540,517)" d="m0 0 22 3 57 10v1l-6 1 13 3h4l2 2 5 3 1 6v3l7 1v1h-16l-35-2-11-1-9-15-1-3-7-2-1-2-17-4-10-2v-2z" fill="#5C9AF6"/>
<path transform="translate(949,853)" d="m0 0h7l12 6 7 4 1 5-4 4-24 14-3 2-6-1-19-11-8-5 1-4 19-9z" fill="#FCFCFD"/>
<path transform="translate(1168,776)" d="m0 0 9 1 8 4 4 8-1 6-1 3-27 16h-2l-3-3-16-9-7-5-1-3 8-5 14-8 10-4z" fill="#FCFCFD"/>
<path transform="translate(1327,732)" d="m0 0 16 2 5 4 8 3 3 7-11 7-23 14-5-2-24-14-1-3 5-3 12-7 10-6z" fill="#FCFCFC"/>
<path transform="translate(841,914)" d="m0 0 6 1 10 8h6l4 4 1 5-11 6-20 12-4 1-18-10-10-7 1-4 19-9 6-4z" fill="#FCFCFC"/>
<path transform="translate(897,883)" d="m0 0 11 4 14 7 1 2-3 5-14 8-15 9-6-1-17-9-8-6 1-4 22-12 5-2z" fill="#FCFCFC"/>
<path transform="translate(1709,746)" d="m0 0h13l9 3 6 6v7l-4 5-8 4-16 1-2 1-1 7-5 3-1 5h2l1 4h2v2l-6-1-6-4-3-4-1-7v-11l4-10 3-5 9-5z" fill="#3564F7"/>
<path transform="translate(1006,868)" d="m0 0h7l12 5 7 8v6l-25 15-6 1-18-10-9-7 1-3 16-8 9-6z" fill="#FCFCFD"/>
<path transform="translate(1164,487)" d="m0 0h1v20l-9 6-23 13-5 3-22 13h-2l-1-2v-17l13-8 26-15 21-12z" fill="#BED7FB"/>
<path transform="translate(902,432)" d="m0 0 2 1-1 3h-2v2l-17 10-5 2-8 4-3 1v3l-15 8-23 14-6 4h-3v2l-7 4h-2v2h-2l1 2h8l-3 3-26 15-18 10-6 3h-2l-1 2-5-11 1-3 14-7 21-12 23-13 15-9 26-15 20-11z" fill="#7AB0FA"/>
<path transform="translate(1117,807)" d="m0 0h8l3 1 4 6 2 1v2h2l-1 5-6 3-5 10-15 8-4-1-16-9-8-5-1-5 12-6 15-8z" fill="#FCFCFD"/>
<path transform="translate(1573,362)" d="m0 0 3 1 4 4 6 2 6-2 5 8 10 18 13 28 16 31 10 19 11 22v1l-13-1-42-8-61-11-1-1-46-8-34-6-17-4v-2l38 6 47 9 15 2 57 11 33 6 16 3 3 1-23-46-10-19-27-54v-2l-7 2-10-5v-2l-16 8-24 14-10 6h-4v2h-2v-3l23-13 27-15z" fill="#3B6BF7"/>
<path transform="translate(973,533)" d="m0 0 4 1 7 11 24 36 7 10v2h-7l-48-11-3-2 1-2 9 1 18 3 6 2 1-13-6-4-9-2-5-4-2-1v-2l-5-2-2-2 1-4 1-2h2l3-12z" fill="#BED7FB"/>
<path transform="translate(860,1040)" d="m0 0 6 2 24 14 52 30 24 14 21 12 27 15 3 3-17 10-6 3h-2v-10l-3-3v-2l-5-2-8-7-14-14-7-5-9-5-8-5v-2l-4-1-14-9-11-7-34-21-11-6z" fill="#5D9BF6"/>
<path transform="translate(1221,454)" d="m0 0h3v19l-3 3-11 6-11 7-22 12h-2v-20l13-8 24-14z" fill="#3563F7"/>
<path transform="translate(607,487)" d="m0 0h1v5h2l5 8 10 6 9 3-3 2-14 14 4 3-11-1-27-5 3-9 9-14 7-9h2v-2z" fill="#78AFFA"/>
<path transform="translate(1222,369)" d="m0 0h2v20l-17 10-14 8-15 9h-3v-20l24-14z" fill="#3462F7"/>
<path transform="translate(687,376)" d="m0 0 4 1 9 20 12 26-1 2-6-11-2-1-2-7h-2v-2h-19l-8-6-5 1-39 22-14 8-7 2 4-4h3v-2h2l-1-4 13-7 20-12 21-13 9-5 5-5z" fill="#5C9AF6"/>
<path transform="translate(636,1046)" d="m0 0h18l8 4 5 6v6l-5 5-5 3-3 1h-12l-10-3v3l5 2 6 4v1l-9-1-6-3-5-6v-9l3-7 5-4z" fill="#3564F7"/>
<path transform="translate(972,531)" d="m0 0 6 1 42 63v2l-11-1-51-11-9-3-37-9v-2l-12 1 16 5 1 2-15-2-7-2-18-2 4-2 9-3 36-9 7-1 10 5-2 2-15 4h-11v2l10 2 28 7 20 4 35 8 7 1-36-54-3-5-4 1-6 7-8 12 1-7 1-3 3-3 7-9z" fill="#3988F3"/>
<path transform="translate(1634,661)" d="m0 0h16l5 1v1l-16 3-10 2-8 4-3 5v7l4 6 9 4 5 1v1h-6l-2 12 2 4-1 1h-8l4 6v2l-7-1-9-6-4-6v-17l5-16 7-8 8-4z" fill="#5D9AF6"/>
<path transform="translate(1473,462)" d="m0 0h9l58 10v2l4 2v3l4 2 3 2v5l-25-1-17-1-7-2-7-10-3-4-18-3 1-3h-2z" fill="#5C9AF6"/>
<path transform="translate(1461,753)" d="m0 0 11 4 8 4-5 4-17 11-14 8-7 1-16-9-2-4-2-1 9-3 12-3 14-9z" fill="#FCFCFC"/>
<path transform="translate(1480,763)" d="m0 0 6 1 11 7 3 1-1 3-20 12-18 10-5-2-14-8 5-4 16-9z" fill="#FCFCFC"/>
<path transform="translate(1438,788)" d="m0 0 4 1-1 4h-1l7 5 6 2-4 4-14 8-20 12-4-1-15-8v-2l17-10 20-12z" fill="#FCFCFC"/>
<path transform="translate(1524,739)" d="m0 0 6 1 11 7 1 3-20 12-16 9-6-1-15-8v-2l16-8 15-9z" fill="#FCFCFC"/>
<path transform="translate(1301,612)" d="m0 0 5 1 6 3 3 5v3l-32 17-7-1-13-8 1-4 10-4 6-5 9-5 10-1z" fill="#FCFCFC"/>
<path transform="translate(1246,645)" d="m0 0 9 1 7 3 1 4-13 8-17 10-6 3-19-10-1-3 14-7 9-6 9-2 1 1h6z" fill="#FCFCFC"/>
<path transform="translate(1022,772)" d="m0 0h7l6 3 5 1 5 2v2l-19 10-16 10-5-2-14-8-1-2 3-3 14-8z" fill="#FCFCFC"/>
<path transform="translate(591,996)" d="m0 0 2 1-5 5-3 6-2 1-1 7 5 10 5 5 6 1 6-1-2 2-11 4-18 4-8-1-3-2-1-3v-11l4-6 10-9 8-7z" fill="#F0F7FC"/>
<path transform="translate(1536,473)" d="m0 0 11 1 66 12 9 2-3 1v2l-8 1-36-1-46-3v-1h14l8 1-1-3 1-2-4-2-3-2-1-3-7-2z" fill="#C2DAFC"/>
<path transform="translate(835,507)" d="m0 0h3v49h-1l-1-34-4 1-7 6-6 3-5 5-1-3-9 1-19 8h-2v2l-4 3-4-4-2-1 15-9 26-15z" fill="#EEF9FE"/>
<path transform="translate(648,411)" d="m0 0 2 1-2 4h-2l-1 6-3 6-6 10-3 3-3 4-1 8-5-2-11-8-2 6-4 1-1-2v-10l3-5 17-9z" fill="#5D9BF6"/>
<path transform="translate(1560,881)" d="m0 0h2l1 6 8 4 7 10 1 5 1 2-15 5-10 1-5-5-4-5-1-2 1-9 8-8z" fill="#F0F7FC"/>
<path transform="translate(851,868)" d="m0 0 11 1 11 2v4l-5 6-23 13-11-6-9-5v-3l16-8z" fill="#FCFCFC"/>
<path transform="translate(1164,403)" d="m0 0h1v19l-10 7-25 14-26 15-24 14-26 15-5 1v-18l5-4 18-10 24-14 23-13 24-14zm-6 6-26 15-77 44-3 2v14l5-1 17-10 26-15 24-14 25-14 11-7 2-2v-12z" fill="#3A6BF7"/>
<path transform="translate(1586,346)" d="m0 0 4 1 12 26 5 10-1 2-8-11-5-7-8 3-8-4-2-3-6 2-22 12-23 13-5 3h-2l1-5 9-3 5-2v-2l5-3 13-8 15-9 2-4z" fill="#5D9BF6"/>
<path transform="translate(1179,678)" d="m0 0h5l1 1 13 1 2 2 1 5-8 4-4 5-16 8-4-1-15-8 1-4 8-4h2l1-3 5-2 4-3z" fill="#FCFCFC"/>
<path transform="translate(1521,441)" d="m0 0 4 1 5 6 11 5 3 2-4 6-7 4v3 1l-10-1-21-4 1-4 5-6 4-7 6-5z" fill="#78AEFA"/>
<path transform="translate(798,901)" d="m0 0 4 1 5-1 8 2-2 6-4 2-5 7-13 7-4-1-14-8-1-4 9-6z" fill="#FCFCFC"/>
<path transform="translate(495,501)" d="m0 0 4 1 1 3 10 3 24 5 32 5 50 9 15 2 83 16v3l-24-4-45-8-25-4-1-1-23-4-34-6-19-3-12-3-21-4-12-3v-5l-3-1z" fill="#4174F7"/>
<path transform="translate(1607,834)" d="m0 0h21l-2 2 1 2-17 1-10 3-5 4-2 3v9l7 6 8 3 6 1v1h-9l-1 5h-2l2 4 2 1v2l-9-2-8-6-4-5-1-7v-11l4-7 9-6z" fill="#5D9BF6"/>
<path transform="translate(913,840)" d="m0 0 12 1 1 2-3 5-6 5-17 9-5-1-15-9 2-4 11-5 7-1 1 2 10-3z" fill="#FCFCFC"/>
<path transform="translate(572,523)" d="m0 0h8l32 6 7 1v1l-6 1 13 3h4l2 2 5 3 1 6v3l7 1v1h-16l-12-2-2-4-3-1-5-10-33-7-3-3z" fill="#78AEFA"/>
<path transform="translate(964,808)" d="m0 0h8l8 3-2 4-6 2-5 6-8 6-4 2-6-1-13-9 2-4 5-3 8-3h5l7 2z" fill="#FCFCFC"/>
<path transform="translate(753,515)" d="m0 0h4l4 5 5 12 4 7 1 4h5l3 4 1 7-6 7-10 4-18-1-7 5-2-2 5-5 4-2-1-3-6-2v-1h8l17 3h8l-18-36z" fill="#F0FBFE"/>
<path transform="translate(684,490)" d="m0 0h1l1 5 14 10 17 13 1 2-5 1-8 3-4 1-16-7-1-1z" fill="#7AB0FB"/>
<path transform="translate(1131,711)" d="m0 0 5 1 2 2-1 1 1 5-5 6-7 6-7 4-5-1-15-8 1-4 6-2 10-2 5-5z" fill="#FCFCFC"/>
<path transform="translate(1512,389)" d="m0 0h1v38l-6-1-19-9-1-4h2l-2-9 5-2 2-2 6 1 12 7z" fill="#EDF9FE"/>
<path transform="translate(605,955)" d="m0 0h1l1 14 5 5 9 5v2h8l1-2 6 1-1 3h-17l-2 5h-3l5 5 4 3 2 4 4 3v2l-8-2-8-4-6-7-5-13-1-6v-8z" fill="#5D9BF6"/>
<path transform="translate(649,946)" d="m0 0 3 1-9 3-9 1h-9l-4 4-3 1 2 4 8 3h18l9-2 10-6 5-7h1l-1 7-5 5-5 4-9 3-17 2-7 4 1 5-6-2-7-5v-2l5-3-5-5-5-6v-4l4-4 13 1h15z" fill="#78AEFA"/>
<path transform="translate(1556,374)" d="m0 0 2 1-4 6-4 10-10 13-1 3-5-2-8-5h-4v-7l11-6z" fill="#5D9BF6"/>
<path transform="translate(1263,548)" d="m0 0 4 2v9l-9 1-17 9-12 7-7 6-8 3-3-1 5-5 3-4-1-2 28-16 13-8z" fill="#F0FBFE"/>
<path transform="translate(1461,753)" d="m0 0 11 4 8 4-5 4-11 7-2-2 2-7-4 2-21 3-12 7-3 3-4-4-1-2-2-1 9-3 12-3 14-9z" fill="#F0F7FC"/>
<path transform="translate(1694,755)" d="m0 0 1 2h3l3 7 6 4 11 2v1l-9 1-2 1-1 7-5 3-1 5h2l1 4h2v2l-6-1-6-4-3-4-1-7v-11l4-10z" fill="#5D9BF6"/>
<path transform="translate(684,384)" d="m0 0h4v3l5 1v2h2l2 4 3 3 12 26-1 2-6-11-2-1-2-7h-2v-2h-19l-8-6 1-5 5-5z" fill="#78AFFA"/>
<path transform="translate(1095,527)" d="m0 0h2v20l-2 2h-3v2l-16 8v-21l10-6z" fill="#3564F7"/>
<path transform="translate(1068,542)" d="m0 0h2v21l-10 6-9 5h-2v-20l5-4 11-6z" fill="#3766F7"/>
<path transform="translate(709,557)" d="m0 0h12l19 1 5 1-5 4-20 11-7 5h-4z" fill="#3887F3"/>
<path transform="translate(1164,487)" d="m0 0h1v20l-9 6-23 13-5 3-22 13h-2l-1-2v-17l13-8 26-15 21-12zm-3 5-18 10-36 21-1 1v13l5-1 25-14 9-6 11-6 6-3v-15z" fill="#3E70F7"/>
<path transform="translate(950,557)" d="m0 0h1v10h5l2 3 2 6 2 2h-4l-1 3-9-1-30-8-3-1v-2l15-2 14-4 2 2 4 1z" fill="#76ADFA"/>
<path transform="translate(1592,366)" d="m0 0 5 5 8 11 1 2 3 1 12 26 12 28 4 12-1 2-12-22-14-29-8-16-10-18z" fill="#BBD6FB"/>
<path transform="translate(1049,884)" d="m0 0h7l-2 4-11 7-12 7h-2l1 5-5-1-6 2-5-1-15 5v2l-5-1v-3l4-2 15-6 16-8 11-6z" fill="#EDF5FC"/>
<path transform="translate(1222,840)" d="m0 0 4 1v2l5 2 11 6 1 2 4 1 4 2-2 4h-3l-10-6-13-8-5-1-12 5-18 10-7 4v2h-2l-1 3h-2l-4-6-2-2 6-3 15-5 9-5 15-5 4-1 2 1z" fill="#EEF6FC"/>
<path transform="translate(1499,467)" d="m0 0h11l30 5v2l4 2v3l4 2 3 2v5l-25-1v-1l5-1-1-6-12-6-20-4z" fill="#78AEFA"/>
<path transform="translate(1487,840)" d="m0 0h11l1 2-9 5h-2v2l2 1-5 3-2 5-10 7-6 3-3-1-4-3 1-5 9-5h2l2-4 3-4h6l1-4z" fill="#C4DBFC"/>
<path transform="translate(977,868)" d="m0 0 4 1-30 18-2 4-2 2v3l-3 1v-2l-7 2-1 2 6-1-5 4-6 3v-3h2v-4l-2-1 3-1 2-4h-2v-2l-6-2-2-4-3-1v-3l-10-6v-3l16 9 12 7 5-1 16-9z" fill="#C4DBFC"/>
<path transform="translate(1584,430)" d="m0 0h1l1 12 13 10 11 8-5 5h-5l-1 2-15-6-1-2z" fill="#79AFFA"/>
<path transform="translate(923,898)" d="m0 0h4l1 5-9 3-8 4-13 8-7 4-9 3-4-5-10-7v-2l-6-2-2-1v-5l5 2 16 9 6 3 6-1 20-12z" fill="#C2DAFC"/>
<path transform="translate(584,637)" d="m0 0h10v33l-1 1h-7l-2-3z" fill="#3867F7"/>
<path transform="translate(1447,377)" d="m0 0 7 1 17 9 5 3 2 2-1 5-5 2-21-10-6-4 1-7z" fill="#3665F7"/>
<path transform="translate(1374,365)" d="m0 0h6l2 3-1 5-19 10-7 4-4-1-2-2 1-5 11-8z" fill="#3564F7"/>
<path transform="translate(1399,361)" d="m0 0h10l17 4 5 3 1 5-3 3-20-4-10-1-2-3 1-6z" fill="#3665F7"/>
<path transform="translate(654,738)" d="m0 0h5l3 4-2 4-10 7-15 8-4-1-2-3 1-4 15-10z" fill="#3767F7"/>
<path transform="translate(587,688)" d="m0 0h6l2 2v30l-2 2h-6l-2-2v-30z" fill="#3361F7"/>
<path transform="translate(585,586)" d="m0 0h8l1 6v26l-3 2h-5l-2-2v-31z" fill="#3968F7"/>
<path transform="translate(1331,391)" d="m0 0h5l2 3-1 5-22 14-7 1-2-2v-5l11-8z" fill="#3463F7"/>
<path transform="translate(590,738)" d="m0 0 4 1 8 10 5 4 8 5-1 6-1 1-8-1-10-7-7-9-1-7z" fill="#3564F7"/>
<path transform="translate(1e3 453)" d="m0 0 3 1-13 8-25 14-25 15-28 16-24 14-18 10-3-1 17-10 26-15 24-14 26-15 24-14z" fill="#3869F7"/>
<path transform="translate(1621,691)" d="m0 0 10 3 5 1v1h-6l-2 12 2 4-1 1h-8l4 6v2l-7-1-2-2h2l-5-6v-4l3-2 4-14z" fill="#79AFFA"/>
<path transform="translate(1477,395)" d="m0 0 9 2 5 3 1 3-5 1 2 4v5h-2l1 3-6-2 1-5-9-4-4 3h-7l-3-2v-2l5-3 1-5 8 2z" fill="#F1FBFE"/>
<path transform="translate(826,904)" d="m0 0h2l-1 3-21 12-5 3h-2v2l-6 2v2l-5 3-2 3h-8v-2h-2v-6l-2-3-2-5-4-4 5 1 15 9 5-1 21-12z" fill="#C2DAFC"/>
<path transform="translate(1361,646)" d="m0 0h2l-2 4-21 13-26 15-17 10-23 13-4 1-16-8-12-8-1-2 6 2 17 10 7 3 10-5 24-14 21-12 28-17z" fill="#C2DAFC"/>
<path transform="translate(876,571)" d="m0 0h5l1 2 13 1 12 3 9 1-16-5-1-2h13v2l8 1 12 3v3l2 2-20-1-12-2-19-1-6 1-2-7z" fill="#5D9BF6"/>
<path transform="translate(1679,792)" d="m0 0v3l3 3 2 13-1 2 3 1-12 4-4-1-2-9-1-5 5-5z" fill="#F0F7FC"/>
<path transform="translate(1360,747)" d="m0 0h2v3h-2l-1 4-25 14-12 5-6 2 2-3h3v-3l-6-1-21-15 2-1 24 14 5 2 25-15z" fill="#C2DAFC"/>
<path transform="translate(1313,775)" d="m0 0 2 1-11 8-1 2h-2v2l-5 3h-3v2l-16 7-9 1-9-5-14-9-3-3 1-2 19 11 7 4 6-1 35-19z" fill="#C2DAFC"/>
<path transform="translate(1149,429)" d="m0 0m-2 1h2l-1 3-25 14-24 14-26 15-21 12h-3l1-3 12-6 24-14 26-15 21-12z" fill="#3969F7"/>
<path transform="translate(1524,739)" d="m0 0 6 1 1 2-5 1-9 9-12 7-5 1h-9l-2 4-4-2v-2l16-8 15-9z" fill="#F0F7FC"/>
<path transform="translate(972,531)" d="m0 0 6 1 42 63v2l-11-1-2-1v-2h8l-36-54-3-5-4 1-6 7-8 12 1-7 1-3 3-3 7-9z" fill="#3A6BF7"/>
<path transform="translate(1586,353)" d="m0 0 1 3h3v2h2l5 9 4 4 6 12-1 2-8-11-5-7-8 3-8-4-2-3v-3z" fill="#78AEFA"/>
<path transform="translate(609,1077)" d="m0 0v3l-1 5 7 8 2 3 3 2-12 4h-6l-4-8 1-7z" fill="#F0F7FC"/>
<path transform="translate(495,501)" d="m0 0 4 1 1 3 10 3 24 5 32 5 34 6-1 3-14-2-42-7-12-3-21-4-12-3v-5l-3-1z" fill="#336AF6"/>
<path transform="translate(1145,476)" d="m0 0h3v2l-56 32-19 11-21 12-5 1v-2l17-9 24-14 28-16 23-13z" fill="#396AF7"/>
<path transform="translate(1448,697)" d="m0 0h2v2l-28 17-26 15-18 10h-3l-2-1v-2l-6-2-8-3-4-4-8-5 1-2 26 14 3 2 33-18 20-12z" fill="#C2DAFC"/>
<path transform="translate(976,515)" d="m0 0h2l1 6-5 10-6 4-6 9h-2l-1 5-2 2-2-1-1-6 12-17 9-11z" fill="#7AB0FA"/>
<path transform="translate(710,581)" d="m0 0 4 1 1 4 1 8v10l-2 8-2 26-1 11h-1z" fill="#FCFDFD"/>
<path transform="translate(681,380)" d="m0 0 2 1-6 5-10 5-24 15-15 9-19 10-10 5h-2v-2l20-11 17-10 26-15z" fill="#396EF7"/>
<path transform="translate(981,566)" d="m0 0 7 1 5 4-2 13h-5l-7-2-2-4v-11z" fill="#3565F7"/>
<path transform="translate(729,568)" d="m0 0 6 1-3 6-9 7-4 4-2 15h-1l-2-11v-6l-1-2-3-1v-2l9-5z" fill="#EEFAFE"/>
<path transform="translate(1443,453)" d="m0 0 38 6 47 9 10 1 2 3h-7l-51-9-25-5-14-3z" fill="#3464F7"/>
<path transform="translate(1145,392)" d="m0 0h2v2l-27 15-22 13-28 16-20 11h-2v-2l22-12 21-12 29-17z" fill="#396AF7"/>
<path transform="translate(965,490)" d="m0 0 3 1-10 6-26 15-17 10-28 16-12 7-3-1 8-5 52-30 24-14z" fill="#3B6CF7"/>
<path transform="translate(610,977)" d="m0 0 16 4 4-1 3-1 3 1-1 3h-17l-2 5h-3l5 5 4 3 2 4 4 3v2l-8-2v-3l-8-7-6-7-1-3 4 1z" fill="#7AB0FB"/>
<path transform="translate(949,1092)" d="m0 0 5 1 24 14 27 15 12 7-3 3-5 1-1-4-5-4-18-10-27-16-9-6z" fill="#448DF4"/>
<path transform="translate(793,947)" d="m0 0 1 2 3 1-5 10v2l3 1 1 5-3 6-5-3 1-11h-7v-5l-1-3v-3h8z" fill="#F0F7FC"/>
<path transform="translate(1145,772)" d="m0 0v3l-19 11-16 9-6 2-10-7-18-11 4-1 23 13 5 1 12-6 17-10z" fill="#C2DAFC"/>
<path transform="translate(1303,731)" d="m0 0 2 1-10 7-25 14-4 2-7-1-13-8-16-9 2-1 12 5 20 11 14-7 21-12z" fill="#C2DAFC"/>
<path transform="translate(1035,835)" d="m0 0 3 1-16 10-16 9-8 4-4 1-3-1-1-4-5-2-21-13 2-1 19 10 12 6 7-2 20-12z" fill="#C2DAFC"/>
<path transform="translate(1149,820)" d="m0 0 2 1-14 9-27 15-6 1v-2l-14-7v-2h-4v-2h-7l1-4-1-2 6 2 11 7 10 6 5-1 20-11 16-9z" fill="#C2DAFC"/>
<path transform="translate(485,513)" d="m0 0h11l19 4 18 3 15 1 21 5v1h-10l-74-12z" fill="#3F70F8"/>
<path transform="translate(1197,741)" d="m0 0v3l-22 14-8 5-1 2-8-1-10-5-17-12-1-2 5 2 21 12 6 2 10-5 13-8 9-6z" fill="#C2DAFC"/>
<path transform="translate(1089,804)" d="m0 0 2 1-9 6-26 15-5 3-6-3-5-4-4-1v-2l-4-2-9-6-4-4 6 2 13 8 12 7 5-1 21-12z" fill="#C2DAFC"/>
<path transform="translate(1625,663)" d="m0 0h5l-1 2h-2v2l-9 5-3 4-6 16-1 11 1 9-4-4v-17l5-16 7-8z" fill="#386AF7"/>
<path transform="translate(1480,730)" d="m0 0 5 1v3l-8 4-4 4-9 4-9 5-4-1-2-2 21-12z" fill="#F0F7FC"/>
<path transform="translate(1573,362)" d="m0 0 3 1 4 4 6 2h3v2l-4 1-10-5v-2l-16 8-24 14-10 6h-4v2h-2v-3l23-13 27-15z" fill="#3362F7"/>
<path transform="translate(1252,710)" d="m0 0 3 1-11 7-17 10-10 5-6-1-13-8-14-9 3-1 25 14 6 1 20-11z" fill="#C2DAFC"/>
<path transform="translate(753,515)" d="m0 0h4l4 5 5 12 4 7 1 4 2 2h-2l-1 6-4-5-11-23z" fill="#E1EDFB"/>
<path transform="translate(1477,412)" d="m0 0 9 3 2 2-9 1-10 7-30 18-4 2-1 3 1 2-5-1-1-4 5-4 12-6 19-11 10-7 3-1z" fill="#3361F7"/>
<path transform="translate(606,927)" d="m0 0v3l-1 4v15l1 6-5 10v8l2 8 1 5-5-5-2-6v-12l3-6 2-2-1-7-1-4v-11l2 1 3-6z" fill="#3E83F4"/>
<path transform="translate(1251,761)" d="m0 0 1 2-20 12-14 8-7 3v-2l-5-2-12-6-10-7-1-2 6 2 10 6 12 6 6-1 19-11 11-6z" fill="#C2DAFC"/>
<path transform="translate(543,459)" d="m0 0h3v2l-10 6-9 5-19 12-22 11-3-1 24-14 19-11z" fill="#3A6BF7"/>
<path transform="translate(1050,1080)" d="m0 0 2 2-1 3-24 12-9 1 4-5 16-9 7-3z" fill="#7AB0FB"/>
<path transform="translate(1222,840)" d="m0 0 4 1v2l5 2 11 6 1 2 4 1 4 2-2 4h-3l-10-6-13-8-5-1-10 3 3-3 6-3 4 1z" fill="#F0F7FC"/>
<path transform="translate(1353,702)" d="m0 0 2 1-10 7-20 11-5 3h-4l-1 2v-2l-7-2-19-12-2-4 4 2 16 9 7 4 7-1 19-11z" fill="#C2DAFC"/>
<path transform="translate(1494,400)" d="m0 0 6 1 8 5 1 5-2 3h-6l-10-6-1-4z" fill="#3868F7"/>
<path transform="translate(1566,358)" d="m0 0 2 1-9 7-18 10-6 5h-3v2l-9 5h-5v2l-3-1v-2l18-10 21-12z" fill="#3871F6"/>
<path transform="translate(1600,836)" d="m0 0h7l-2 2-11 6-4 4-1 3v17l2 5-4-2-2-3-1-7v-11l4-7 9-6z" fill="#3C6FF7"/>
<path transform="translate(624,1055)" d="m0 0 1 3 4 2 3 5 9 4-4 1-5-2v3l5 2 6 4v1l-9-1-6-3-5-6v-9z" fill="#5F9DF6"/>
<path transform="translate(1701,768)" d="m0 0 9 1 8 1v1l-9 1-2 1-1 7-5 3-1 5h2l1 4h2v2l-4-1-6-8-1-4 2-1 1-3 3-2z" fill="#78AEFA"/>
<path transform="translate(1406,671)" d="m0 0v3l-9 6-24 13-7 1-20-11-8-6 2-1 16 9 11 6 6-1 22-12z" fill="#C2DAFC"/>
<path transform="translate(880,873)" d="m0 0 3 1-5 4-22 12-8 5-9 1-3-3-5-3v-2l-4-2-4-4 5 2 16 9 12-6 17-10z" fill="#C2DAFC"/>
<path transform="translate(669,397)" d="m0 0m-2 1h2v2l-52 30-6 3-4-1h2v-2l16-8 21-12z" fill="#3363F7"/>
<path transform="translate(828,511)" d="m0 0 5 1-1 5-5 4-11 5-4-1v-5z" fill="#FBFCFC"/>
<path transform="translate(780,949)" d="m0 0 2 4 1 6 6 1 1 3-1 8 6 4-1 6-5-2-3-8-5-6-1-4-2-1v-6z" fill="#C2DAFC"/>
<path transform="translate(1210,683)" d="m0 0v3l-19 11-19 10-5-2-9-5-6-4v-2l6 2 12 7 5-1 19-10z" fill="#C2DAFC"/>
<path transform="translate(624,914)" d="m0 0h17l4 1v2l6 2v2l-6-1h-25l-2-2-1 1h-5l4-3z" fill="#5D9BF6"/>
<path transform="translate(1594,863)" d="m0 0 20 5v1h-9l-1 5h-2l2 4 2 1v2l-6-1-2-4-6-5 1-5z" fill="#78AEFA"/>
<path transform="translate(1152,716)" d="m0 0 4 1-9 6-22 12-5 3h-6l-12-7-7-5 3-1 16 9 5 1 26-14z" fill="#C2DAFC"/>
<path transform="translate(959,589)" d="m0 0 10 1 32 8-4 1-15-2-19-2-6-2-5-2v-1z" fill="#5791F6"/>
<path transform="translate(961,582)" d="m0 0 12 2 35 8-1 3-13-2-36-8z" fill="#4D82F7"/>
<path transform="translate(540,517)" d="m0 0 22 3 12 2-2 3 3 3-4 1-5-1-1-2-17-4-10-2v-2z" fill="#5C9BF6"/>
<path transform="translate(1149,613)" d="m0 0h2l1 2h6l-3 3-11 8-12 5 1-3 5-4 1-2-2-2z" fill="#EFFAFE"/>
<path transform="translate(935,842)" d="m0 0 3 1-17 10-20 11h-5l-19-12-1-2 6 2 15 9 5-1 24-13z" fill="#C2DAFC"/>
<path transform="translate(1473,462)" d="m0 0h9l23 4v1l-6 1v2l-6 1-5-2-14-2 1-3h-2z" fill="#5D9BF6"/>
<path transform="translate(1063,1101)" d="m0 0 2 1-24 14-19 11h-3l2-6 5-3 4-1 10-4z" fill="#7AB0FB"/>
<path transform="translate(1317,622)" d="m0 0 3 1-17 10-22 11-5-2-12-7-5-5 5 2 14 8 7-1 23-12z" fill="#C2DAFC"/>
<path transform="translate(1263,652)" d="m0 0 3 1-15 10-18 10-6 3-7-3-13-8-1-2 6 2 16 8 24-14z" fill="#C2DAFC"/>
<path transform="translate(1045,779)" d="m0 0 2 1-8 5-14 8-13 8-4 1-10-5-10-6 1-2 16 8 5 2 25-15z" fill="#C2DAFC"/>
<path transform="translate(1082,450)" d="m0 0m-2 1 2 1-4 4-23 13-2 1v15l-4 1v-16l5-4 18-10z" fill="#3A6AF7"/>
<path transform="translate(1164,403)" d="m0 0h1v19l-10 7-6 3 1-4 10-6 1-1 1-12-7 3-6 2 5-5z" fill="#4071F7"/>
<path transform="translate(988,811)" d="m0 0 3 1-9 6-23 13-7 3-18-12 1-2 16 10 6-1 28-16z" fill="#C2DAFC"/>
<path transform="translate(667,537)" d="m0 0 10 1 37 7v3l-24-4-21-4-2-1z" fill="#4274F7"/>
<path transform="translate(1250,267)" d="m0 0h2l3 3 9 1 1 5-2 1h-8l-10-2v-3z" fill="#F2FCFE"/>
<path transform="translate(1114,516)" d="m0 0 2 1v2l-9 5-1 13 7-3 5-2-2 4-10 6h-2l-1-2v-17z" fill="#3F71F7"/>
<path transform="translate(1200,790)" d="m0 0 3 1-13 8-22 13-9 5h-2l1-3 16-9 20-12z" fill="#C2DAFC"/>
<path transform="translate(670,948)" d="m0 0h1l-1 7-5 5-5 4-10 2h-15v-1l20-4 10-6z" fill="#3B6BF7"/>
<path transform="translate(1156,492)" d="m0 0m-2 1 2 1v2l-22 12-17 10-2-1 3-3 24-14z" fill="#396AF7"/>
<path transform="translate(912,571)" d="m0 0 9 1 32 8 7 1 3 3-10-1-41-10z" fill="#336DF6"/>
<path transform="translate(1634,661)" d="m0 0h16l5 1v1l-16 3-10 2-6 3-2-1 4-3h2v-2l2-2v-1z" fill="#609DF6"/>
<path transform="translate(1e3 453)" d="m0 0 3 1-13 8-25 14-9 5v-3l27-15z" fill="#3A6BF7"/>
<path transform="translate(1439,764)" d="m0 0m-1 1m-2 0 2 2-3 3-9 6-2 2-4-4-1-2-2-1 9-3z" fill="#EEF5FC"/>
<path transform="translate(586,557)" d="m0 0h6l2 3-1 8-1 1-7-1-1-2v-6z" fill="#4170F8"/>
<path transform="translate(495,501)" d="m0 0 4 1 1 3 10 3 24 5 12 2 1 2-12-1-25-5-12-3v-5l-3-1z" fill="#3361F8"/>
<path transform="translate(606,955)" d="m0 0 2 2v3h2v6l6 7 8 5v1l-7-1-9-6-2-3z" fill="#336BF6"/>
<path transform="translate(913,506)" d="m0 0m-2 1 3 1-5 4-25 14-9 5-3-1 17-10z" fill="#3C6DF7"/>
<path transform="translate(1245,248)" d="m0 0 2 1-13 9-11 6-14 8-11 5v-2l25-14 20-12z" fill="#3969F7"/>
<path transform="translate(1648,865)" d="m0 0 1 2-1 3 2 1-1 2-11 6-5 2h-4l2-4 12-7 4-2z" fill="#F0F7FC"/>
<path transform="translate(915,519)" d="m0 0v3l-28 16-12 7-3-1 8-5 26-15z" fill="#396AF7"/>
<path transform="translate(1607,834)" d="m0 0h21l-2 2 1 2-17 1-9 2 4-4-2-2z" fill="#64A0F7"/>
<path transform="translate(775,543)" d="m0 0 4 4 1 4h-2l-1 5-5 1-2-4v-6l3-3z" fill="#F9FBFD"/>
<path transform="translate(1036,912)" d="m0 0 1 2 3-1 9 5 4 3h3l-1 3-4 1-5-2-11-7z" fill="#F0F7FC"/>
<path transform="translate(671,1072)" d="m0 0 9 3 7 10 4 3-1 2-8-6-2-5-2-1h-13l-2-2z" fill="#F4FEFF"/>
<path transform="translate(617,917)" d="m0 0 4 2-1 2-10 4-5 4-3 7h-1v-7l4-6 5-4h7z" fill="#3870F6"/>
<path transform="translate(913,876)" d="m0 0 5 2 5 7 4 7-1 2-1-3h-3l-5-5-7-4v-4z" fill="#C2DAFC"/>
<path transform="translate(1149,429)" d="m0 0m-2 1h2l-1 3-25 14-7 4-2-1 8-6z" fill="#3868F7"/>
<path transform="translate(1150,411)" d="m0 0m-2 1 2 1-4 4-28 16-2-1 6-5 23-13z" fill="#3868F7"/>
<path transform="translate(677,958)" d="m0 0h1v7l-7 8-1 1h-5l1-5 6-5z" fill="#F0F7FC"/>
<path transform="translate(1539,470)" d="m0 0 9 1 21 4-2 1v2l-8-1-18-3z" fill="#487AF8"/>
<path transform="translate(1145,476)" d="m0 0h3v2l-35 20-2-1 3-3 25-14z" fill="#396AF7"/>
<path transform="translate(1494,470)" d="m0 0 7 1 4 9v2h3v2l2 1h-7l-4-5-5-8z" fill="#3468F7"/>
<path transform="translate(1191,365)" d="m0 0 3 1-9 6-27 15h-2v-2l23-13z" fill="#3B6DF7"/>
<path transform="translate(958,571)" d="m0 0 15 4 2 5h-8l-7-3-2-2z" fill="#3667F7"/>
<path transform="translate(572,528)" d="m0 0 8 1 3 4-1 10h-2l-6-10z" fill="#3782F3"/>
<path transform="translate(658,1080)" d="m0 0 14 1 5 7-1 2-6-3-8-2-4-3z" fill="#F4FEFF"/>
<path transform="translate(698,885)" d="m0 0 2 4 1 22h3v4l-6 3z" fill="#7AB0FB"/>
<path transform="translate(1169,876)" d="m0 0 5 1 4 6 5 5-6 2h-4l-1-4v-6l-5-2z" fill="#F4FEFF"/>
<path transform="translate(1566,358)" d="m0 0 2 1-9 7-18 10-4 1 5-5 17-10z" fill="#3A6CF7"/>
<path transform="translate(931,558)" d="m0 0 9 3-3 3-3 1h-7l-2-4-8 1 4-2z" fill="#619DF6"/>
<path transform="translate(1306,630)" d="m0 0h6l3 5-6 1-1 2h-4l-4-1 1-4z" fill="#FCFCFC"/>
<path transform="translate(606,927)" d="m0 0v3l-1 4v17l-2 3-3-10v-11l2 1 3-6z" fill="#418CF4"/>
<path transform="translate(684,490)" d="m0 0h1l1 5 11 8-1 2-6-2h-5v14h-1z" fill="#609DF6"/>
<path transform="translate(661,978)" d="m0 0 3 1-1 5-7 5-4 1-1-4 3-3z" fill="#F0F7FC"/>
<path transform="translate(1082,428)" d="m0 0m-2 1h2l-1 3-29 16-4 1v-2l22-12z" fill="#3A6AF7"/>
<path transform="translate(933,566)" d="m0 0h5l-4 3-4 2-1 3-8-1-6-2v-2l15-2z" fill="#5D9BF6"/>
<path transform="translate(666,947)" d="m0 0h3l-1 5-4 5-5 3h-2v-5z" fill="#EAF3FC"/>
<path transform="translate(1668,702)" d="m0 0h1l1 9-7 7-1-2h-2l1-5 6-7z" fill="#F0F7FC"/>
<path transform="translate(826,512)" d="m0 0 2 1 1 3-4 4-9 3-2-4z" fill="#EAF7FE"/>
<path transform="translate(1115,448)" d="m0 0m-2 1 2 1v2l-23 13-4 2 1-4 18-10z" fill="#396AF7"/>
<path transform="translate(681,380)" d="m0 0 2 1-6 5-10 5-13 8-3-2 18-10z" fill="#4174F7"/>
<path transform="translate(860,1040)" d="m0 0 6 2 24 14 5 3v2l-5-2-14-8-16-10z" fill="#629EF6"/>
<path transform="translate(1143,517)" d="m0 0m-2 1h2l-1 3-10 6-14 8v-3l9-6z" fill="#3D6FF7"/>
<path transform="translate(1010,1015)" d="m0 0 5 1 5 6v3l-4 1-7-4v-5z" fill="#F4FDFE"/>
<path transform="translate(1130,797)" d="m0 0 5 1 14 9 9 5v2l-6-2-14-8-8-6z" fill="#C2DAFC"/>
<path transform="translate(1435,433)" d="m0 0h2l-2 4-2 2-5 2-7 5-5 2h-3v-2z" fill="#3C6DF7"/>
<path transform="translate(949,1092)" d="m0 0 5 1 22 13 1 3-6-2-22-14z" fill="#467DF7"/>
<path transform="translate(1607,686)" d="m0 0h1v17l1 9-4-4v-17z" fill="#3972F6"/>
<path transform="translate(669,397)" d="m0 0m-2 1h2v2l-26 15-2-1 5-4z" fill="#3361F8"/>
<path transform="translate(976,1107)" d="m0 0 6 2 17 10-1 2-6-2-15-9z" fill="#4890F4"/>
<path transform="translate(543,459)" d="m0 0h3v2l-10 6-9 5-5 2 2-4z" fill="#396AF7"/>
<path transform="translate(1512,389)" d="m0 0h1v38l-6-1 3-2h2v-11h-4v-6l4 1z" fill="#AFCFFB"/>
<path transform="translate(1283,226)" d="m0 0h2v4l-5 1-11 6-14 7v-2z" fill="#396EF6"/>
<path transform="translate(895,923)" d="m0 0 8 1v2l-12 6-2-1-1-3h2v-3z" fill="#C2DAFC"/>
<path transform="translate(540,521)" d="m0 0h8l21 5v1h-10l-15-3z" fill="#3D8AF3"/>
<path transform="translate(916,913)" d="m0 0 2 2 1 6v3l-6-3v2l-6-2 1-3z" fill="#C2DAFC"/>
<path transform="translate(1224,736)" d="m0 0 6 2 2 2-1 2h4v2l2 1 2 3-5-2-11-6-1-3z" fill="#FDFDFD"/>
<path transform="translate(961,582)" d="m0 0 12 2 8 2-2 3-11-2-10-2z" fill="#5095F5"/>
<path transform="translate(1146,852)" d="m0 0h2v2l6 2 1 3h-4v2l-6-2-6-3v-1l7-1z" fill="#F0F7FC"/>
<path transform="translate(1741,765)" d="m0 0h1v12l-1 2-4 1-1-5 3-8z" fill="#F0F7FC"/>
<path transform="translate(972,531)" d="m0 0m-2 1h2l-1 4-7 9-6 9 1-7 1-3 3-3z" fill="#3568F7"/>
<path transform="translate(968,538)" d="m0 0h1v7l-2 3h-2l-1 7-4-1v-5z" fill="#75ACFA"/>
<path transform="translate(649,533)" d="m0 0 13 2 5 1v3l-10-1-12-2z" fill="#4B7FF8"/>
<path transform="translate(1221,348)" d="m0 0h2v2l-23 13v-3l17-10z" fill="#396AF7"/>
<path transform="translate(1579,720)" d="m0 0 1 2-3 8-9-1 5-5z" fill="#F0F7FC"/>
<path transform="translate(518,518)" d="m0 0 11 1 16 3-1 2-16-2-10-2z" fill="#3C6DF7"/>
<path transform="translate(1052,467)" d="m0 0 2 1-1 2v15l-4 1v-16z" fill="#4174F7"/>
<path transform="translate(618,416)" d="m0 0 2 1-1 3-16 8-6 2v-2l20-11z" fill="#3666F7"/>
<path transform="translate(977,868)" d="m0 0 4 1-20 12-2-1 6-5z" fill="#C2DAFC"/>
<path transform="translate(1239,561)" d="m0 0h2l-2 5-1 2-9 3v-2l-2-1z" fill="#E9F2FC"/>
<path transform="translate(624,914)" d="m0 0h17l4 1v2l6 2v2l-6-1-7-3v-2h-14z" fill="#77AEFA"/>
<path transform="translate(937,577)" d="m0 0 11 2 12 2 3 3-10-1-16-4z" fill="#366BF7"/>
<path transform="translate(1052,990)" d="m0 0 6 2v3l-9 2-4-1v-2z" fill="#F4FDFE"/>
<path transform="translate(1176,597)" d="m0 0 2 1-5 6-4 3h-8l5-4z" fill="#E2F1FD"/>
<path transform="translate(982,904)" d="m0 0 5 2 6 3-3 3-6 2-1-8z" fill="#F0F7FC"/>
<path transform="translate(1641,661)" d="m0 0h9l5 1v1l-9 2h-10l-4-2h9z" fill="#7AB0FB"/>
<path transform="translate(980,594)" d="m0 0 9 1 12 3-4 1-15-2-13-1v-1z" fill="#72AAF9"/>
<path transform="translate(1206,580)" d="m0 0h2v2l-13 9-3-1v-2z" fill="#E3F2FD"/>
<path transform="translate(568,528)" d="m0 0 5 1 6 11 2 5h-3l-8-14v-2z" fill="#E0F0FD"/>
<path transform="translate(692,920)" d="m0 0h1l2 20-2 2-2-6v-12z" fill="#F4FEFF"/>
<path transform="translate(715,902)" d="m0 0h9l-4 4-5 3-3-1 1-4z" fill="#7AB0FB"/>
<path transform="translate(1691,762)" d="m0 0h3v5l-2 4-1 7h-2v-11z" fill="#3F73F7"/>
<path transform="translate(964,530)" d="m0 0 2 1-7 11-2 6v3l-2-1-1-6z" fill="#619EF6"/>
<path transform="translate(1173,460)" d="m0 0h2l-1 3-15 8-3-1 13-8z" fill="#3969F7"/>
<path transform="translate(548,456)" d="m0 0 5 1 13 6-3 1h-8l2-1-3-3-7-1z" fill="#3564F7"/>
<path transform="translate(599,968)" d="m0 0h1l3 13 1 5-5-5-1-2v-10z" fill="#367EF4"/>
<path transform="translate(1587,853)" d="m0 0h1l1 15 2 5-4-2-2-3v-7z" fill="#3773F6"/>
<path transform="translate(628,964)" d="m0 0h14v1h13l-4 2h-18l-5-1z" fill="#609DF6"/>
<path transform="translate(1461,674)" d="m0 0 3 1v2l5-1 2 5-5-1-4 4h-5l5-4z" fill="#C2DAFC"/>
<path transform="translate(1132,506)" d="m0 0m-2 1h2l-1 3-14 8-2-1 3-3z" fill="#3767F7"/>
<path transform="translate(913,506)" d="m0 0m-2 1 3 1-5 4-13 7 1-4z" fill="#3A6BF7"/>
<path transform="translate(1255,550)" d="m0 0 2 1-13 8-7 4-2-1 5-4 11-6z" fill="#7AB0FB"/>
<path transform="translate(1584,430)" d="m0 0h1l1 12 4 3-1 3h-4v5h-1z" fill="#5F9CF6"/>
<path transform="translate(1098,441)" d="m0 0m-2 1h2l-1 3-14 8-2-1 8-6z" fill="#3867F7"/>
<path transform="translate(1015,592)" d="m0 0 5 3v2l-11-1-2-1v-2z" fill="#4476F8"/>
<path transform="translate(1192,821)" d="m0 0 6 2 1 4-3 1-7-3 1-3z" fill="#CDE1FC"/>
<path transform="translate(1062,524)" d="m0 0m-2 1 3 1-5 4-8 4h-3v-2z" fill="#4477F7"/>
<path transform="translate(1078,515)" d="m0 0m-2 1 3 1-4 3-11 6-2-1 5-4z" fill="#3D6FF7"/>
<path transform="translate(1539,470)" d="m0 0 9 1 5 1-2 1v2l-10-1z" fill="#4C80F8"/>
<path transform="translate(1509,412)" d="m0 0 3 1v11l-7 1 4-2 1-5-2-2-6-1v-1z" fill="#E6F1FC"/>
<path transform="translate(1204,825)" d="m0 0 7 4v2h-3l-1 2-5-1v-3z" fill="#E8F2FC"/>
<path transform="translate(621,424)" d="m0 0m-2 1 3 1-3 3-8 4-4-1h2v-2z" fill="#3371F5"/>
<path transform="translate(1069,927)" d="m0 0 5 1 2 2-6 2h-8l5-4z" fill="#F1F9FD"/>
<path transform="translate(1023,921)" d="m0 0h7v5l-4 1-3-2z" fill="#F4FEFF"/>
<path transform="translate(1613,676)" d="m0 0 1 3-5 13h-1l-1-7 1-4h3z" fill="#3683F3"/>
<path transform="translate(810,494)" d="m0 0h9l-3 3-10 5 2-5z" fill="#72AAF9"/>
<path transform="translate(812,520)" d="m0 0h3l2 2 5-1-1 3-7 2-2-1z" fill="#F9FBFC"/>
<path transform="translate(1619,489)" d="m0 0h9l4 2-2 1h-14l3-1z" fill="#E7F1FC"/>
<path transform="translate(971,890)" d="m0 0h2l1 8-7-2-1-4z" fill="#C4DBFC"/>
<path transform="translate(1581,731)" d="m0 0 5 1 5 4v2l-3 1-3-2v-2l-4-2z" fill="#F0F7FC"/>
<path transform="translate(1625,663)" d="m0 0h5l-1 2h-2v2l-5 3-3-1v-3z" fill="#3B89F3"/>
<path transform="translate(735,559)" d="m0 0h10l-5 4-6 2z" fill="#3F71F7"/>
<path transform="translate(930,510)" d="m0 0m-2 1 3 1-5 4-10 5v-3z" fill="#3C6EF7"/>
<path transform="translate(704,408)" d="m0 0 3 4 5 11-1 2-6-11-2-1z" fill="#70A9F9"/>
<path transform="translate(860,1040)" d="m0 0 6 2 12 7v2l-6-2-12-8z" fill="#639FF7"/>
<path transform="translate(1125,914)" d="m0 0h9l1 2-9 3h-3z" fill="#F4FEFF"/>
<path transform="translate(848,782)" d="m0 0h7l3 2-1 1-19-1v-1z" fill="#ECF7FD"/>
<path transform="translate(927,498)" d="m0 0m-2 1h2l-1 3-11 6-2-1 5-4z" fill="#3666F7"/>
<path transform="translate(974,712)" d="m0 0 3 1-15 9-3-1z" fill="#639FF7"/>
<path transform="translate(1145,476)" d="m0 0h3v2l-12 7-1-3z" fill="#4173F7"/>
<path transform="translate(1214,266)" d="m0 0m-2 1h2v2l-16 8v-2z" fill="#3B6FF7"/>
<path transform="translate(622,1060)" d="m0 0h1v9l-4 1v-2l-2-1 1-2h2v-2h2z" fill="#E7F3FD"/>
<path transform="translate(1139,886)" d="m0 0 4 1-9 5h-2l-1 2-2-3 5-1v-2z" fill="#F0F7FC"/>
<path transform="translate(1266,779)" d="m0 0 4 1 3 2v2h-6l-3-2v-2z" fill="#F4FEFF"/>
<path transform="translate(496,486)" d="m0 0 2 1-2 3-10 5-3-1z" fill="#3D6DF7"/>
<path transform="translate(1410,448)" d="m0 0h2v2l-4 2-1 3h-7l4-4z" fill="#3F70F8"/>
<path transform="translate(632,1071)" d="m0 0 5 2 6 4v1l-9-1-1-4z" fill="#7AB0FB"/>
<path transform="translate(1458,692)" d="m0 0 2 1 3 6h-5l-3-3-2 1v-3h4z" fill="#C2DAFC"/>
<path transform="translate(1068,315)" d="m0 0 2 1-4 4-6 4-2-1 5-5z" fill="#C2DAFC"/>
<path transform="translate(627,1062)" d="m0 0 4 4 10 3-4 1-5-2-1 3-4-6z" fill="#74ABF9"/>
<path transform="translate(1143,517)" d="m0 0m-2 1h2l-1 3-9 5-2-1 8-6z" fill="#3767F7"/>
<path transform="translate(485,513)" d="m0 0h11l1 3-12-1z" fill="#3D72F7"/>
<path transform="translate(1191,450)" d="m0 0h2l-1 3-10 5h-2v-2z" fill="#3565F7"/>
<path transform="translate(1149,429)" d="m0 0m-2 1h2l-1 3-9 5-2-1 8-6z" fill="#3565F7"/>
<path transform="translate(1529,386)" d="m0 0m-1 1m-2 1h2v3l-3 2h-4v2h-2v-3z" fill="#3366F7"/>
<path transform="translate(966,1101)" d="m0 0 5 2 5 3 1 3-6-2-5-4z" fill="#4587F5"/>
<path transform="translate(606,955)" d="m0 0 2 2v3h2l-1 6-3 3z" fill="#3586F3"/>
<path transform="translate(1245,248)" d="m0 0 2 1-13 9-2-1 7-6z" fill="#3767F7"/>
<path transform="translate(972,570)" d="m0 0h5v7h-2v-2l-5-2z" fill="#78ACF8"/>
<path transform="translate(739,554)" d="m0 0h8l7 1v1h-5v2l-4-1-6-2z" fill="#E1EDFB"/>
<path transform="translate(703,544)" d="m0 0 11 1v3l-11-2z" fill="#3E6FF7"/>
<path transform="translate(1142,500)" d="m0 0m-2 1 2 1v2l-10 5 1-4z" fill="#3D70F7"/>
<path transform="translate(531,466)" d="m0 0 2 1-3 4-6 3-2-1 4-4z" fill="#3868F7"/>
<path transform="translate(1082,428)" d="m0 0m-2 1h2l-1 3-10 5v-3z" fill="#3D70F7"/>
<path transform="translate(1159,406)" d="m0 0m-2 1 5 1-4 2-7 4-2-1z" fill="#3C6DF8"/>
<path transform="translate(661,391)" d="m0 0 1 3-8 5-3-2z" fill="#4188F4"/>
<path transform="translate(990,865)" d="m0 0h6l-2 4-4 1-2-2z" fill="#C2DAFC"/>
<path transform="translate(1438,788)" d="m0 0 4 1-1 4h-3l-5-1z" fill="#EEF5FC"/>
<path transform="translate(718,701)" d="m0 0 1 4-5 7-2-1 4-8z" fill="#C2DAFC"/>
<path transform="translate(740,562)" d="m0 0 2 1-7 6-4-2z" fill="#DDEBFB"/>
<path transform="translate(813,537)" d="m0 0 2 3-1 9-3-4 1-5z" fill="#F4FEFF"/>
<path transform="translate(1114,516)" d="m0 0 2 1v2l-10 5 1-4z" fill="#4173F7"/>
<path transform="translate(1098,458)" d="m0 0m-2 1 2 1-4 4-6 3 1-4z" fill="#3C6EF7"/>
<path transform="translate(1e3 453)" d="m0 0 3 1-11 7-1-3z" fill="#3E70F7"/>
<path transform="translate(1082,450)" d="m0 0m-2 1 2 1-4 4-6 3 1-4z" fill="#3C6EF7"/>
</svg>
