<?xml version="1.0" standalone="no"?>
<!DOCTYPE svg PUBLIC "-//W3C//DTD SVG 20010904//EN"
 "http://www.w3.org/TR/2001/REC-SVG-20010904/DTD/svg10.dtd">
<svg version="1.0" xmlns="http://www.w3.org/2000/svg"
 width="736.000000pt" height="552.000000pt" viewBox="0 0 736.000000 552.000000"
 preserveAspectRatio="xMidYMid meet">

<g transform="translate(0.000000,552.000000) scale(0.100000,-0.100000)"
fill="#000000" stroke="none">
<path d="M4557 4669 c-34 -18 -37 -22 -25 -37 12 -16 11 -16 -6 -2 -15 11 -20
12 -23 3 -3 -7 -10 -13 -18 -13 -7 0 -56 -26 -110 -57 -53 -32 -119 -70 -147
-85 -62 -33 -66 -37 -48 -48 8 -6 10 -10 4 -10 -16 0 -26 -28 -13 -35 5 -4 8
-1 7 6 -2 6 3 14 11 17 8 3 11 0 7 -7 -5 -7 -1 -9 9 -4 13 5 14 7 3 14 -10 7
-10 9 1 9 11 0 10 4 -5 16 -17 14 -17 15 -1 10 10 -3 21 -6 23 -6 2 0 4 -7 4
-15 0 -11 7 -10 35 6 19 12 33 25 30 29 -3 5 3 8 12 8 17 -2 183 88 183 98 0
3 -4 3 -9 -1 -5 -3 -12 -1 -16 4 -3 6 5 8 17 6 27 -5 103 36 103 55 0 7 -7 16
-15 18 -13 5 -13 3 0 -13 14 -17 14 -18 -9 -6 -19 10 -21 15 -10 22 19 12 25
11 43 -7 15 -14 16 -13 16 15 0 36 -3 37 -53 10z m-35 -64 c0 -5 -5 -11 -10
-13 -5 -1 -9 4 -9 13 0 9 4 14 9 13 5 -2 10 -8 10 -13z m-32 -4 c0 -5 -12 -11
-27 -14 -26 -5 -26 -4 -8 9 22 16 35 18 35 5z m-47 -34 c16 -11 14 -14 -20
-32 -21 -10 -49 -27 -63 -36 -14 -9 -31 -14 -39 -11 -8 2 -11 1 -8 -4 3 -5 -6
-10 -19 -10 -35 -3 -19 14 21 22 20 3 38 11 42 17 4 6 -4 8 -23 3 -26 -6 -25
-4 11 18 42 26 63 27 29 1 -28 -21 -5 -17 36 6 21 12 26 17 13 14 -22 -6 -31
4 -16 18 9 10 17 9 36 -6z m-177 -122 c-14 -8 -26 -8 -38 -1 -15 9 -15 11 -1
21 11 9 22 9 38 1 l23 -10 -22 -11z"/>
<path d="M4238 4453 c7 -3 16 -2 19 1 4 3 -2 6 -13 5 -11 0 -14 -3 -6 -6z"/>
<path d="M4145 4429 c-10 -15 3 -25 16 -12 7 7 7 13 1 17 -6 3 -14 1 -17 -5z"/>
<path d="M4110 4400 c0 -5 5 -10 10 -10 6 0 10 5 10 10 0 6 -4 10 -10 10 -5 0
-10 -4 -10 -10z"/>
<path d="M4084 4385 c3 -8 2 -14 -2 -14 -4 1 -16 1 -27 0 l-20 -2 20 -15 c11
-8 19 -19 18 -24 -2 -5 17 3 41 17 48 29 52 43 11 35 -15 -2 -25 0 -25 7 0 6
-5 11 -11 11 -6 0 -9 -7 -5 -15z m19 -30 c-10 -7 -21 -11 -25 -9 -16 10 -7 19
18 20 23 2 24 1 7 -11z"/>
<path d="M3990 4343 c-14 -9 -35 -26 -48 -37 -13 -12 -26 -19 -29 -17 -7 5
-155 -81 -149 -87 3 -3 12 0 19 7 14 11 47 6 47 -8 -1 -3 -17 -16 -37 -29 -24
-15 -32 -18 -23 -7 12 14 12 18 -1 26 -17 11 -35 6 -32 -9 2 -6 -4 -9 -12 -6
-19 8 -47 -14 -38 -29 4 -6 0 -8 -10 -4 -9 3 -48 -12 -94 -39 -42 -24 -82 -44
-88 -44 -5 0 -3 -5 5 -10 19 -12 33 -13 25 -1 -7 12 32 34 45 26 6 -3 16 -3
22 1 20 13 51 13 38 0 -5 -5 -27 -11 -48 -12 -56 -2 -57 -3 -36 -19 18 -15 18
-15 0 -8 -12 4 -17 3 -13 -4 7 -10 -33 -27 -42 -18 -2 3 1 5 7 5 7 0 12 4 12
10 0 23 -65 -3 -195 -79 -153 -90 -162 -96 -125 -87 14 3 19 3 12 0 -10 -5
-10 -9 -1 -20 8 -10 3 -9 -21 3 -18 8 -35 12 -39 7 -3 -5 -23 -18 -43 -29 -40
-21 -46 -30 -25 -39 6 -3 1 -3 -13 -1 -16 3 -40 -4 -65 -19 -22 -14 -60 -35
-85 -49 -81 -43 -131 -78 -125 -87 3 -4 -1 -15 -9 -23 -8 -8 -12 -18 -8 -21 3
-4 14 3 24 16 14 18 17 19 12 4 -6 -15 3 -13 54 15 33 19 58 38 55 43 -4 5 -1
6 6 2 14 -9 153 78 143 89 -4 5 -2 5 4 2 17 -10 96 31 88 45 -5 8 -1 9 10 5 9
-4 14 -3 11 2 -3 5 -1 12 5 16 5 3 10 1 10 -4 0 -8 7 -7 19 1 11 7 18 16 15
20 -3 4 2 5 10 2 9 -3 16 -1 16 5 0 6 7 11 15 11 8 0 15 5 15 11 0 5 5 7 12 3
7 -4 8 -3 4 4 -4 6 4 16 16 23 22 12 22 11 8 -6 -14 -17 -14 -18 8 -6 26 14
29 41 5 41 -17 1 -16 2 1 15 10 8 23 12 28 9 6 -4 21 -1 34 7 18 9 21 15 12
22 -9 6 -6 7 9 4 17 -4 20 -1 16 12 -5 13 -3 14 8 4 18 -17 34 -17 20 0 -6 8
-8 17 -4 20 12 13 20 7 19 -14 -1 -25 -81 -72 -108 -65 -10 2 -18 0 -18 -5 0
-5 5 -9 11 -9 5 0 7 -4 4 -10 -3 -6 1 -7 9 -4 9 3 16 10 16 15 0 5 5 9 11 9 6
0 37 15 68 33 31 19 91 53 134 77 48 27 76 49 73 57 -3 7 4 19 15 27 14 9 16
15 8 18 -9 3 -7 7 5 11 11 4 15 3 10 -4 -4 -8 1 -9 17 -4 19 5 21 4 9 -4 -13
-9 -12 -11 3 -11 26 0 177 92 170 104 -4 5 1 7 11 3 11 -4 15 -3 11 4 -4 6 -1
9 7 7 8 -2 37 9 65 25 51 27 62 49 32 68 -18 11 -19 11 -49 -8z m53 -23 c7 0
4 -5 -6 -11 -13 -8 -22 -7 -34 3 -15 11 -16 11 -10 -4 7 -21 -26 -43 -50 -34
-11 5 -7 12 17 32 23 20 34 24 43 15 16 -16 26 -14 22 7 -1 9 0 11 2 5 3 -7
10 -13 16 -13z m-117 -52 c4 -6 3 -8 -4 -4 -6 3 -13 2 -17 -4 -3 -5 -14 -10
-23 -10 -13 0 -13 2 4 15 23 18 31 18 40 3z m-41 -38 c-13 -22 -40 -28 -54
-13 -12 13 -11 14 7 9 11 -4 23 -2 27 4 3 5 11 10 16 10 6 0 7 -4 4 -10z
m-215 -100 c0 -5 -7 -10 -16 -10 -8 0 -12 5 -9 10 3 6 10 10 16 10 5 0 9 -4 9
-10z m-33 -26 c-3 -3 -12 -4 -19 -1 -8 3 -5 6 6 6 11 1 17 -2 13 -5z m33 2 c0
-3 -4 -8 -10 -11 -5 -3 -10 -1 -10 4 0 6 5 11 10 11 6 0 10 -2 10 -4z m-75
-16 c-3 -5 -12 -10 -18 -10 -7 0 -6 4 3 10 19 12 23 12 15 0z m-297 -184 c-7
-7 -19 -11 -26 -8 -11 4 -11 6 0 13 7 5 19 9 26 9 10 0 10 -3 0 -14z m-34 -24
c2 -4 -4 -9 -15 -9 -10 -1 -19 2 -19 8 0 11 27 12 34 1z m-110 -57 c-7 -17 -7
-17 -31 -8 -16 6 -15 8 7 14 14 4 26 7 27 8 1 1 0 -6 -3 -14z m-9 -24 c6 -1 2
-6 -7 -12 -12 -7 -24 -6 -38 1 -28 15 -25 22 8 16 15 -2 32 -5 37 -5z m-101
-48 c4 -10 4 -14 0 -11 -3 4 -18 -4 -32 -17 -14 -13 -28 -22 -32 -19 -3 3 2
11 11 17 9 7 14 18 12 25 -3 8 1 10 13 5 12 -4 15 -3 10 5 -4 7 -3 12 2 12 6
0 13 -8 16 -17z m-54 -12 c0 -5 -9 -13 -20 -16 -23 -7 -26 -21 -7 -29 6 -3 2
-3 -10 0 -13 3 -23 1 -23 -5 0 -6 -7 -8 -16 -4 -12 4 -8 10 18 27 18 11 35 24
36 28 5 11 22 10 22 -1z m-101 -72 c-12 -7 -12 -9 0 -9 8 0 12 -3 8 -6 -10
-10 -26 6 -21 21 4 8 11 12 16 9 6 -4 5 -10 -3 -15z m-27 -34 c-3 -5 -7 -4
-10 3 -2 7 -8 12 -14 12 -6 0 -7 -7 -4 -16 5 -12 2 -15 -10 -10 -8 3 -21 6
-27 6 -7 0 1 8 18 18 21 13 33 15 41 8 7 -6 9 -15 6 -21z"/>
<path d="M3960 4290 c-8 -5 -10 -10 -5 -10 6 0 17 5 25 10 8 5 11 10 5 10 -5
0 -17 -5 -25 -10z"/>
<path d="M4355 4250 c-3 -6 1 -7 9 -4 18 7 21 14 7 14 -6 0 -13 -4 -16 -10z"/>
<path d="M5030 4207 c0 -9 14 -17 39 -21 22 -3 46 -9 55 -12 10 -4 16 -1 16 9
0 17 -12 22 -72 33 -30 5 -38 3 -38 -9z"/>
<path d="M5585 4180 c-39 -22 -76 -37 -83 -35 -7 3 -10 0 -7 -5 4 -6 -8 -13
-25 -16 l-31 -7 3 -71 c3 -62 5 -71 21 -69 13 1 17 -4 12 -14 -16 -42 70 -92
134 -78 15 3 40 1 54 -4 l27 -11 0 55 c0 64 -22 91 -79 101 -20 3 -49 8 -66
10 -23 4 -26 3 -15 -5 13 -9 13 -11 -2 -11 -21 0 -32 16 -18 25 7 5 5 12 -7
20 -16 12 -19 10 -24 -28 -6 -40 -7 -40 -6 12 1 59 3 61 127 126 66 35 64 34
59 39 -2 3 -36 -13 -74 -34z m-58 -202 c-3 -7 -5 -2 -5 12 0 14 2 19 5 13 2
-7 2 -19 0 -25z m33 -18 c0 -5 -2 -10 -4 -10 -3 0 -8 5 -11 10 -3 6 -1 10 4
10 6 0 11 -4 11 -10z"/>
<path d="M3785 4200 c-3 -5 1 -10 9 -10 9 0 16 5 16 10 0 6 -4 10 -9 10 -6 0
-13 -4 -16 -10z"/>
<path d="M4890 4179 c-45 -28 -45 -28 -34 -39 11 -11 104 34 104 51 0 16 -34
10 -70 -12z"/>
<path d="M5670 4196 c0 -2 7 -7 16 -10 8 -3 12 -2 9 4 -6 10 -25 14 -25 6z"/>
<path d="M4308 4143 c-74 -46 -103 -82 -81 -104 4 -4 45 13 90 39 76 44 82 49
83 80 0 17 -3 32 -7 32 -5 -1 -43 -22 -85 -47z"/>
<path d="M5200 4147 c0 -15 87 -60 101 -51 14 8 2 22 -41 44 -46 23 -60 25
-60 7z"/>
<path d="M3703 4133 c-7 -2 -13 -11 -13 -19 0 -11 5 -11 25 -2 34 15 22 35
-12 21z"/>
<path d="M5760 4114 c0 -6 7 -19 16 -30 14 -18 14 -18 3 6 -14 31 -19 36 -19
24z"/>
<path d="M4740 4084 c-33 -23 -45 -43 -27 -44 17 -2 87 45 87 57 0 19 -21 15
-60 -13z"/>
<path d="M2380 4081 c-60 -43 -219 -119 -224 -108 -2 7 -5 -25 -5 -71 -1 -70
2 -85 19 -99 11 -10 20 -27 20 -39 0 -26 52 -73 83 -76 12 -1 49 -2 82 -3 33
-1 70 -5 83 -9 21 -8 22 -6 22 57 0 59 -3 69 -27 91 -28 26 -93 42 -138 34
-13 -3 -22 -2 -20 2 3 4 -4 15 -15 25 -11 10 -20 14 -20 9 0 -5 -7 2 -16 14
-21 30 -32 28 -27 -5 3 -25 2 -26 -6 -6 -18 40 -2 58 106 122 97 57 108 61
134 51 15 -7 34 -10 41 -7 8 4 6 6 -5 6 -10 1 -28 7 -40 15 -19 13 -25 13 -47
-3z m-163 -228 c-3 -10 -5 -4 -5 12 0 17 2 24 5 18 2 -7 2 -21 0 -30z m43 23
c0 -3 -4 -8 -10 -11 -5 -3 -10 -1 -10 4 0 6 5 11 10 11 6 0 10 -2 10 -4z m-63
-58 c-3 -8 -6 -5 -6 6 -1 11 2 17 5 13 3 -3 4 -12 1 -19z m43 2 c0 -5 -4 -10
-10 -10 -5 0 -10 5 -10 10 0 6 5 10 10 10 6 0 10 -4 10 -10z m0 -42 c0 -6 -6
-5 -15 2 -8 7 -15 14 -15 16 0 2 7 1 15 -2 8 -4 15 -11 15 -16z m44 7 c3 -8 1
-15 -4 -15 -6 0 -10 7 -10 15 0 8 2 15 4 15 2 0 6 -7 10 -15z"/>
<path d="M5366 4072 c-11 -10 -6 -19 19 -30 24 -11 42 -2 31 17 -7 11 -43 21
-50 13z"/>
<path d="M2490 4061 c0 -6 4 -13 10 -16 6 -3 7 1 4 9 -7 18 -14 21 -14 7z"/>
<path d="M4103 4024 c-35 -19 -63 -37 -63 -40 0 -3 30 12 68 32 76 43 79 44
66 44 -5 0 -37 -16 -71 -36z"/>
<path d="M5292 4033 c-6 -3 -10 -8 -7 -13 3 -4 -3 -7 -13 -6 -9 0 -16 -5 -14
-12 1 -8 -2 -11 -7 -8 -9 6 -195 -93 -188 -100 2 -3 17 -7 33 -9 16 -3 52 -9
79 -15 50 -10 238 -23 200 -14 -57 14 -85 27 -85 37 0 7 11 25 25 41 14 16 25
33 25 38 0 4 7 8 16 8 15 0 15 2 2 22 -16 23 -46 38 -66 31z m10 -65 c-7 -7
-12 -8 -12 -2 0 14 12 26 19 19 2 -3 -1 -11 -7 -17z m-52 -18 c0 -5 -7 -10
-16 -10 -8 0 -12 5 -9 10 3 6 10 10 16 10 5 0 9 -4 9 -10z m-10 -30 c-8 -5
-22 -10 -30 -10 -13 0 -13 1 0 10 8 5 22 10 30 10 13 0 13 -1 0 -10z m-113
-16 c-3 -3 -12 -4 -19 -1 -8 3 -5 6 6 6 11 1 17 -2 13 -5z"/>
<path d="M4159 3993 c-13 -16 -12 -17 4 -4 9 7 17 15 17 17 0 8 -8 3 -21 -13z"/>
<path d="M2540 3975 c0 -5 5 -17 10 -25 5 -8 10 -10 10 -5 0 6 -5 17 -10 25
-5 8 -10 11 -10 5z"/>
<path d="M4088 3954 c-38 -20 -36 -28 2 -9 17 9 30 18 30 20 0 7 -1 6 -32 -11z"/>
<path d="M3903 3908 c-40 -23 -71 -43 -69 -45 3 -3 132 69 143 81 13 13 -5 4
-74 -36z"/>
<path d="M2566 3917 c3 -10 9 -15 12 -12 3 3 0 11 -7 18 -10 9 -11 8 -5 -6z"/>
<path d="M4018 3914 c-38 -20 -36 -28 2 -9 17 9 30 18 30 20 0 7 -1 6 -32 -11z"/>
<path d="M3948 3874 c-38 -20 -36 -28 2 -9 17 9 30 18 30 20 0 7 -1 6 -32 -11z"/>
<path d="M4312 3841 c-34 -21 -67 -42 -73 -48 -14 -14 -21 -63 -9 -63 6 0 47
21 90 46 71 41 80 49 80 75 0 37 -11 36 -88 -10z"/>
<path d="M1938 3854 c-16 -8 -28 -20 -28 -26 0 -6 -3 -9 -6 -5 -5 5 -111 -48
-124 -62 -3 -4 -27 -18 -55 -33 -71 -38 -67 -44 41 -50 29 -2 50 -6 47 -10 -4
-8 50 -13 107 -11 14 0 56 -4 93 -9 93 -13 95 -4 3 17 -42 9 -78 20 -81 25 -3
5 -11 8 -18 6 -7 -1 -9 -1 -4 1 16 10 6 33 -15 34 -22 0 -22 1 -3 8 20 8 49
-15 39 -31 -7 -11 4 -10 27 2 10 6 19 17 19 25 0 8 4 15 9 15 11 0 23 29 16
40 -3 5 -26 3 -50 -5 -34 -10 -47 -10 -52 -2 -3 7 -3 9 2 5 4 -4 25 2 47 13
22 11 49 18 60 16 19 -5 19 -5 2 14 -20 22 -3 26 20 4 8 -8 17 -11 20 -7 5 9
-56 42 -77 42 -7 -1 -24 -8 -39 -16z m42 2 c0 -2 -7 -7 -16 -10 -8 -3 -12 -2
-9 4 6 10 25 14 25 6z m-210 -156 c-8 -5 -22 -10 -30 -10 -13 0 -13 1 0 10 8
5 22 10 30 10 13 0 13 -1 0 -10z"/>
<path d="M3789 3839 l-24 -20 28 17 c15 9 27 18 27 20 0 8 -8 4 -31 -17z"/>
<path d="M3853 3819 c-29 -17 -53 -33 -53 -36 0 -5 89 44 105 58 16 16 1 9
-52 -22z"/>
<path d="M5413 3843 c9 -2 23 -2 30 0 6 3 -1 5 -18 5 -16 0 -22 -2 -12 -5z"/>
<path d="M5478 3833 c7 -3 16 -2 19 1 4 3 -2 6 -13 5 -11 0 -14 -3 -6 -6z"/>
<path d="M5380 3821 c0 -4 7 -16 16 -27 15 -18 15 -18 10 0 -5 14 -2 17 9 12
9 -3 14 -2 11 3 -7 11 -46 21 -46 12z"/>
<path d="M3770 3790 c0 -11 4 -20 9 -20 5 0 7 9 4 20 -3 11 -7 20 -9 20 -2 0
-4 -9 -4 -20z"/>
<path d="M5788 3773 c7 -3 16 -2 19 1 4 3 -2 6 -13 5 -11 0 -14 -3 -6 -6z"/>
<path d="M4128 3736 c-55 -33 -60 -42 -8 -15 25 13 48 22 53 21 4 -1 7 3 7 8
0 14 -9 11 -52 -14z"/>
<path d="M4018 3672 c-26 -15 -48 -30 -48 -34 0 -4 23 6 50 23 28 17 50 33 50
35 0 6 0 6 -52 -24z"/>
<path d="M4140 3679 c-17 -13 -18 -17 -5 -10 33 17 51 31 40 31 -5 0 -21 -10
-35 -21z"/>
<path d="M3854 3654 c-18 -14 -18 -15 4 -4 12 6 22 13 22 15 0 8 -5 6 -26 -11z"/>
<path d="M4025 3614 c-33 -18 -55 -34 -50 -34 12 0 115 58 115 65 0 7 2 8 -65
-31z"/>
<path d="M2118 3633 c7 -3 16 -2 19 1 4 3 -2 6 -13 5 -11 0 -14 -3 -6 -6z"/>
<path d="M2168 3623 c7 -3 16 -2 19 1 4 3 -2 6 -13 5 -11 0 -14 -3 -6 -6z"/>
<path d="M2750 3620 c0 -5 5 -10 10 -10 6 0 10 5 10 10 0 6 -4 10 -10 10 -5 0
-10 -4 -10 -10z"/>
<path d="M2070 3611 c0 -5 9 -18 20 -31 11 -13 20 -19 20 -14 0 6 -6 16 -12
23 -11 10 -9 11 6 5 12 -5 17 -4 13 3 -8 13 -47 24 -47 14z"/>
<path d="M3898 3602 c-21 -13 -28 -25 -28 -49 0 -39 3 -40 41 -12 21 14 29 29
29 50 0 33 -4 34 -42 11z"/>
<path d="M3459 3568 c-19 -24 -33 -50 -33 -58 4 -37 18 -61 41 -66 31 -8 41 3
18 19 -10 8 -15 20 -12 28 4 10 6 9 6 -3 1 -18 21 -26 21 -9 0 14 -28 33 -40
26 -20 -13 -10 39 16 72 37 48 22 41 -17 -9z"/>
<path d="M3803 3547 c-27 -15 -33 -25 -33 -53 l0 -35 31 16 c34 18 42 32 37
67 l-3 24 -32 -19z"/>
<path d="M2100 3495 c0 -8 7 -15 15 -15 8 0 15 7 15 15 0 8 -7 15 -15 15 -8 0
-15 -7 -15 -15z"/>
<path d="M2557 3503 c-4 -3 -7 -19 -7 -34 l0 -28 56 32 56 32 -37 3 c-20 2
-44 -3 -53 -10 -12 -10 -14 -10 -8 0 8 13 4 16 -7 5z m72 -7 c-2 -2 -14 -9
-26 -15 -19 -10 -22 -9 -17 4 4 8 15 15 27 15 11 0 18 -2 16 -4z"/>
<path d="M3265 3485 c-5 -2 -23 -6 -39 -10 -23 -5 -27 -8 -15 -16 7 -5 23 -9
34 -9 17 0 17 2 5 10 -13 9 -13 10 1 10 8 0 19 -4 25 -9 5 -5 32 -11 59 -15
l50 -5 -40 13 c-40 13 -40 13 -15 24 23 10 22 11 -15 11 -22 -1 -44 -2 -50 -4z"/>
<path d="M3510 3460 c0 -27 42 -45 51 -21 8 20 -8 41 -32 41 -12 0 -19 -7 -19
-20z"/>
<path d="M2100 3355 c0 -42 3 -55 15 -55 12 0 15 13 15 55 0 42 -3 55 -15 55
-12 0 -15 -13 -15 -55z"/>
<path d="M3365 3192 l-220 -128 -3 -89 c-3 -90 6 -117 30 -98 13 11 124 75
318 186 58 33 108 64 111 69 4 6 5 24 4 42 -2 17 -3 57 -4 89 -1 31 -4 57 -8
57 -5 0 -107 -58 -228 -128z"/>
<path d="M2104 3216 c-9 -24 1 -99 14 -104 9 -3 12 13 12 57 0 57 -13 81 -26
47z"/>
<path d="M5848 3119 c-47 -18 -48 -67 -2 -88 55 -25 154 0 154 38 0 42 -93 73
-152 50z"/>
<path d="M5790 3089 c0 -5 5 -7 10 -4 6 3 10 8 10 11 0 2 -4 4 -10 4 -5 0 -10
-5 -10 -11z"/>
<path d="M2110 2985 c0 -30 5 -55 10 -55 6 0 10 25 10 55 0 30 -4 55 -10 55
-5 0 -10 -25 -10 -55z"/>
<path d="M5771 3024 c0 -11 3 -14 6 -6 3 7 2 16 -1 19 -3 4 -6 -2 -5 -13z"/>
<path d="M2115 2850 c-7 -12 56 -80 74 -80 20 0 11 20 -24 55 -38 38 -41 40
-50 25z"/>
<path d="M2308 2837 c-33 -19 -51 -47 -30 -47 15 1 86 45 90 58 6 18 -18 14
-60 -11z"/>
<path d="M6114 2816 c-47 -35 50 -85 100 -52 33 21 33 40 1 54 -35 16 -77 15
-101 -2z"/>
<path d="M5763 2503 c-13 -2 -23 -9 -23 -14 0 -6 -4 -7 -10 -4 -6 4 -10 -6
-10 -23 0 -40 53 -67 117 -59 55 6 78 26 69 61 -9 36 -72 53 -143 39z"/>
<path d="M5703 2435 c0 -22 2 -30 4 -17 2 12 2 30 0 40 -3 9 -5 -1 -4 -23z"/>
<path d="M2215 2212 c-5 -4 -15 -17 -22 -29 -10 -18 -9 -25 6 -45 16 -20 28
-23 81 -23 52 0 65 3 80 23 23 28 17 48 -21 67 -29 16 -107 20 -124 7z"/>
<path d="M2381 2080 c-13 -11 -33 -20 -45 -21 -11 0 -15 -3 -8 -6 18 -7 69 15
76 33 7 18 6 17 -23 -6z"/>
<path d="M2167 2084 c-11 -12 15 -62 39 -73 36 -16 40 -14 16 8 -12 10 -22 26
-22 35 0 9 -7 16 -16 16 -8 0 -12 5 -9 10 7 11 2 14 -8 4z"/>
<path d="M2303 1752 c-78 -8 -57 -72 23 -72 26 0 49 6 59 16 15 15 15 18 0 34
-19 21 -38 26 -82 22z"/>
</g>
</svg>
