<?xml version="1.0" standalone="no"?>
<!DOCTYPE svg PUBLIC "-//W3C//DTD SVG 20010904//EN"
 "http://www.w3.org/TR/2001/REC-SVG-20010904/DTD/svg10.dtd">
<svg version="1.0" xmlns="http://www.w3.org/2000/svg"
 width="300.000000pt" height="225.000000pt" viewBox="0 0 300.000000 225.000000"
 preserveAspectRatio="xMidYMid meet">
<metadata>
Created by potrace 1.10, written by Peter Selinger 2001-2011
</metadata>
<g transform="translate(0.000000,225.000000) scale(0.100000,-0.100000)"
fill="#000000" stroke="none">
<path d="M1695 1814 c-405 -237 -548 -317 -569 -319 -20 -3 -29 10 -66 94 -23
53 -45 99 -49 103 -3 3 -36 -11 -73 -33 -74 -44 -80 -57 -52 -112 20 -39 31
-47 65 -47 15 0 46 -7 69 -15 55 -19 61 -13 16 14 -19 12 -36 32 -38 44 -4 27
-58 39 -58 13 0 -9 3 -15 8 -15 25 4 34 -4 13 -12 -18 -7 -30 -5 -48 6 -28 18
-26 42 3 36 18 -3 18 -2 1 17 -19 20 -18 21 21 46 22 14 48 23 59 20 12 -3 35
-37 61 -90 26 -52 47 -82 53 -78 7 4 9 0 5 -14 -5 -14 -3 -20 6 -18 11 1 251
138 701 398 37 21 67 45 67 53 0 8 -3 15 -7 14 -5 0 -89 -48 -188 -105z"/>
<path d="M1894 1765 c0 -49 1 -71 3 -48 2 23 2 64 0 90 -2 26 -3 8 -3 -42z"/>
<path d="M2268 1712 c-42 -23 -48 -31 -48 -59 0 -42 30 -73 70 -73 17 0 45 -7
63 -16 l32 -15 -31 28 c-17 15 -34 36 -37 46 -4 10 -16 17 -30 17 -14 0 -30 6
-36 14 -9 11 -5 18 20 34 18 11 39 18 46 15 17 -7 97 -163 83 -163 -23 0 -195
32 -218 41 l-25 9 22 19 c21 18 21 20 4 29 -13 8 -32 3 -78 -21 l-60 -31 66
-11 c36 -5 73 -15 80 -22 8 -7 42 -12 74 -12 33 0 82 -4 110 -9 27 -6 51 -9
53 -8 4 5 -100 216 -107 215 -3 0 -27 -12 -53 -27z m0 -95 c3 -16 1 -17 -17
-7 -25 13 -28 33 -4 28 10 -2 19 -11 21 -21z"/>
<path d="M1839 1638 c-1 -187 5 -177 -137 -254 -47 -26 -127 -73 -177 -104
-104 -65 -210 -124 -242 -134 -17 -5 -23 -2 -29 16 -7 22 -7 22 -15 3 -11 -29
-11 -65 1 -65 6 0 74 37 153 83 78 46 213 124 299 173 l158 89 0 143 c0 78 -2
142 -5 142 -3 0 -5 -42 -6 -92z"/>
<path d="M2045 1710 c3 -5 17 -10 31 -10 13 0 24 5 24 10 0 6 -14 10 -31 10
-17 0 -28 -4 -24 -10z"/>
<path d="M1753 1689 c-18 -12 -33 -27 -33 -35 0 -26 79 22 80 49 0 12 -13 8
-47 -14z"/>
<path d="M1603 1638 c-40 -23 -71 -44 -68 -46 5 -5 145 76 145 83 0 7 0 7 -77
-37z"/>
<path d="M1926 1665 c-11 -8 -17 -17 -14 -21 8 -8 48 14 48 26 0 14 -12 12
-34 -5z"/>
<path d="M1620 1615 c-73 -44 -100 -68 -89 -80 10 -10 174 90 177 108 5 24 -4
21 -88 -28z m80 27 c0 -10 -150 -96 -156 -89 -3 2 30 25 73 50 92 53 83 49 83
39z"/>
<path d="M1376 1535 c-109 -65 -131 -105 -26 -48 38 21 64 41 58 44 -6 4 7 16
30 28 39 20 53 32 35 30 -5 0 -48 -25 -97 -54z m-21 -35 c-27 -16 -54 -30 -60
-30 -5 0 13 14 40 30 28 16 55 30 60 30 6 0 -12 -14 -40 -30z"/>
<path d="M785 1571 c-6 -5 -34 -21 -62 -36 -29 -15 -53 -28 -53 -30 0 -1 37
-8 83 -15 45 -7 87 -19 92 -27 6 -8 36 -16 70 -19 45 -3 55 -2 40 6 -15 8 -8
9 30 5 43 -4 46 -3 20 6 -16 5 -55 11 -87 12 -31 1 -54 5 -51 10 2 4 -3 7 -12
7 -25 0 -89 29 -81 37 4 4 28 10 54 13 l47 6 -32 17 c-36 19 -45 21 -58 8z"/>
<path d="M1748 1562 c-25 -15 -39 -42 -22 -42 13 0 74 42 74 51 0 14 -22 10
-52 -9z"/>
<path d="M1602 1513 c-35 -19 -61 -37 -59 -40 2 -2 35 14 73 36 38 23 65 41
59 40 -5 0 -38 -16 -73 -36z"/>
<path d="M1663 1514 c-44 -26 -60 -44 -22 -24 11 7 23 9 26 7 3 -3 -8 -12 -24
-21 -15 -8 -24 -15 -19 -16 21 -1 86 45 86 62 0 22 3 23 -47 -8z"/>
<path d="M1406 1463 c-22 -30 -13 -56 23 -61 27 -4 28 14 1 23 -20 6 -25 16
-13 28 3 4 15 -1 26 -10 20 -18 20 -18 3 15 -9 17 -18 32 -19 32 -1 0 -11 -12
-21 -27z"/>
<path d="M1020 1164 l0 -265 28 19 c15 10 65 40 112 66 200 113 516 300 530
314 20 19 -30 -6 -145 -73 -224 -130 -483 -275 -494 -275 -8 0 -11 64 -11 225
l0 224 28 15 27 15 -37 1 -38 0 0 -266z"/>
<path d="M1316 1421 c-16 -3 -31 -12 -34 -20 -3 -10 0 -12 12 -8 10 4 32 7 50
7 22 0 33 5 33 15 0 16 -12 17 -61 6z"/>
<path d="M857 1393 c-11 -10 -8 -53 3 -53 6 0 10 14 10 30 0 31 -2 35 -13 23z"/>
<path d="M1373 1303 c-93 -55 -93 -55 -93 -95 0 -22 3 -38 8 -36 4 2 47 26 95
53 l87 50 0 43 c0 23 -1 42 -2 41 -2 0 -45 -25 -95 -56z m72 -3 c5 -9 -79 -68
-118 -83 -14 -5 -18 -3 -15 10 2 9 28 31 58 49 61 37 66 38 75 24z"/>
<path d="M850 1296 c0 -14 5 -28 10 -31 6 -4 10 7 10 24 0 17 -4 31 -10 31 -5
0 -10 -11 -10 -24z"/>
<path d="M2360 1261 c-15 -29 -12 -58 6 -65 23 -9 29 0 14 19 -11 13 -8 15 24
15 24 0 39 5 43 16 13 35 -69 49 -87 15z"/>
<path d="M934 1156 c-10 -8 -16 -17 -12 -21 7 -7 48 16 48 27 0 12 -14 9 -36
-6z"/>
<path d="M2486 1144 c-9 -8 -16 -21 -16 -28 0 -17 21 -36 40 -35 10 0 11 2 3
6 -20 8 -15 33 6 33 25 0 38 20 20 31 -21 13 -36 11 -53 -7z"/>
<path d="M1871 1014 c-18 -13 -28 -14 -49 -5 -25 11 -26 10 -8 -4 26 -20 39
-19 67 5 29 24 22 26 -10 4z"/>
<path d="M2336 1017 c-20 -15 -18 -48 3 -55 8 -3 11 0 7 7 -5 7 5 11 28 11 29
0 36 4 36 19 0 30 -43 41 -74 18z"/>
<path d="M1681 919 c16 -15 15 -17 -17 -28 -19 -7 -44 -10 -57 -7 -13 4 -10 0
8 -8 17 -8 32 -11 35 -6 3 4 14 10 26 14 11 3 36 18 55 32 19 15 25 23 14 19
-41 -15 -55 -17 -68 -9 -7 5 -5 2 4 -7z"/>
<path d="M894 902 c-6 -4 -14 -24 -17 -45 -5 -32 -2 -43 18 -63 13 -13 34 -24
47 -24 19 1 17 3 -12 17 -26 12 -31 17 -18 20 16 4 16 6 3 19 -23 23 -18 34
15 34 34 0 52 26 29 41 -17 11 -50 11 -65 1z"/>
<path d="M1016 863 c-4 -5 159 -113 169 -113 2 0 50 -29 108 -63 57 -35 112
-67 121 -70 25 -10 19 -33 -16 -62 l-33 -26 30 14 c17 8 86 48 155 88 69 39
144 83 168 97 24 13 41 26 39 28 -2 3 -53 -23 -113 -57 -60 -33 -119 -65 -131
-70 -13 -5 -23 -13 -23 -19 0 -14 -39 7 -273 143 -108 63 -198 112 -201 110z"/>
<path d="M1578 840 c-13 -11 -18 -19 -11 -20 6 0 19 7 27 16 9 8 16 11 16 6 0
-5 12 -14 26 -20 15 -7 22 -17 18 -24 -4 -7 -3 -8 4 -4 19 11 14 19 -22 43
-34 22 -35 22 -58 3z"/>
<path d="M1407 816 c-53 -32 -60 -42 -12 -18 51 27 73 42 60 42 -5 -1 -27 -11
-48 -24z"/>
<path d="M1489 789 c-57 -32 -90 -58 -54 -44 39 15 60 15 80 -1 20 -15 20 -15
1 -30 -27 -19 -11 -18 20 2 l25 17 -31 15 c-35 17 -38 27 -11 42 24 12 68 -5
74 -29 4 -14 5 -14 6 0 0 8 -12 25 -27 36 l-29 21 -54 -29z"/>
<path d="M921 711 c-23 -15 -5 -44 21 -36 31 10 42 21 34 34 -9 13 -36 14 -55
2z"/>
</g>
</svg>
